<svg xmlns="http://www.w3.org/2000/svg" viewBox="0 0 20 20"><g fill="none"><path d="M6.871.547C4.386 1.38 2.27 3.203 1.09 5.51A9.767 9.767 0 0 0 .2 8.025a9.854 9.854 0 0 0 .884 6.466 10.133 10.133 0 0 0 2.77 3.338 10.247 10.247 0 0 0 3.708 1.833c1.7.447 3.511.436 5.223.054 1.547-.35 3.011-1.075 4.18-2.128 1.234-1.113 2.117-2.575 2.584-4.15.51-1.715.576-3.548.257-5.311h-9.6v3.902h5.563a4.703 4.703 0 0 1-2.04 3.091 5.915 5.915 0 0 1-2.25.871c-.8.134-1.635.15-2.436-.005a6.105 6.105 0 0 1-2.27-.963 6.195 6.195 0 0 1-2.338-3.069 5.952 5.952 0 0 1 0-3.892 6.226 6.226 0 0 1 1.482-2.36 6.086 6.086 0 0 1 3.05-1.66 6.209 6.209 0 0 1 2.995.118c.823.242 1.58.688 2.2 1.268l1.876-1.838c.329-.328.674-.645.993-.984A9.985 9.985 0 0 0 13.745.612 10.498 10.498 0 0 0 6.87.547z" fill="#FFF"/><path d="M6.871.547a10.533 10.533 0 0 1 6.874.06A9.95 9.95 0 0 1 17.03 2.6c-.319.338-.664.656-.993.983l-1.876 1.839a5.583 5.583 0 0 0-2.2-1.269 6.143 6.143 0 0 0-2.995-.118 6.132 6.132 0 0 0-3.05 1.661 6.185 6.185 0 0 0-1.482 2.36c-1.113-.85-2.227-1.693-3.346-2.543A10.204 10.204 0 0 1 6.871.547z" fill="#EA4335"/><path d="M.206 8.02c.181-.872.477-1.72.889-2.517 1.113.85 2.227 1.694 3.346 2.543a5.917 5.917 0 0 0 0 3.892c-1.114.85-2.227 1.699-3.34 2.543a9.77 9.77 0 0 1-.895-6.462z" fill="#FBBC05"/><path d="M10.206 8.121h9.6c.319 1.758.247 3.591-.257 5.311-.467 1.575-1.35 3.037-2.584 4.15l-3.242-2.467a4.703 4.703 0 0 0 2.04-3.091h-5.562c.005-1.3.005-2.602.005-3.903z" fill="#4285F4"/><path d="M1.09 14.486c1.113-.844 2.226-1.693 3.34-2.543a6.226 6.226 0 0 0 2.337 3.07c.68.467 1.459.8 2.27.962.802.161 1.63.14 2.437.005.8-.14 1.574-.424 2.249-.87l3.242 2.467c-1.169 1.059-2.633 1.78-4.18 2.128-1.712.382-3.522.393-5.223-.053a10.162 10.162 0 0 1-3.708-1.833 10.11 10.11 0 0 1-2.765-3.333z" fill="#34A853"/></g></svg>