<svg xmlns="http://www.w3.org/2000/svg" viewBox="0 0 195.1 114.1" xml:space="preserve"><path d="M69.9 71.9H55.5V31.8L39 59.6h-8.1L14.5 31.7v40.2H.1V5.3h14.4L35 40.1 55.5 5.3h14.4zM85.7.6h7.1v60.9c0 1.8.4 3.1 1.1 3.8.7.7 2 1 3.8 1h1.1c.5 0 .9-.1 1.4-.1l1 4.2c-.5.2-1.1.5-1.8.7-.7.2-1.4.5-2.1.7-.7.2-1.4.3-2.2.5-.7.1-1.4.2-2 .2-2.3 0-4.2-.8-5.5-2.3-1.3-1.5-2-3.8-2-6.7V.6zm21.9 22.1h7.1v48.9h-7.1V22.7zm-.7-15.9c0-1.1.4-2.1 1.2-3 .8-.9 1.8-1.4 3.1-1.4s2.3.5 3.1 1.4c.8.9 1.2 1.9 1.2 3 0 1.2-.4 2.3-1.3 3.1-.8.8-1.8 1.2-2.9 1.2-1.2 0-2.2-.4-3-1.2-1-.8-1.4-1.8-1.4-3.1M129 22.7v-3.8c0-6.2 1.5-11 4.5-14.1 3-3.2 7-4.8 12.2-4.8 1.9 0 3.7.2 5.5.7 1.8.5 3.1 1 3.9 1.5L152 8.4c-.5-.3-1.4-.8-2.8-1.5-1.4-.6-2.8-1-4.1-1-3.4 0-5.8.9-7.2 2.7-.8 1-1.3 2.6-1.5 4.8-.2 2.3-.3 5.3-.3 9.2h11.5l-.7 6h-10.8v42.9H129V28.7h-6.6v-6h6.6zm38.6 4.8c-4.3 0-7.5 1.5-9.6 4.4-2.2 2.9-3.3 6.2-3.5 9.9h25.4c-.1-3.9-1.1-7.2-2.9-10-1.8-2.9-4.9-4.3-9.4-4.3M188 62.8c-2.1 2.8-4.7 5.1-7.8 6.9-3.1 1.8-7.1 2.6-12 2.6-6.4 0-11.5-2.3-15.4-6.8-3.9-4.5-5.8-10.9-5.8-19.2 0-7.2 1.8-13.1 5.3-17.6 3.5-4.5 8.7-6.8 15.5-6.8 5.8 0 10.3 1.6 13.7 4.8 3.4 3.2 5.2 7.6 5.7 13.3.2 2.1.2 4.4.1 6.7h-32.8c0 5.4 1.2 10 3.7 13.9 2.5 3.9 5.9 5.8 10.1 5.8 3.1 0 5.8-.6 8.1-1.9 2.3-1.3 4.5-3.2 6.4-5.8l5.2 4.1zM11.5 102.5c3.2 0 4.8-.5 4.8-2.8s-1.6-2.8-4.8-2.8H4v5.6h7.5zM.1 93.6h12c4.7 0 8.1 1.1 8.1 6 0 3.7-2.6 5.7-5.6 5.9l6.1 8.1h-4.8l-5.8-7.8H4v7.8H.1v-20zm28 0H46V97H32v4.6h12.1v3.3H32v5.3h14.4v3.4H28.1zm23.2 0h3.9l3.9 13.7 3.8-13.7h3.8l3.8 13.7h.1l3.8-13.7h3.8l-5.8 20h-3.7l-3.8-14.2h-.1L61 113.6h-3.8zm46.5 12-4.2-8.9-4.2 8.9h8.4zm-6.4-12h4.4l9.7 19.9h-4.1l-2.1-4.6H87.9l-2.1 4.6h-4.1l9.7-19.9zm31.8 8.9c3.2 0 4.8-.5 4.8-2.8s-1.6-2.8-4.8-2.8h-7.5v5.6h7.5zm-11.4-8.9h12c4.7 0 8.1 1.1 8.1 6 0 3.7-2.6 5.7-5.6 5.9l6.1 8.1h-4.8l-5.8-7.8h-6.2v7.8h-3.9v-20zm35.9 16.6c6.6 0 9.2-2 9.2-6.7 0-4.9-2.7-6.6-9.2-6.6h-4v13.2h4zm-7.8-16.6h9.6c6.3 0 11.4 2.7 11.4 9.8 0 6.8-4.6 10.1-11.2 10.1h-9.8V93.6zm43.5 6.1c-.6-1.8-2.2-3.3-7-3.3-2.6 0-5.3.7-5.3 2.5 0 .8.5 1.8 4.5 2.2l4.7.7c4.5.7 7.1 2.4 7.1 5.8 0 4.7-4.5 6.5-9.8 6.5-8.6 0-10.6-4.2-11.1-5.7l3.8-1.2c.7 1.5 2.2 3.6 7.5 3.6 3.2 0 5.8-1 5.8-2.8 0-1.3-1.5-2.1-4.3-2.5l-4.8-.7c-4.6-.6-7.2-2.6-7.2-5.7 0-6 7.8-6 9.3-6 8.6 0 10.1 4 10.6 5.3l-3.8 1.3zM0 81.7h187.6v2.5H0zm191.5-9.3c-2.1 0-3.7-1.7-3.7-3.8s1.5-3.8 3.7-3.8c2.1 0 3.7 1.7 3.7 3.8s-1.6 3.8-3.7 3.8zm0-7c-1.8 0-3 1.5-3 3.2s1.2 3.2 3 3.2 3-1.5 3-3.2-1.2-3.2-3-3.2zm1 5-1-1.3h-.8v1.3h-.8v-3.7h2c.7 0 1.2.5 1.2 1.2 0 .5-.3.9-.7 1.1l1.1 1.5h-1zm-.7-3h-1v1.1h1c.3 0 .5-.2.5-.5s-.2-.6-.5-.6z"/></svg>