<svg xmlns="http://www.w3.org/2000/svg" viewBox="0 0 137 137"><defs><clipPath id="a"><path fill="none" d="M10.5 0h116v137h-116z"/></clipPath></defs><g fill-rule="evenodd" clip-path="url(#a)"><path d="M60 32.3h38.7c20.8 0 28.6 10.5 27.4 26-2 25.5-17.4 39.7-37.9 39.7H77.9c-2.8 0-4.7 1.9-5.5 6.9L68 134.2c-.3 1.9-1.3 3-2.8 3.1H40.9c-2.3 0-3.1-1.8-2.5-5.5l14.8-93.9c.6-3.8 2.6-5.5 6.7-5.5Z" fill="#add1e7"/><path d="M35.7 0h38.8C85.4 0 98.4.3 107 8c5.8 5.1 8.8 13.2 8.1 22-2.4 29.6-20.1 46.2-43.8 46.2H52.2c-3.3 0-5.4 2.2-6.3 8l-5.3 34c-.4 2.2-1.3 3.5-3 3.7h-24c-2.7 0-3.6-2-2.9-6.4l17.2-109C28.6 2.1 31 0 35.7 0Z" fill="#fff"/><path d="m46.4 80.8 6.8-42.9c.6-3.8 2.7-5.6 6.8-5.6h38.7c6.4 0 11.6 1 15.7 2.8-3.9 26.4-20.9 41-43.3 41H52c-2.6 0-4.4 1.3-5.6 4.6Z" fill="#e6eff6"/></g></svg>