<svg xmlns="http://www.w3.org/2000/svg" viewBox="0 0 22 22" width="16" height="16" fill="currentColor">
  <circle cx="11" cy="12" r="1.5"/>
  <path d="M11 16.9971c-.9233 0-1.8467-.4297-2.707-1.29l1.4141-1.4141c.9424.9414 1.6436.9414 2.5859 0l1.4141 1.4141c-.8604.8604-1.7837 1.29-2.707 1.29Z" />
  <path d="M22 6c0-2.2056-1.7944-4-4-4-.2097 0-.4114.0307-.6125.062C15.5844.7696 13.3826 0 11 0S6.4156.7696 4.6125 2.062C4.4114 2.0308 4.2097 2 4 2 1.7944 2 0 3.7944 0 6c0 .666.1791 1.2849.4683 1.8378C.1667 8.8402 0 9.9006 0 11c0 6.0654 4.9346 11 11 11s11-4.9346 11-11c0-1.0994-.1667-2.1598-.4683-3.1622C21.8208 7.2849 22 6.666 22 6ZM4 4c.3751 0 .7224.1101 1.0226.2904C5.6052 4.6403 6 5.2721 6 6c0 1.103-.897 2-2 2-.4965 0-.9456-.1884-1.2955-.4889C2.2769 7.144 2 6.6065 2 6c0-1.103.897-2 2-2Zm7 16c-4.9624 0-9-4.0371-9-9 0-.5065.0522-1.0001.1331-1.4841C2.6931 9.8147 3.3222 10 4 10c.9547 0 1.8206-.3502 2.509-.9104C6.5562 9.8755 7.2022 10.5 8 10.5c.8284 0 1.5-.6716 1.5-1.5S8.8284 7.5 8 7.5c-.1055 0-.2083.0114-.3076.0321C7.8891 7.0597 8 6.5428 8 6c0-1.1525-.4971-2.1847-1.2797-2.9153C7.9939 2.3932 9.4519 2 11 2s3.0063.3932 4.2798 1.0847C14.4971 3.8154 14 4.8475 14 6c0 .5428.1108 1.0598.3076 1.5321C14.2083 7.5114 14.1055 7.5 14 7.5c-.8284 0-1.5.6716-1.5 1.5s.6716 1.5 1.5 1.5c.7977 0 1.4437-.6245 1.491-1.4104C16.1795 9.6498 17.0453 10 18 10c.6778 0 1.3069-.1853 1.8669-.4841.0808.4839.1331.9775.1331 1.4841 0 4.9629-4.0371 9-9 9Zm8.2957-12.489C18.9457 7.8115 18.4966 8 18 8c-1.103 0-2-.897-2-2 0-.728.3947-1.3598.9775-1.7097C17.2777 4.11 17.625 4 18 4c1.103 0 2 .897 2 2 0 .6064-.2769 1.144-.7043 1.511Z"/>
</svg>
