<svg width="42" height="42" viewBox="0 0 42 42" fill="none" xmlns="http://www.w3.org/2000/svg">
<g clip-path="url(#clip0_5506_15510)">
<path d="M16.7767 19.3345L15.2988 20.7609V22.7749L16.7767 24.1973H18.8634L20.3371 22.7749V20.7609L18.8634 19.3345H16.7767Z" stroke="#756C8C" stroke-width="1.4" stroke-miterlimit="10"/>
<path d="M20.3275 15.8699L18.8496 17.2923V19.3103L20.3275 20.7327H22.4142L23.8879 19.3103V17.2923L22.4142 15.8699H20.3275Z" stroke="#756C8C" stroke-width="1.4" stroke-miterlimit="10"/>
<path d="M24.6781 8.60791L23.6914 9.56022V10.9097L24.6781 11.862H26.0762L27.0629 10.9097V9.56022L26.0762 8.60791H24.6781Z" stroke="#756C8C" stroke-width="1.4" stroke-miterlimit="10"/>
<path d="M15.4339 30.134L14.4473 31.0904V32.4358L15.4339 33.3921H16.8321L17.8187 32.4358V31.0904L16.8321 30.134H15.4339Z" stroke="#756C8C" stroke-width="1.4" stroke-miterlimit="10"/>
<path d="M17.8184 31.7632H25.401L31.934 25.4577V16.5425L26.5808 11.3757" stroke="#756C8C" stroke-width="1.4" stroke-miterlimit="10"/>
<path d="M23.6919 10.2371H16.1639L9.63086 16.5425V25.4578L14.9547 30.6002" stroke="#756C8C" stroke-width="1.4" stroke-miterlimit="10"/>
<path d="M21.8158 20.7327L20.3379 22.155V24.1731L21.8158 25.5955H23.9025L25.3762 24.1731V22.155L23.9025 20.7327H21.8158Z" stroke="#756C8C" stroke-width="1.4" stroke-miterlimit="10"/>
</g>
<defs>
<clipPath id="clip0_5506_15510">
<rect width="23.5625" height="26" fill="white" transform="translate(9 8)"/>
</clipPath>
</defs>
</svg>
