<svg width="132" height="134" viewBox="0 0 132 134" fill="none" xmlns="http://www.w3.org/2000/svg">
<path fill-rule="evenodd" clip-rule="evenodd" d="M3.03913 0.0518799C1.36078 0.0518799 0 1.41248 0 3.09101V130.734C0 132.413 1.36078 133.774 3.03913 133.774H101.811C118.176 133.774 131.442 120.507 131.442 104.142V29.6834C131.442 13.3184 118.176 0.0518799 101.811 0.0518799H3.03913ZM47.8663 36.1415C47.8663 43.4849 41.9134 49.4377 34.5701 49.4377C27.2268 49.4377 21.2739 43.4849 21.2739 36.1415C21.2739 28.7982 27.2268 22.8454 34.5701 22.8454C41.9134 22.8454 47.8663 28.7982 47.8663 36.1415ZM79.0174 67.2926C79.0174 74.6359 73.0645 80.5888 65.7212 80.5888C58.3778 80.5888 52.425 74.6359 52.425 67.2926C52.425 59.9493 58.3778 53.9964 65.7212 53.9964C73.0645 53.9964 79.0174 59.9493 79.0174 67.2926ZM96.8723 111.74C104.216 111.74 110.168 105.787 110.168 98.4437C110.168 91.1004 104.216 85.1475 96.8723 85.1475C89.5289 85.1475 83.5761 91.1004 83.5761 98.4437C83.5761 105.787 89.5289 111.74 96.8723 111.74Z" fill="#BC81D2"/>
</svg>
