<svg width="17" height="16" viewBox="0 0 17 16" fill="none" xmlns="http://www.w3.org/2000/svg">
<g id="more_horiz_FILL0_wght400_GRAD0_opsz48">
<rect width="16" height="16" transform="translate(0.5)" fill="#037AFF"/>
<path id="Vector" d="M3.96602 8.8002C3.74379 8.8002 3.5549 8.72242 3.39935 8.56686C3.24379 8.41131 3.16602 8.22242 3.16602 8.0002C3.16602 7.77797 3.24379 7.58908 3.39935 7.43353C3.5549 7.27797 3.74379 7.2002 3.96602 7.2002C4.18824 7.2002 4.37713 7.27797 4.53268 7.43353C4.68824 7.58908 4.76602 7.77797 4.76602 8.0002C4.76602 8.22242 4.68824 8.41131 4.53268 8.56686C4.37713 8.72242 4.18824 8.8002 3.96602 8.8002V8.8002ZM8.49935 8.8002C8.27713 8.8002 8.08824 8.72242 7.93268 8.56686C7.77713 8.41131 7.69935 8.22242 7.69935 8.0002C7.69935 7.77797 7.77713 7.58908 7.93268 7.43353C8.08824 7.27797 8.27713 7.2002 8.49935 7.2002C8.72157 7.2002 8.91046 7.27797 9.06602 7.43353C9.22157 7.58908 9.29935 7.77797 9.29935 8.0002C9.29935 8.22242 9.22157 8.41131 9.06602 8.56686C8.91046 8.72242 8.72157 8.8002 8.49935 8.8002ZM13.0327 8.8002C12.8105 8.8002 12.6216 8.72242 12.466 8.56686C12.3105 8.41131 12.2327 8.22242 12.2327 8.0002C12.2327 7.77797 12.3105 7.58908 12.466 7.43353C12.6216 7.27797 12.8105 7.2002 13.0327 7.2002C13.2549 7.2002 13.4438 7.27797 13.5993 7.43353C13.7549 7.58908 13.8327 7.77797 13.8327 8.0002C13.8327 8.22242 13.7549 8.41131 13.5993 8.56686C13.4438 8.72242 13.2549 8.8002 13.0327 8.8002V8.8002Z" fill="white"/>
</g>
</svg>
