<?xml version="1.0" encoding="utf-8"?>
<!-- Generator: Adobe Illustrator 24.1.3, SVG Export Plug-In . SVG Version: 6.00 Build 0)  -->
<svg version="1.1" id="Layer_1" xmlns="http://www.w3.org/2000/svg" xmlns:xlink="http://www.w3.org/1999/xlink" x="0px" y="0px"
	 viewBox="0 0 83.2 11.3" style="enable-background:new 0 0 83.2 11.3;" xml:space="preserve">
<style type="text/css">
	.st0{fill:#FEFEFE;}
</style>
<desc>Created with Sketch.</desc>
<g id="Page-1_1_">
	<g id="_x31_-3-Viewport-1440" transform="translate(-16.000000, -16.000000)">
		<g id="betboo_logo" transform="translate(16.000000, 16.000000)">
			<g id="Page-1">
				<path id="Fill-4" class="st0" d="M10.8,7.3V6.2c0-0.8-0.7-1.5-1.5-1.5H2.4v2.6c0,0.8,0.7,1.5,1.5,1.5h5.3
					C10.1,8.9,10.8,8.2,10.8,7.3L10.8,7.3z M9.2,2.3c2.2,0,3.9,1.8,3.9,3.9v1.1c0,2.2-1.8,3.9-3.9,3.9H3.9C1.8,11.2,0,9.4,0,7.3V0
					h2.4v2.3H9.2z"/>
				<path id="Fill-6" class="st0" d="M24.1,6.5C25,6.5,25,6,25,5.6c0-0.9-0.5-0.9-0.9-0.9H18c-0.6,0-1.2,0.7-1.4,1.8
					C16.6,6.5,24.1,6.5,24.1,6.5z M24.1,2.4c1.8,0,3.3,1,3.3,2.9s-1.5,2.8-3.3,2.8h-7.4c0.3,0.5,0.8,0.8,1.4,0.8h4.2v2.4h-4.2
					c-2.1,0-3.9-1.8-3.9-3.9V6.3c0-2.1,1.8-3.9,3.9-3.9H24.1z"/>
				<path id="Fill-8" class="st0" d="M52.2,7.3V6.2c0-0.8-0.7-1.5-1.5-1.5h-6.9v2.6c0,0.8,0.7,1.5,1.5,1.5h5.3
					C51.5,8.9,52.2,8.2,52.2,7.3L52.2,7.3z M50.7,2.3c2.2,0,3.9,1.8,3.9,3.9v1.1c0,2.2-1.8,3.9-3.9,3.9h-5.3c-2.1,0-3.9-1.8-3.9-3.9
					V0h2.4v2.3H50.7z"/>
				<path id="Fill-10" class="st0" d="M66.4,7.3V6.2c0-0.8-0.7-1.5-1.5-1.5h-5.4c-0.8,0-1.5,0.7-1.5,1.5v1.1c0,0.8,0.7,1.5,1.5,1.5
					h5.4C65.7,8.9,66.4,8.2,66.4,7.3L66.4,7.3z M64.9,2.3c2.1,0,3.9,1.8,3.9,3.9v1.1c0,2.2-1.8,3.9-3.9,3.9h-5.4
					c-2.1,0-3.9-1.8-3.9-3.9V6.2c0-2.2,1.8-3.9,3.9-3.9H64.9z"/>
				<path id="Fill-12" class="st0" d="M80.9,7.3V6.2c0-0.8-0.7-1.5-1.5-1.5H74c-0.8,0-1.5,0.7-1.5,1.5v1.1c0,0.8,0.7,1.5,1.5,1.5
					h5.4C80.2,8.9,80.9,8.2,80.9,7.3L80.9,7.3z M79.3,2.3c2.1,0,3.9,1.8,3.9,3.9v1.1c0,2.2-1.8,3.9-3.9,3.9h-5.4
					c-2.1,0-3.9-1.8-3.9-3.9V6.2c0-2.2,1.8-3.9,3.9-3.9H79.3z"/>
				<path id="Fill-14" class="st0" d="M40.3,4.7V2.3h-4.6V0h-2.4v2.3h-4.8v2.4h4.8v2.7l0,0c0,2.1,1.8,3.8,3.9,3.8h1V8.8h-1
					c-0.8,0-1.5-0.7-1.5-1.5v-1l0,0V4.6L40.3,4.7L40.3,4.7z"/>
			</g>
		</g>
	</g>
</g>
</svg>
