<svg width="143" height="20" viewBox="0 0 143 20" fill="none" xmlns="http://www.w3.org/2000/svg">
<path d="M8.70935 4.60656V3.4415L3.34494 3.43054L3.33398 11.9323C3.33398 11.9909 3.33398 12.0528 3.33782 12.1115C3.45126 13.8349 4.35656 14.9638 5.52161 15.8987C5.53257 15.9058 5.53641 15.9097 5.5397 15.9135L6.00715 16.2346L6.47843 15.9168C6.48227 15.913 6.48939 15.9097 6.50035 15.902C6.50035 15.902 6.50035 15.902 6.50419 15.8982C6.93875 15.5694 7.461 15.0619 7.79309 14.6016C8.26766 13.944 8.68414 13.0677 8.70223 11.9904L8.70935 8.06117L6.11675 8.05734L7.52621 6.99092C8.26711 6.42154 8.70935 5.54145 8.70935 4.60656ZM7.0363 9.10567L7.03246 11.9361C7.02862 12.7943 6.6379 13.4771 6.01372 14.1128C5.389 13.4771 5.00211 12.791 4.99827 11.9328L5.00211 9.10238L7.0363 9.10567ZM6.44884 6.37387L5.00649 7.82717L5.01033 4.93481L7.04452 4.93865C7.04013 5.47569 6.8286 5.99081 6.44884 6.37387Z" fill="#00F6FF"/>
<path d="M0 11.9252C0 13.1193 0.270166 14.2734 0.807209 15.3508C1.63963 17.1657 3.7067 18.8859 4.88655 19.4411L6.00393 20L7.12131 19.4411C8.30828 18.8859 10.3754 17.1696 11.2116 15.3617C11.7519 14.2843 12.0298 13.1302 12.0298 11.9361L12.0369 8.05409L10.3715 8.05025L10.3644 11.9323C10.3825 14.9562 8.07483 17.1033 6.00393 18.133C4.97752 17.6217 3.12636 16.3689 2.29723 14.6016C1.87746 13.7544 1.66155 12.8524 1.66538 11.9213L1.68018 1.76191L10.3786 1.77287L10.3748 4.82963L11.3059 4.1249C11.7695 3.77418 12.0435 3.22672 12.0435 2.64584L12.0506 0.279559L0.0175359 0.261475L0 11.9252Z" fill="#00F6FF"/>
<path d="M28.0904 9.09858C29.5125 8.30342 30.4506 6.91862 30.4506 5.07404C30.4567 2.07427 27.9972 0.272979 24.9602 0.272979L17.6252 0.260376L17.6191 3.70732L21.2957 3.71335L18.6625 5.70095C17.9978 6.19799 17.6131 6.98054 17.6065 7.81241L17.5879 18.6749L26.3138 18.6875C29.1645 18.6936 31.5434 16.4018 31.5368 13.5511C31.5434 11.1793 30.3076 9.65151 28.0904 9.09858ZM21.4075 3.71389L24.9536 3.71992C26.0841 3.71992 27.0031 4.5896 27.0031 5.71356C27.0031 6.83752 26.0841 7.68857 24.9476 7.68857L21.4014 7.68254L21.4075 3.71389ZM26.0469 15.2411L21.3888 15.2351L21.3949 11.13L26.0529 11.1361C27.1834 11.1361 28.1024 12.0551 28.1024 13.1916C28.1024 14.3221 27.1834 15.2411 26.0469 15.2411Z" fill="#FBFBFB"/>
<path d="M37.4272 11.1293L44.5261 11.1419L44.5321 7.69496L37.4332 7.68235L37.4393 3.71371L45.513 3.72632L45.519 0.279375L33.6564 0.260742L33.6504 3.70769L37.3269 3.71371L34.6938 5.70132C34.029 6.19836 33.6443 6.98091 33.6378 7.81278L33.6191 18.6753L45.587 18.6939L45.593 15.247L37.4195 15.2344L37.4272 11.1293Z" fill="#FBFBFB"/>
<path d="M47.1094 3.70787L51.7362 3.71389L54.4811 3.71992H55.4188L52.7856 5.70753C52.1209 6.20457 51.7362 6.98712 51.7296 7.81899L51.711 18.6815L55.4993 18.6875L55.524 3.71992L60.1508 3.72595L60.1568 0.279008L47.1143 0.260376L47.1094 3.70787Z" fill="#FBFBFB"/>
<path d="M69.1955 15.3836C66.7486 15.3775 64.8602 13.1417 64.8668 9.48321V9.40265C64.8728 5.82528 66.3699 3.53956 69.624 3.54614C73.9653 3.55217 75.201 7.73234 75.201 7.73234L75.207 2.45342C73.791 1.00614 72.027 7.19489e-06 69.2946 7.19489e-06C64.4317 -0.00602084 60.9535 3.7763 60.9414 9.35333V9.58952C60.9354 15.2164 64.1894 18.9302 69.0278 18.9368C71.8412 18.9428 73.6052 17.757 75.2635 16.0488L75.2695 10.9562C75.2756 10.9491 73.4562 15.3901 69.1955 15.3836Z" fill="#FBFBFB"/>
<path d="M77.7836 0.259676L77.7578 18.6682L81.5714 18.6736L81.5971 0.265015L77.7836 0.259676Z" fill="#FBFBFB"/>
<path d="M109.534 0.279375L105.87 7.50864L102.249 0.266771L97.9326 0.260742L103.914 11.4214L103.907 18.6819L107.721 18.6879L107.727 11.3781L113.739 0.285401L109.534 0.279375Z" fill="#FBFBFB"/>
<path d="M84.0128 3.70787L88.6396 3.71389L91.3785 3.71992H92.3162L89.683 5.70753C89.0183 6.20457 88.6336 6.98712 88.627 7.81899L88.6084 18.6815L92.3967 18.6875L92.4214 3.71992L97.0482 3.72595L97.0542 0.279008L84.0117 0.260376V3.70787H84.0128Z" fill="#FBFBFB"/>
<path d="M113.886 14.5764H109.8V18.6881H113.886V14.5764Z" fill="#FBFBFB"/>
<path d="M125.495 11.1419H125.378L119.688 0.260742H115.98V18.6386H119.602V7.05544H119.719L126.017 18.6386H129.085V0.260742H125.495V11.1419Z" fill="#FBFBFB"/>
<path d="M135.475 15.3901H135.468L132.543 15.384H131.537V18.6386H142.48V15.4027L135.475 15.3901Z" fill="#FBFBFB"/>
<path d="M135.475 11.0054V10.1297V0.260742H131.537V15.384L134.351 13.2599C135.059 12.7256 135.475 11.8932 135.475 11.0054Z" fill="#FBFBFB"/>
</svg>
