<?xml version="1.0" encoding="utf-8"?>
<!-- Generator: Adobe Illustrator 22.1.0, SVG Export Plug-In . SVG Version: 6.00 Build 0)  -->
<svg version="1.1" id="Layer_1" xmlns="http://www.w3.org/2000/svg" xmlns:xlink="http://www.w3.org/1999/xlink" x="0px" y="0px"
	 viewBox="0 0 607.9 200.8" style="enable-background:new 0 0 607.9 200.8;" xml:space="preserve">
<style type="text/css">
	.st0{fill:#FFFFFF;stroke:#000000;stroke-width:0.5;}
</style>
<path class="st0" d="M132.1,150.5h4.4v6.3H148v-6.3h4.4v15.8H148v-7.1h-11.5v7.1h-4.4V150.5z M185,158.4c0,4.5-4.5,8.3-12.1,8.3
	s-12.1-3.8-12.1-8.3s4.5-8.3,12.1-8.3C180.5,150.2,185,153.9,185,158.4z M165.2,158.4c0,3,2.3,6,7.7,6s7.7-3,7.7-6s-2.3-6-7.7-6
	C167.4,152.4,165.2,155.4,165.2,158.4z M189.5,150.5H210v2.4h-8v13.4h-4.4v-13.4h-8v-2.4H189.5z M217.1,150.5h18.2v2.4h-13.8v4.1
	h12.8v2.3h-12.8v4.6h14v2.4H217L217.1,150.5L217.1,150.5z M243,150.5h4.4v13.4h12.9v2.4H243V150.5z M349,156.2
	c-0.7-1.8-2.6-3.1-6.3-3.1c-5.4,0-7.7,3-7.7,6s2.3,6,7.7,6c3.9,0,6.1-1.8,6.5-4.1h4.3c-0.4,3.8-4.6,6.4-10.8,6.4
	c-7.6,0-12.1-3.8-12.1-8.3s4.5-8.3,12.1-8.3c5.7,0,10.2,2,10.7,5.4L349,156.2L349,156.2z M367.8,151.2h4.7l9.7,15.8h-4.8l-2.4-4.2
	h-10l-2.4,4.2H358L367.8,151.2z M366.2,160.7h7.7l-3.8-6.8H370L366.2,160.7z M391.1,161.7c0,2.4,2.9,3.4,6.4,3.4
	c3.9,0,5.4-1.2,5.4-2.4s-1.1-1.7-2.1-2c-1.8-0.4-4.1-0.7-7.5-1.3c-4.3-0.7-5.6-2.4-5.6-4c0-3.2,4.7-4.7,9.3-4.7
	c5.3,0,9.7,1.8,9.7,5.1h-4.4c-0.2-2-2.4-2.8-5.5-2.8c-2.1,0-4.6,0.5-4.6,2.1c0,1.1,1.2,1.7,3,2c0.4,0.1,6,1,7.3,1.2
	c3.3,0.6,4.9,2.4,4.9,4c0,3.5-5,5-10.1,5c-5.8,0-10.5-1.7-10.6-5.7L391.1,161.7L391.1,161.7z M416.1,151.2h4.4V167h-4.4V151.2z
	 M429.3,151.2h4.7l11.6,11.7h0.1v-11.7h4.2V167h-4.7l-11.5-11.6h-0.1V167h-4.2L429.3,151.2L429.3,151.2z M480.8,159.1
	c0,4.5-4.5,8.3-12.1,8.3s-12.1-3.8-12.1-8.3s4.5-8.3,12.1-8.3C476.3,150.8,480.8,154.6,480.8,159.1z M461,159.1c0,3,2.3,6,7.7,6
	s7.7-3,7.7-6s-2.3-6-7.7-6S461,156,461,159.1z M510.4,165.2c-1.9,1.4-4.1,2.1-7.1,2.1c-4.6,0-8-1.7-8-4.7c0-2.2,2.9-3.7,5.8-4.6
	c-1.3-1-2.6-2.1-2.6-3.5c0-2.3,2.8-3.8,6.2-3.8c3.3,0,6.3,1.3,6.3,3.8c0,1.9-2.1,3.2-4.6,4l3.9,3c0.3-0.5,0.6-1.1,0.8-2.1h3.5
	c-0.2,1.4-0.9,2.8-2,3.9l4.9,3.7h-5L510.4,165.2z M503.2,159.7c-1.5,0.6-3.9,1.1-3.9,3c0,1.7,1.7,2.7,4.1,2.7c2.9,0,4-1.1,4.8-1.8
	L503.2,159.7z M502.2,154.4c0,1,1.4,1.8,2.3,2.6c1.5-0.6,3-1.3,3-2.6c0-1-1-1.8-2.6-1.8C503.4,152.7,502.2,153.4,502.2,154.4z
	 M534.7,161.7c0,2.4,2.9,3.4,6.4,3.4c3.9,0,5.4-1.2,5.4-2.4s-1.1-1.7-2.1-2c-1.8-0.4-4.1-0.7-7.5-1.3c-4.3-0.7-5.6-2.4-5.6-4
	c0-3.2,4.7-4.7,9.3-4.7c5.3,0,9.7,1.8,9.7,5.1h-4.4c-0.2-2-2.4-2.8-5.5-2.8c-2.1,0-4.6,0.5-4.6,2.1c0,1.1,1.2,1.7,3,2
	c0.4,0.1,6,1,7.3,1.2c3.3,0.6,4.9,2.4,4.9,4c0,3.5-5,5-10.1,5c-5.8,0-10.5-1.7-10.6-5.7L534.7,161.7L534.7,161.7z M558.3,151.2h11.2
	c7.2,0,8.6,2.9,8.6,4.9s-1.4,4.9-8.6,4.9h-6.7v6.1h-4.4L558.3,151.2L558.3,151.2z M562.8,158.7h6.5c2,0,4.4-0.6,4.4-2.6
	c0-2.1-2-2.6-4.4-2.6h-6.6L562.8,158.7L562.8,158.7z M589.7,151.2h4.7l9.7,15.8h-4.8l-2.4-4.2h-10.1l-2.4,4.2H580L589.7,151.2z
	 M588.1,160.7h7.7l-3.8-6.8h-0.1L588.1,160.7z M130.7,2.3c-37.1-4-73.1-2.2-105.3,5.6c-4.9,1.7-10.7,1.2-15.6,2.9
	c0.9,4.7,7.7,7.9,13.5,9.1C53.8,2.9,95.1,5.5,134.5,9.3c2.7,1.2,7.6,0.2,8.5,3.3c-5.9,5.3-14.4,10.7-22.4,14.3
	C103.5,36.2,78.1,38,65.3,51.4c0,15.4,23.7,12.9,36.9,17.1c4.6,2.3,9.7,6.2,10.1,10.3c-0.4,30.9-54.7,23.9-63,50.7
	c1.2,2.7,3.9,1.2,6.6,1.8c24.5-7.1,55.7-16.6,65.5-36.4c2.6-6.9,3.4-15.8-4.1-21.7c-9.8-9.9-27.6-8.9-39-15.2
	c21.5-12.1,46.6-20.2,67.8-32.1c5-3.6,11.1-7.2,8.9-12.6C150.4,6.4,139.2,5.4,130.7,2.3z M527.3,40.7c1.7-5-5.3-5.6-9.7-6.8
	c-18.4,12.9-38.1,23.3-54.1,38.1c-15,1.6-31,2.5-44.2,7.2c3.7,3.9,5.5,7.2,10.4,10.3c6.1-3.9,15-2.8,21.9-5l1.1,0.9l-12.2,27
	c-0.1,6.3-5.4,15.7,2.8,19.6c18.6-15.3,20.4-36.8,37.6-52.6c30.3-4.3,58.6-8.1,90.6-8.9c2.5,0.1,6.2,0.4,6,2.4
	c-19.2,6.2-40.6,8.2-59.6,15.6c-13.5,4.9-26.1,13.7-24.2,25.7c3.8,3,3.9,10.7,12.9,9.4c19.6-4.1,33.6-17.9,49.3-27.3l3.9-0.2
	c-2,5.3-5.6,10.2-5.4,16.3c4.1,6.5,4.9,16.9,17.7,18.4c3.3,0.4,8.9,0.7,11.6-1.4c-5.5-1.7-11-3.1-15.9-5.8
	c-5.1-4.3-0.5-10.9-2.4-16.1c-0.9-4.5,0.3-9.7-2.6-13.7c-15.3-1.7-26.8,8-38.5,15.2c-7,3.8-14.6,9.1-22.9,7
	c12.1-24.8,50.6-30.6,77.9-42c1.5-1.1,1.2-2-0.4-3.1c-29.3-3.3-59.2-0.6-87.5-0.6l-1.3-1.1c7.7-7,16.1-15,25.4-20.8L527.3,40.7z
	 M60,26.9C31,56.7,1.5,87.6,0.3,126.3c0.8,4.7,7.5,6.7,13,8C39.3,97,49.1,53.5,85.3,20C75.4,8.6,66.4,22,60,26.9z M328.1,64.6
	c-21.7,6.2-39.4,16.7-58.3,28.2c-6.7,4.9-13.5,10.3-11.1,17.8c4.2,4.7,8.2,13.2,18.1,12.8c19.4-5.1,37.8-18,50.8-29.6l1.3,1.1
	c-8.8,21.5-21,42.1-35.8,61.4c-12.9,19.9-37,37.9-67.9,42.8l-0.1,1.4c19.6,0.5,38.8-1,53-9.5c37.8-27.8,60-62.1,69.2-100.3
	c-1.7-5.2-9.8-5.8-15-7.7c-18.4,12.5-37,29-61,31.4l0.2-3.4c8.9-12.6,27.1-21.5,42.2-31.1c10.1-4.1,19.5-11.6,32-9.3
	C342.9,65.9,335.1,64.4,328.1,64.6z M394.2,70.8c-18.8,10.2-41.3,20.1-44.6,37.7c-2.7,7.1,3.8,12.6,10.5,18.2
	c15.3,3.1,27.7-7.5,39.2-13.7l1.1,0.9c-1.9,2.9-2.6,6.1-2.5,9.6c4.3,3.3,5.3,10.4,13.8,9.1c3.8-2.6,11.7-3.4,11.7-7.6
	c-4.3,1.4-9.1,2.7-13.6,2.3c0.7-7.8,13.5-14.2,8.1-22.8c-3-1.6-6.5-4-10.5-2.6l-36.7,18.3c-2.8,0.4-6.1,3.1-8.7,0.5
	c4.3-15.7,25.1-26.4,41.1-37c1.7-1.1,5.6,0.9,6.8-1.4C408.5,76.1,401.1,73.1,394.2,70.8z M248.5,86.7c-3.1-4.2-7.6-9.5-14.2-11.9
	c-18.7-10.8-11,11.3-24.9,12.7c-12.7,1.7-28.4,0.6-37.2-7.6c-0.4-2.5-1.1-5.7-4.4-6.5c-16.6,4.7-32.9,15.1-34.8,28.5
	c1.6,5.8,2.7,11.9,10.6,16.2c11.3,3.9,20.9-2.2,30.1-6.5c6.2-5.1,6.9-12.3,9.8-18.8l18.7,1.1c10.7-0.8,22.2-6,27.2-13.4
	c2.8,0,4.4,1.9,6.6,2.8c-2.9,6.5-13.2,10.2-16.7,16.4c-2.3,5.7-3.1,14.6,2.2,20.1c1.6,1.5,5,1.3,6.7,0.8
	C229.6,107.2,251.6,100.8,248.5,86.7z M146,112.3c-3.5-3.2-0.4-7.9,1.5-11l18.9-16.9c6.5,0,9.3,4.8,13.9,7.1
	C174.7,101.8,163.1,112.3,146,112.3z M598.7,51c1.5,0,3,0.4,4.4,1.2c1.4,0.8,2.6,1.9,3.4,3.3c0.8,1.4,1.2,3,1.2,4.5
	c0,1.6-0.4,3-1.2,4.5c-0.8,1.4-1.9,2.5-3.3,3.3c-1.4,0.8-2.9,1.2-4.5,1.2s-3.1-0.4-4.5-1.2c-1.4-0.8-2.5-1.9-3.3-3.3
	s-1.2-2.9-1.2-4.5s0.4-3.1,1.2-4.5s1.9-2.6,3.4-3.3C595.7,51.4,597.2,51,598.7,51z M598.7,52.5c-1.3,0-2.5,0.3-3.7,1
	c-1.2,0.6-2.1,1.6-2.8,2.8c-0.7,1.2-1,2.5-1,3.8s0.3,2.5,1,3.7s1.6,2.1,2.8,2.8c1.2,0.7,2.4,1,3.7,1s2.5-0.3,3.7-1s2.1-1.6,2.8-2.8
	c0.7-1.2,1-2.4,1-3.7c0-1.3-0.3-2.6-1-3.8c-0.7-1.2-1.6-2.1-2.8-2.8S600,52.5,598.7,52.5z M594.8,65v-9.7h3.3c1.1,0,2,0.1,2.5,0.3
	c0.5,0.2,0.9,0.5,1.2,0.9s0.5,0.9,0.5,1.4c0,0.7-0.3,1.3-0.8,1.9c-0.5,0.5-1.2,0.8-2,0.9c0.3,0.1,0.6,0.3,0.8,0.5
	c0.4,0.4,0.9,1,1.4,1.9l1.2,1.9H601l-0.9-1.5c-0.7-1.2-1.2-2-1.6-2.3c-0.3-0.2-0.7-0.3-1.3-0.3h-0.9V65C596.3,65,594.8,65,594.8,65z
	 M596.3,59.6h1.9c0.9,0,1.5-0.1,1.9-0.4c0.3-0.3,0.5-0.6,0.5-1.1c0-0.3-0.1-0.5-0.2-0.8c-0.2-0.2-0.4-0.4-0.7-0.5s-0.8-0.2-1.6-0.2
	h-1.8L596.3,59.6L596.3,59.6z"/>
</svg>
