<svg id="Layer_1" data-name="Layer 1" xmlns="http://www.w3.org/2000/svg" viewBox="0 0 973.03 216.55"><defs><style>.cls-1,.cls-3{fill:#fff;}.cls-2{fill:#ffcd05;}.cls-3{fill-rule:evenodd;}</style></defs><path class="cls-1" d="M363.79,187.19a80.07,80.07,0,0,1-1.64,9.54q-7,33.56-22.74,49.33t-38.92,15.79a38.27,38.27,0,0,1-9.08-1,39.83,39.83,0,0,1-7.75-2.74,30.72,30.72,0,0,1-.45,8.66q-.87,5.16-1.53,8.67l-4.83,23.24L236.07,309l25.65-121.25q1.77-9.21,2.89-15.79a75.16,75.16,0,0,0,1.11-12.5c0-1.75-.08-3.43-.22-5s-.37-3.28-.66-5L299,143a35.33,35.33,0,0,1,1.12,5.48c.29,2.2.52,4.46.66,6.8a72.56,72.56,0,0,1,13-8.12q8.19-4.16,19.56-4.17c6,0,11,.95,15,2.85a25.76,25.76,0,0,1,9.62,7.57,28.06,28.06,0,0,1,5,11,58.43,58.43,0,0,1,1.43,13A87.47,87.47,0,0,1,363.79,187.19Zm-42-11.18c-1-1.54-2.82-2.31-5.38-2.31a12.83,12.83,0,0,0-8.25,2.64,33.85,33.85,0,0,0-7,8.36l-9.65,44.46c.29,2.06,2.45,3.08,6.48,3.08a26.7,26.7,0,0,0,6.37-.77,11.24,11.24,0,0,0,5.83-4,36.31,36.31,0,0,0,5.29-9.57,106.84,106.84,0,0,0,5-17.61c.74-3.52,1.39-6.82,2-9.91a44.71,44.71,0,0,0,.88-8.14A11.31,11.31,0,0,0,321.81,176Z" transform="translate(-113.98 -92.44)"/><path class="cls-1" d="M443.27,173.92a20.85,20.85,0,0,0-5.58-.65,13.42,13.42,0,0,0-8.45,2.63,35.62,35.62,0,0,0-7.12,8.16l-16,74.93H367.73l14.79-68.85q1.53-7.23,2.53-12.94t1.43-10.52a77.22,77.22,0,0,0,.33-8.88,47.24,47.24,0,0,0-1-8.44L419.92,143a53.31,53.31,0,0,1,2.19,12.94,50.88,50.88,0,0,1,11.4-9A31.16,31.16,0,0,1,450,142.57a27.55,27.55,0,0,1,7,.76,39.38,39.38,0,0,1,6.58,2.48L448.2,176.34A17.48,17.48,0,0,0,443.27,173.92Z" transform="translate(-113.98 -92.44)"/><path class="cls-1" d="M555.74,190.14A37.78,37.78,0,0,1,544.89,203,55.62,55.62,0,0,1,527,211.85a84.36,84.36,0,0,1-24.67,3.29c-3.26,0-6.1-.08-8.53-.22a23.15,23.15,0,0,1-5-.66,20.68,20.68,0,0,0-.56,3.9c-.08,1.42-.11,2.43-.11,3,0,5.68,1.18,9.48,3.52,11.43s6.46,2.91,12.33,2.91a48.19,48.19,0,0,0,16-3.07,66.29,66.29,0,0,0,16-8.11l7.48,23.7a115.59,115.59,0,0,1-25.76,10.67,83.82,83.82,0,0,1-20.71,3.13q-24.56,0-35.85-9.87t-11.29-31.79a96,96,0,0,1,4.51-29.6,75.74,75.74,0,0,1,13.1-24.67A63.43,63.43,0,0,1,488.29,149q12.33-6.24,28.19-6.25a77.32,77.32,0,0,1,16.73,1.75,40,40,0,0,1,13.65,5.59,28.74,28.74,0,0,1,9.14,10A30.34,30.34,0,0,1,559.4,175,33.31,33.31,0,0,1,555.74,190.14Zm-43.34-21a13.85,13.85,0,0,0-11.5,5.37c-2.81,3.59-4.78,8.37-6,14.33q1.77,1.13,8,1.12a26.94,26.94,0,0,0,6.52-.79,18,18,0,0,0,5.75-2.46,15.72,15.72,0,0,0,4.21-4,9.33,9.33,0,0,0,1.65-5.49Q521,169.11,512.4,169.1Z" transform="translate(-113.98 -92.44)"/><path class="cls-1" d="M728.31,169.43q-.43,3-1.08,6L709.46,259H672.83l15.35-72.54q.44-2.19.66-4a24.35,24.35,0,0,0,.21-3.08c0-2-.43-3.51-1.31-4.39s-2.41-1.32-4.6-1.32a12.53,12.53,0,0,0-7.89,2.53,34.46,34.46,0,0,0-7,8L652.45,259H616.72l15.35-72.54a46.64,46.64,0,0,0,1.1-7.69,5.36,5.36,0,0,0-1.2-3.85c-.81-.8-2.23-1.21-4.28-1.21a13,13,0,0,0-7.9,2.42,31.25,31.25,0,0,0-7,8.13l-16,74.74H559.48l15.13-71.26c1.19-6.14,2.13-11.4,2.87-15.79a75.16,75.16,0,0,0,1.11-12.5c0-1.75-.08-3.43-.22-5.05s-.37-3.28-.66-5l34-6.36c.29,1.46.59,3.33.89,5.59s.51,4.43.65,6.47a50.74,50.74,0,0,1,14-8.55A48.37,48.37,0,0,1,646.1,143q9.87,0,15,3.62a22,22,0,0,1,7.57,8.88,47.86,47.86,0,0,1,15.23-9.21A50.56,50.56,0,0,1,702,143a47.05,47.05,0,0,1,13,1.53,20.83,20.83,0,0,1,8.23,4.38,15.44,15.44,0,0,1,4.27,6.58,25.64,25.64,0,0,1,1.21,7.89A41.59,41.59,0,0,1,728.31,169.43Z" transform="translate(-113.98 -92.44)"/><path class="cls-1" d="M733.42,259,757.1,147.61l39-3.51L771.8,259H733.42Z" transform="translate(-113.98 -92.44)"/><path class="cls-1" d="M898.6,234.44a62,62,0,0,0,2,16.88L864.75,264a30.91,30.91,0,0,1-2.31-7.35c-.65-3.14-1.13-5.37-1.42-6.69q-13.85,11.83-33.84,11.84a53.6,53.6,0,0,1-10.33-1,25.56,25.56,0,0,1-9-3.51,18,18,0,0,1-6.24-6.8,22.7,22.7,0,0,1-2.31-10.86,71.76,71.76,0,0,1,.76-9.53q.76-5.6,2.75-15.46l14-66.22,39.48-5-16,75c-1,4.52-1.17,7.76-.43,9.73s2.7,2.95,5.91,2.95a15,15,0,0,0,8.33-2.4,27,27,0,0,0,7.41-8.1l15.4-72.18,39.47-5-15.82,74.1A98.72,98.72,0,0,0,898.6,234.44Z" transform="translate(-113.98 -92.44)"/><path class="cls-1" d="M1086.56,169.43c-.29,2-.65,4-1.1,6L1067.7,259h-36.62l15.35-72.54c.29-1.46.51-2.78.65-4a24.54,24.54,0,0,0,.22-3.08c0-2-.45-3.51-1.32-4.39s-2.4-1.32-4.6-1.32a12.53,12.53,0,0,0-7.89,2.53,34.7,34.7,0,0,0-7,8L1010.69,259H975l15.35-72.54a46.3,46.3,0,0,0,1.09-7.69,5.32,5.32,0,0,0-1.2-3.85c-.8-.8-2.23-1.21-4.28-1.21a12.9,12.9,0,0,0-7.88,2.42,31.44,31.44,0,0,0-7,8.13L955,259H917.73l15.13-71.26q1.77-9.21,2.87-15.79a77.3,77.3,0,0,0,1.1-12.5c0-1.75-.08-3.43-.22-5.05s-.37-3.28-.66-5L969.9,143c.3,1.46.59,3.33.88,5.59s.51,4.43.66,6.47a50.65,50.65,0,0,1,14-8.55,48.28,48.28,0,0,1,18.85-3.51q9.87,0,15,3.62a21.91,21.91,0,0,1,7.56,8.88,48,48,0,0,1,15.25-9.21,50.56,50.56,0,0,1,18.09-3.29,47.15,47.15,0,0,1,13,1.53,20.72,20.72,0,0,1,8.22,4.38,15.46,15.46,0,0,1,4.28,6.58,25.34,25.34,0,0,1,1.21,7.89A43.07,43.07,0,0,1,1086.56,169.43Z" transform="translate(-113.98 -92.44)"/><path class="cls-2" d="M804.13,114.39a21.62,21.62,0,0,0-21.5-22,22.24,22.24,0,0,0-22.39,22,21.95,21.95,0,1,0,43.89,0Z" transform="translate(-113.98 -92.44)"/><path class="cls-3" d="M207.35,142.49c-11.06,0-19.36,2.9-24.22,5.63a203.47,203.47,0,0,0,8.5-41.58h0a83.49,83.49,0,0,0,.28-9.63l-44.67,5.43c.5,7.17-.56,18.5-6.29,42.72L119.37,234.3c-1,4.27-3.42,12.38-5.39,15.36,13.48,4.49,28.93,8.54,54.41,8.54,14,0,25-2.57,36.25-9.18C224,237.7,236,217.34,240.89,197.58,250.17,160.63,235.05,142.49,207.35,142.49Zm-11.26,57c-4.9,20.49-11.27,29.67-22.05,29.67-4.42,0-8.08-1.07-10-2.56l11.77-48.88c2.2-1.93,6.12-5.34,12.49-5.34C197.81,172.38,201.24,177.72,196.09,199.5Z" transform="translate(-113.98 -92.44)"/></svg>