<?xml version="1.0" encoding="iso-8859-1"?>
<!DOCTYPE svg PUBLIC "-//W3C//DTD SVG 1.1//EN" "http://www.w3.org/Graphics/SVG/1.1/DTD/svg11.dtd">
<svg version="1.1" id="Ebene_1" xmlns="http://www.w3.org/2000/svg" xmlns:xlink="http://www.w3.org/1999/xlink" x="0px" y="0px"
	 width="600px" height="200px" viewBox="0 0 600 200" style="enable-background:new 0 0 600 200;" xml:space="preserve">
<polygon style="fill:#FFFFFF;" points="397.138,68.012 365.492,196.655 416.836,196.655 449.75,62.624 "/>
<path style="fill:#FFFFFF;" d="M566.392,62.361c-15.304-1.501-39.181,3.215-50.98,12.21c-0.271-4.922-1.174-8.79-2.225-12.749
	l-45.445,5.567c1.807,12.691,0.026,26.774-4.437,45.724l-20.362,83.542h51.343l21.017-85.237
	c5.146-7.394,13.324-12.338,20.237-12.338c8.553,0,10.642,6.267,7.988,16.548l-19.729,81.027h51.345l22.033-88.001
	C602.429,84.8,594.688,65.139,566.392,62.361z"/>
<path style="fill:#FFD300;" d="M458.174,26.307c0-13.799-12.05-25.041-27.461-25.041c-15.694,0-28.586,11.241-28.586,25.041
	c0,13.796,12.613,25.046,27.744,25.046C445.56,51.354,458.174,40.104,458.174,26.307L458.174,26.307z"/>
<path style="fill-rule:evenodd;clip-rule:evenodd;fill:#FFFFFF;" d="M335.041,64.01l-16.231,37.535
	c-6.006,14.101-11.272,27.379-15.895,40.405l-0.631-77.94H255.95l-38.383,78.594l4.153-80.391l-51.046,6.366L181,196.655h45.15
	c0,0,34.248-69.104,37.315-77.104l0.457,77.104h46.325L386.684,64.01H335.041z"/>
<path style="fill-rule:evenodd;clip-rule:evenodd;fill:#FFFFFF;" d="M115.396,60.668c-13.331,0-23.312,3.495-29.19,6.771
	c8.396-26.035,10.269-50.066,10.269-50.066l-0.003,0.003c0.36-3.901,0.443-8.541,0.338-11.602l-53.806,6.543
	c0.605,8.633-0.662,22.28-7.578,51.438L9.458,171.209c-1.179,5.142-4.129,14.911-6.49,18.507C19.198,195.116,37.789,200,68.475,200
	c16.823,0,30.101-3.087,43.676-11.057c23.312-13.622,37.704-38.151,43.659-61.95C166.947,82.503,148.74,60.668,115.396,60.668z
	 M101.823,129.309c-5.903,24.676-13.577,35.729-26.559,35.729c-5.311,0-9.738-1.288-12.096-3.085l14.161-58.867
	c2.657-2.313,7.379-6.427,15.053-6.427C103.889,96.658,108.018,103.085,101.823,129.309z"/>
</svg>
