<?xml version="1.0" encoding="utf-8"?>
<!-- Generator: Adobe Illustrator 24.1.3, SVG Export Plug-In . SVG Version: 6.00 Build 0)  -->
<svg version="1.1" id="Layer_1" xmlns="http://www.w3.org/2000/svg" xmlns:xlink="http://www.w3.org/1999/xlink" x="0px" y="0px"
	 viewBox="0 0 1064.5 167.1" style="enable-background:new 0 0 1064.5 167.1;" xml:space="preserve">
<style type="text/css">
	.st0{fill:#FFFFFF;}
	.st1{fill:#EE404A;}
	.st2{fill:#FFCA05;}
	.st3{fill:#72BE44;}
</style>
<path class="st0" d="M137.8,49.6h44.4c-9.1-20.6-31-40.3-76.9-39C90.7,11,13,19.1,0.7,90.2c-4,23,7.7,75.4,81.7,73.3
	c11-0.3,62.2-2,80.5-37.8h-47c-10.1,20-28.8,23-37.6,22.4c-27.3-1.6-33-23.5-25.6-56.9c13-59.5,48.2-62,61.7-61.2
	C130,31,134.1,38,137.8,49.6 M339.8,83.8c-18.4,63-54.7,70.7-68.8,70.1c-28.6-1.2-40.5-23.9-30.1-59.5c18.4-63,54.8-70.7,68.8-70.1
	C338.2,25.6,350.2,48.3,339.8,83.8 M386.2,78.7c9.5-45-20.3-68.2-77.7-67.5c-28.2,0.4-99.4,8.7-116.4,88.4
	c-9.6,45,20.3,68.1,77.7,67.5C298.1,166.6,369.2,158.3,386.2,78.7 M567,43.1c8.1-33.8-39.9-32-56.1-32.1c-20.4-0.1-48.7,0-77.5,0
	l-3.1,9.4c11.9,2.2,9.5,9,4.4,23.7c-13.5,39-20.4,56.1-30.9,82.5s-13.4,34.7-13.4,34.7h43.5c0,0,35.5-101.2,44.9-122
	s9.7-20.8,24.6-20.7c16.8,0.1,24.9,11.4,18.8,25.1c-5.7,12.8-15.3,31.3-57.3,44.7l-0.9,7l29.3,65.9h51.9c0,0-7-11.1-16.2-27.4
	c-12-21.2-15.4-30.2-22.3-45.8C531.2,80.9,560.4,70.7,567,43.1 M698.1,98c0.3,1-0.6,1.5-1.6,1.5c-17.4,0-25.1,0-42.9,0
	c-0.6-0.1-1-0.6-0.9-1.2c0-0.1,0.1-0.3,0.1-0.4c1.1-1.8,24.6-34.6,35.5-48.7C690.7,65.6,694,81.9,698.1,98 M713.8,162.2h44.6
	c0,0-32.6-131.2-36.1-143.1s-37.4-11.3-52.6,6c-6.4,7.3-101.6,137.2-101.6,137.2h41.6l35.9-48.6l55.4-0.1L713.8,162.2L713.8,162.2z
	 M835.1,135.1c10.3-26.1,43.7-124.8,43.7-124.8h-61.3l-3.1,9.1c7.8,2.1,11.5,7.7,7.2,23.2c-6.2,22.1-45,119.7-45,119.7
	s123.7,0,125-0.1c-0.1,0.1,9-27.1,9-27.1L835.1,135.1z"/>
<path class="st1" d="M917.5,111.7c14.1-10.9,36.4-25.6,61.3-21.1c18.8,3.4,27.9,4.4,41.9-0.6c-13.5-3.9-19.8-10.4-27.1-20.4
	c12.5-4.2,16.5-4.9,32.8-14.9c-2.8-2.3-13-10.7-31.5-10.9c-26.7-0.2-41.5,9.1-62.2,22.4L917.5,111.7z"/>
<path class="st2" d="M1064.5,17c-6.6,6.5-18.3,17.4-43.7,7.2s-45.8,2.8-51.2,5.6l-14.1,42c15.6-9.5,33.1-17.8,51.8-10.7
	s27.3,6.3,43.4-2.5L1064.5,17z"/>
<path class="st3" d="M937.5,51.8c20.6-13.3,35.5-22.5,62.2-22.3c22.9,0.1,37.6-2.4,57.3-29.5c-19.6,10.3-31.5,11.9-52.5,5.4
	s-36.4-2.7-53.7,6.4L937.5,51.8z"/>
</svg>
