<?xml version="1.0" encoding="utf-8"?>
<!-- Generator: Adobe Illustrator 16.0.4, SVG Export Plug-In . SVG Version: 6.00 Build 0)  -->
<!DOCTYPE svg PUBLIC "-//W3C//DTD SVG 1.1//EN" "http://www.w3.org/Graphics/SVG/1.1/DTD/svg11.dtd">
<svg version="1.1" id="Layer_1" xmlns="http://www.w3.org/2000/svg" xmlns:xlink="http://www.w3.org/1999/xlink" x="0px" y="0px"
	 width="352.238px" height="56.708px" viewBox="0 0 352.238 56.708" enable-background="new 0 0 352.238 56.708"
	 xml:space="preserve">
<g>
	<g>
		<path fill="#FEB700" d="M352.014,32.128l-5.252-29.596c-0.42-2.071-2.129-2.75-3.475-2.473l-31.004,5.42
			c-0.936,0.191-1.52,0.467-2.334,1.172c0,0-7.865,7.448-9.018,8.624c-1.154,1.178-1.879,2.729-1.541,5.01l5.986,33.901
			c0.43,2.101,2.271,2.683,3.561,2.487c1.291-0.193,31.846-5.564,33.441-5.896c1.627-0.336,3.24-1.424,4.4-3.607l4.709-10.152
			C352.35,35.08,352.387,34.636,352.014,32.128z"/>
		<g>
			<path fill="#004B32" d="M335.363,6.422c-0.863,0.703-3.316,1.522-5.482,1.831c-2.168,0.308-3.225-0.012-2.363-0.715
				c0.865-0.701,3.318-1.524,5.486-1.83C335.17,5.399,336.229,5.72,335.363,6.422z"/>
			<polygon fill="#004B32" points="330.375,5.123 323.48,7.249 318.514,7.224 325.367,5.102 			"/>
			<polygon fill="#004B32" points="311.893,6.749 318.707,5.548 316.625,7.723 309.709,8.835 			"/>
			<polygon fill="#004B32" points="309.043,53.13 307.717,45.62 315.23,44.291 316.555,51.808 			"/>
			<polygon fill="#004B32" points="315.074,42.091 310.168,36.248 312.762,29.094 317.674,34.938 			"/>
			<path fill="#004B32" d="M322.125,29.966c-2.363,0.412-4.617-1.163-5.037-3.531c-0.416-2.363,1.164-4.621,3.529-5.038
				c2.365-0.418,4.623,1.161,5.039,3.53C326.072,27.291,324.492,29.547,322.125,29.966z"/>
			<polygon fill="#004B32" points="331.881,24.782 325.984,17.771 334.996,16.182 			"/>
			<polygon fill="#004B32" points="335.102,10.279 328.387,10.407 337.039,7.802 			"/>
			<polygon fill="#004B32" points="345.846,5.878 346.199,13.711 344.072,8.395 			"/>
			<path fill="#004B32" d="M343.475,12.677c0.438-0.673,1.1,0.523,1.475,2.664c0.379,2.141,0.332,4.425-0.107,5.1
				c-0.434,0.675-1.098-0.519-1.475-2.658C342.988,15.638,343.037,13.352,343.475,12.677z"/>
			<polygon fill="#004B32" points="343.436,21.47 345.277,26.534 345.633,33.922 343.783,28.904 			"/>
			<polygon fill="#004B32" points="345.717,45.192 344.453,38.022 345.812,35.294 347.057,42.36 			"/>
		</g>
	</g>
	<g>
		<g>
			<path fill="#FFFFFF" d="M10.473,42.431H0V14.034h10.473c6.023,0,18.843-0.625,18.843,14.23
				C29.315,43.075,16.496,42.431,10.473,42.431z M11.334,18.305H6.885v19.813h4.449c3.583,0,10.615,0.68,10.615-9.854
				C21.949,17.764,14.917,18.305,11.334,18.305z"/>
			<path fill="#FFFFFF" d="M45.232,42.88c-6.071-0.088-11.577-0.984-11.577-6.922c0-6.75,9.281-6.471,16.359-6.471
				c0-3.338-0.047-4.844-6.221-4.844c-3.346,0-6.737,0.451-8.459,0.773v-4.027c2.104-0.404,6.169-0.775,8.847-0.775
				c5.974-0.039,12.62,0.531,12.62,7.127v14.608C52.501,42.753,48.96,42.956,45.232,42.88z M50.015,33.192
				c-0.86-0.041-3.207-0.041-3.92-0.041c-2.825,0-5.407,0.258-5.407,3.105c0,2.848,2.582,2.917,5.407,2.917
				c1.431,0,2.579-0.08,3.92-0.242V33.192z"/>
			<path fill="#FFFFFF" d="M103.727,42.837c-3.486,0-6.74-0.406-9.231-0.855V37.95c2.538,0.494,5.213,1.023,8.18,1.023
				c2.539,0,6.073-0.49,6.073-2.567c0-2.035-2.582-2.121-6.595-2.883c-1.392-0.295-7.849-1.268-7.849-6.271
				c0-5.334,6.506-6.6,11.099-6.6c4.829,0,7.649,0.492,8.799,0.611v3.83c-0.721-0.129-4.261-0.695-7.458-0.695
				c-2.154,0-5.503,0.328-5.503,2.324c0,1.949,3.683,2.277,6.123,2.68c3.202,0.529,8.559,1.631,8.559,6.191
				C115.923,40.149,111.138,42.837,103.727,42.837z"/>
			<path fill="#FFFFFF" d="M138.174,42.431l-9.772-10.77v10.77h-6.791V13.958h6.791v16.521l10.041-9.414h8.129l-11.238,9.904
				l11.691,11.461H138.174z"/>
			<path fill="#FFFFFF" d="M269.222,42.431h-6.785V13.958h6.785V42.431z"/>
			<path fill="#FFFFFF" d="M80.858,42.431V28.557c0-1.102-0.142-3.557-3.584-3.557c-2.394,0-4.54,0.268-6.266,0.432v16.999h-6.793
				V21.719c6.562-0.674,12.132-1.061,15.729-0.982c3.593,0.076,7.706,1.748,7.706,6.676v15.018H80.858z"/>
			<path fill="#FFFFFF" d="M235.487,41.659c-1.722,0.611-4.062,0.895-6.596,0.895c-1.391,0-2.302-0.084-3.688-0.242v8.475h-6.788
				V21.04c2.055-0.082,6.312-0.287,8.987-0.287c3.589,0,6.605,0.287,9.47,1.67c4.111,2.035,5.28,5.477,5.28,8.855
				C242.153,35.508,240.314,39.907,235.487,41.659z M228.741,24.827c-2.533,0-3.537,0.16-3.537,0.16v13.167
				c0,0,1.442,0.248,3.401,0.248c5.16,0,6.628-2.93,6.628-6.708C235.233,27.586,233.859,24.827,228.741,24.827z"/>
			<path fill="#FFFFFF" d="M148.404,31.946c0-6.961,4.216-11.355,12.822-11.355c9.372,0,12.529,4.195,12.335,12.736h-17.979
				c0.43,4.803,4.588,5.782,8.8,5.782c2.916,0,5.068-0.365,7.221-0.729v3.66c0,0-4.206,0.854-8.899,0.854
				C154.816,42.894,148.404,40.126,148.404,31.946z M160.998,24.293c-3.866,0-5.415,2.559-5.415,5.459h10.834
				C166.417,27.022,165.496,24.293,160.998,24.293z"/>
			<g>
				<g>
					<path fill="#FFFFFF" d="M247.803,42.438V23.375h6.793v19.063H247.803z"/>
				</g>
				<g>
					<path fill="#FFFFFF" d="M247.803,20.096v-6.139h6.793v6.139H247.803z"/>
				</g>
			</g>
			<path fill="#FFFFFF" d="M188.703,41.597v-4.573c0,0,5.611,1.182,9.931,1.182c2.92,0,7.669-0.672,7.669-3.854
				c0-5.666-17.838-1.475-17.838-11.551c0-6.689,6.622-8.768,14.004-8.768c4.651,0,8.631,0.812,8.631,0.812v4.406
				c0,0-3.84-0.777-7.964-0.777c-2.587,0-7.433,0.611-7.433,3.629c0,6.285,17.98,0.912,17.98,11.721c0,6.727-7.905,8.79-14.434,8.79
				C193.258,42.614,188.703,41.597,188.703,41.597z"/>
		</g>
	</g>
</g>
</svg>
