<svg width="500" height="135" viewBox="0 0 500 135" fill="none" xmlns="http://www.w3.org/2000/svg">
<path fill-rule="evenodd" clip-rule="evenodd" d="M3.03913 0.3302C1.36078 0.3302 0 1.6908 0 3.36933V131.013C0 132.691 1.36078 134.052 3.03913 134.052H101.811C118.176 134.052 131.442 120.785 131.442 104.42V29.9617C131.442 13.5967 118.176 0.3302 101.811 0.3302H3.03913ZM47.8663 36.4199C47.8663 43.7632 41.9134 49.7161 34.5701 49.7161C27.2268 49.7161 21.2739 43.7632 21.2739 36.4199C21.2739 29.0765 27.2268 23.1237 34.5701 23.1237C41.9134 23.1237 47.8663 29.0765 47.8663 36.4199ZM79.0174 67.5709C79.0174 74.9143 73.0645 80.8671 65.7212 80.8671C58.3779 80.8671 52.425 74.9143 52.425 67.5709C52.425 60.2276 58.3779 54.2747 65.7212 54.2747C73.0645 54.2747 79.0174 60.2276 79.0174 67.5709ZM96.8723 112.018C104.216 112.018 110.168 106.065 110.168 98.722C110.168 91.3787 104.216 85.4258 96.8723 85.4258C89.5289 85.4258 83.5761 91.3787 83.5761 98.722C83.5761 106.065 89.5289 112.018 96.8723 112.018Z" fill="#BC81D2"/>
<path d="M154.236 3.36933C154.236 1.69086 155.596 0.3302 157.275 0.3302H196.024C197.702 0.3302 199.063 1.69086 199.063 3.36933V131.013C199.063 132.691 197.702 134.052 196.024 134.052H157.275C155.596 134.052 154.236 132.691 154.236 131.013V3.36933Z" fill="#BC81D2"/>
<path d="M251.488 0.3302H342.662C344.34 0.3302 345.701 1.69086 345.701 3.36933V41.3584C345.701 43.0369 344.34 44.3976 342.662 44.3976H272.002C270.324 44.3976 268.963 45.7582 268.963 47.4367V86.1856C268.963 87.8641 270.324 89.2247 272.002 89.2247H342.662C344.34 89.2247 345.701 90.5854 345.701 92.2639V131.013C345.701 132.691 344.34 134.052 342.662 134.052H251.488C235.123 134.052 221.856 120.785 221.856 104.42V29.9617C221.856 13.5967 235.123 0.3302 251.488 0.3302Z" fill="#BC81D2"/>
<path d="M418.672 36.0115C416.994 36.0115 415.633 37.3722 415.633 39.0506C415.633 41.7371 415.633 44.4236 415.633 47.11C415.633 48.7885 416.994 50.1492 418.672 50.1492H492.783C494.461 50.1492 495.822 51.511 495.822 53.1894C495.822 62.9403 495.822 71.388 495.822 81.1389C495.822 82.8174 494.461 84.1792 492.783 84.1792H418.672C416.994 84.1792 415.633 85.5392 415.633 87.2177C415.633 89.86 415.633 92.8752 415.633 95.5176C415.633 97.1961 416.994 98.556 418.672 98.556H496.861C498.54 98.556 499.9 99.9167 499.9 101.595C499.9 111.401 499.9 121.207 499.9 131.013C499.9 132.691 498.54 134.052 496.861 134.052H398.126C381.761 134.052 368.494 120.785 368.494 104.42C368.494 79.6008 368.494 54.7813 368.494 29.9617C368.494 13.5967 381.761 0.3302 398.126 0.3302L496.861 0.3302C498.54 0.3302 499.9 1.69086 499.9 3.36933C499.9 13.237 499.9 23.1047 499.9 32.9724C499.9 34.6508 498.54 36.0115 496.861 36.0115H418.672Z" fill="#BC81D2"/>
</svg>
