<?xml version="1.0" encoding="UTF-8"?>
<svg id="Layer_1" data-name="Layer 1" xmlns="http://www.w3.org/2000/svg" version="1.1" viewBox="0 0 91.9 26">
  <defs>
    <style>
      .cls-1 {
        fill: #bf00ff;
        fill-rule: evenodd;
        stroke-width: 0px;
      }
    </style>
  </defs>
  <path class="cls-1" d="M0,1.8v1.8s4.1,4.5,4.1,4.5c2.2,2.5,4.1,4.5,4.1,4.5,0,0-1,1.2-2.3,2.6-1.2,1.4-3.1,3.5-4.1,4.6L0,21.9v3.8h19.9v-8.7h-4.5v4h-4.3c-2.3,0-4.3,0-4.3,0s1.6-1.9,3.6-4.2l3.6-4.2h-.1c-.1-.2-7-7.7-7.2-8h0c0,0,4.2,0,4.2,0h4.2v3.5h2.2s2.2,0,2.2,0v-1.2c0-.7,0-2.5,0-4V0H0v1.8ZM70.6,1s-.1,0-.2,0c-.5,0-.9.3-1.3.7-.4.4-.7.8-.8,1.4,0,.2,0,.3,0,.6,0,.5,0,.7.2,1.1.3.7.9,1.2,1.7,1.4.2,0,.3,0,.7,0,.4,0,.5,0,.7,0,.5-.1.8-.3,1.2-.7.4-.4.6-.7.7-1.2,0-.2,0-.3,0-.7,0-.4,0-.5,0-.7-.2-.9-.9-1.6-1.8-1.8-.3,0-.8-.1-1,0ZM41.1,6.2v2.5h-1.8v4h1.8v13h4.7v-13h1.5s1.5,0,1.5,0v-2s0-2,0-2h-3V3.6h-4.7v2.5ZM56.4,8.5c-1.6.1-3,.6-4.2,1.5-1.9,1.5-3.1,3.7-3.3,6.2,0,.5,0,1.5,0,2,.3,2.6,1.6,4.8,3.6,6.3.4.3.7.5,1.2.7.7.4,1.4.6,2.2.7.3,0,.4,0,1,0s.7,0,.9,0c1.4-.2,2.6-.8,3.7-1.8l.2-.2.2.8c0,.5.2.9.2.9,0,0,.4,0,2,0h2V8.7h-3.7c0,.1-.1.5-.2,1-.1.4-.2.8-.2.8,0,0-.1,0-.2-.2-.5-.5-1-.8-1.6-1.1-.7-.4-1.3-.6-2.2-.7-.3,0-1.3,0-1.6,0ZM31.1,8.5c-1,0-1.8.3-2.6.8-.7.4-1.3.8-1.8,1.3-.2.2-.3.2-.3.2,0,0-.1-.5-.2-1.1-.1-.6-.2-1-.2-1.1,0,0-.1,0-2,0h-2v2c0,1.1,0,4.9,0,8.5v6.5h4.8v-4.6c0-5,0-4.7.2-5.4.3-1.4,1.2-2.3,2.6-2.6.3,0,.8,0,1.2,0,.8,0,1.5.3,1.9.8.5.5.8,1.3.8,2.3,0,.2,0,2.1,0,4.9v4.6h4.8v-5.6c0-6.1,0-5.7-.1-6.4-.2-1-.6-2-1.2-2.7-.4-.5-.9-1-1.4-1.3-.3-.2-1-.6-1.4-.7-.6-.2-1.3-.4-2.1-.4-.5,0-.5,0-1,0ZM84.7,8.5c-.6,0-1.3.2-1.8.4-.8.3-1.8,1-2.5,1.6-.2.2-.3.3-.4.3,0,0-.1-.5-.2-1-.1-.6-.2-1-.2-1.1h0c0,0-2,0-2,0h-2v7.4c0,4.1,0,7.9,0,8.5v1.1h4.8v-4.6c0-5,0-4.7.2-5.4.3-1.1.9-1.9,1.7-2.3.6-.3,1.3-.4,2.1-.4.6,0,1.1.2,1.5.5.3.2.4.3.6.6.4.5.6,1.1.7,1.9,0,.2,0,1.9,0,5v4.7h4.8v-5.3c0-3.4,0-5.5,0-5.7-.2-2.7-1.5-4.6-3.7-5.6-.7-.3-1.5-.5-2.5-.6-.5,0-.5,0-1,0ZM68.5,17.2v8.5h4.7V8.7h-4.7v8.5ZM58.3,12.6c1.1.3,2.1,1,2.7,2,.3.6.5,1.2.6,1.9,0,.4,0,1.1,0,1.5-.3,1.5-1.2,2.7-2.4,3.3-.3.1-.5.2-.9.3-.2,0-.3,0-.8,0-.5,0-.5,0-.8,0-.8-.2-1.4-.6-2-1.2-.5-.5-.8-1.1-1.1-1.8-.6-1.7-.2-3.6,1-4.9.6-.7,1.4-1.1,2.2-1.2.3,0,1.1,0,1.4,0Z"/>
</svg>