<?xml version="1.0" encoding="utf-8"?>
<!-- Generator: Adobe Illustrator 24.1.3, SVG Export Plug-In . SVG Version: 6.00 Build 0)  -->
<svg version="1.1" id="Layer_1" xmlns="http://www.w3.org/2000/svg" xmlns:xlink="http://www.w3.org/1999/xlink" x="0px" y="0px"
	 viewBox="0 0 88 40" style="enable-background:new 0 0 88 40;" xml:space="preserve">
<style type="text/css">
	.st0{fill:#FFFFFF;}
	.st1{fill:#F5B335;}
</style>
<g>
	<path class="st0" d="M44.8,12c-1.3,1.7-6.8,9.6-8.4,9.4c-1.9-0.1,5.9-8.7,3.6-9.4c-0.6-0.2-3.2,0-3.3,0.5
		c-1.6,6.6-5.8,8.6-4.5,11.9c1.3,3.2,7.4,0,10.7-5c-1,1.8-4.3,7-6.3,9.8c-0.5,0.8-1.1,1.5-1.7,2.3c-1.8,2.1-4.1,3.9-6.8,2.5
		c-0.5-0.3-0.4,2.7,1.1,4.6c1,1.2,3.2,2.3,5.5,0.5c1.1-0.9,3-3,5.6-7.3c2.5-4.3,8.9-17.5,7.8-19.8C47.9,11.4,45.4,11.3,44.8,12z
		 M37.8,34.2c-0.5,0.7-2,2.6-3.1,3.5c-1.6,1.4-3.2,1.2-4.2,0.1c-1-0.9-1.2-2.3-0.8-2.3c2.9,0.1,4.5-1.7,6.1-3.5
		c0.1-0.1,0.1-0.1,0.2,0c0,0,0,0,0,0c0.7,0.6,1,0.6,1.5,0.9C38,33.1,38.2,33.5,37.8,34.2z M2.4,11.6c3.6-2.1,14-6.5,18.7-5.8
		c4.2,0.7,4.3,4.4,4.9,4.4c1.5-0.1,4.4-6.3,0.3-9.1C22.5-1.6,11.8,0.8,3.2,6.5C1.9,7.4,1.6,12.1,2.4,11.6z"/>
	<path class="st0" d="M28.5,27.6c0.5,0.5,4.7-0.6,4.2-1.1c-1-1-2.7-2.3-2.3-7.6c1.5-1.4,3.2-2.2,3.4-2.4c0.6-0.6,1.5-4,0.9-3.9
		c-1.1,0.2-2.6,1.5-4.1,3c0-2-0.3-3.3-0.7-3.6c-0.4-0.3-3.6-0.4-3.2,0.5c0.5,1.5,1,3.9,1.2,5.9c-1.2,0.9-2.6,0.5-4.2-0.4
		c0.7-3,0.3-5.9-2-7.1c-1.8-0.9-4.2,0.3-6.3,2.6c-0.5-0.1-1.1-0.2-1.6-0.3c-1.1-0.1-2.1-0.1-3.2-0.1c0.7-1.2,1.5-2.4,2.3-3.6
		c0.6-0.9-3.7-0.8-5.3,1.1C5.3,13.4,0.3,21.2,0,26.2c-0.3,4,3.4,5,4.6,4.8c1-0.2-0.3-1,0.6-5.3c0.4-2.2,1.6-5.1,3-8
		c1.7-0.6,3.4-0.9,5.1-1c-2.2,4.2-2.7,9.2,0.5,10.5c3.8,1.6,7.5-2.5,9.3-7.3c0-0.1,0.1-0.3,0.1-0.4c1.1,0.3,2.2,0.6,3.2,0.5
		c-2.5,2.9-5.6,6.7-5.9,7.7c-0.2,0.6,4.2,0.9,4.5,0.1c0.4-1,1.3-3.6,2.9-6C27.6,26.3,28,27.1,28.5,27.6L28.5,27.6z M20.8,19.6
		c-1.2,2.5-3.5,4.6-4.8,3.9c-1.5-0.8-0.7-3.4,0.4-5.6c0.1-0.2,0.3-0.5,0.4-0.7c1.4,0.4,2.9,1.1,4.3,1.6
		C21.1,19.1,20.9,19.4,20.8,19.6L20.8,19.6z M21.6,16.8c-0.9-0.6-1.9-1.2-2.9-1.8c0.7-0.6,1.5-0.9,2.1-0.4
		C21.4,15,21.7,15.8,21.6,16.8L21.6,16.8L21.6,16.8z"/>
	<path class="st1" d="M55.7,27.5l-0.3-0.8c-0.3,0.7-1,1.1-1.8,1.1c-1.7,0-2.8-1.2-2.8-3.2V14.4c0-1.7,1.3-3.2,3.1-3.2s3,1.4,3,3.2v3
		h-2.3v-3.1c0-0.2,0-0.4-0.2-0.5c-0.1-0.1-0.3-0.2-0.5-0.2c-0.2,0-0.4,0-0.5,0.2c-0.1,0.1-0.2,0.3-0.2,0.5v10.6
		c0,0.2,0.1,0.4,0.2,0.5c0.1,0.1,0.3,0.2,0.5,0.2c0.4,0,0.7-0.3,0.7-0.7v-3.3h-0.6v-1.9h3.1v7.9L55.7,27.5L55.7,27.5z M62.2,27.5
		L62,24.8h-1.5l-0.2,2.8H58l1.9-16.1h2.9l1.9,16.1L62.2,27.5L62.2,27.5z M61.4,15.8l-0.6,6.7h1L61.4,15.8z M72,27.5V15.3L71.7,19
		l-1,8.6H69L68.1,19l-0.3-3.7v12.3h-2.2V11.4h3.3l0.9,6.3l0.3,3.6l0.3-3.6l0.8-6.3h3.2v16.1L72,27.5z M75.6,27.5V11.4h5.3v2.3h-2.8
		v4.4H80v2.2h-1.8v4.8h2.8v2.4L75.6,27.5z M84.8,27.8c-1.9,0-3.1-1.2-3.1-3.4v-1.7h2.2v1.9c0,0.6,0.3,1,0.8,1c0.5,0,0.8-0.4,0.8-1
		c0-1.5-0.6-2.6-1.5-4.2c-1-1.5-2.2-3.7-2.2-5.6c0-2,1-3.6,3.2-3.6c1.7,0,2.9,1.2,2.9,3.4v1.8h-2.2v-2c0-0.5-0.3-0.8-0.7-0.8
		c-0.4,0-0.8,0.3-0.8,0.8c0,1.9,0.6,2.5,1.6,4.3c1.1,1.8,2.1,3.7,2.1,5.6C87.9,26.7,86.4,27.8,84.8,27.8z"/>
</g>
</svg>
