<?xml version="1.0" encoding="utf-8"?>
<!-- Generator: Adobe Illustrator 27.3.1, SVG Export Plug-In . SVG Version: 6.00 Build 0)  -->
<svg version="1.1" id="FOXYBINGO.COM__x7C__RANDOM._FUN."
	 xmlns="http://www.w3.org/2000/svg" xmlns:xlink="http://www.w3.org/1999/xlink" x="0px" y="0px" viewBox="0 0 210 102.5"
	 style="enable-background:new 0 0 210 102.5;" xml:space="preserve">
<style type="text/css">
	.st0{fill:none;}
	.st1{fill:#EF7B40;}
	.st2{fill:#FFFFFF;}
	.st3{fill:#FAB721;}
</style>
<g id="frame">
	<rect class="st0" width="210" height="102.5"/>
</g>
<g>
	<g>
		<path class="st1" d="M113.9,30.7c-3.2,4.3-17.2,24.5-21.4,24.1c-4.8-0.2,15-22.4,9.2-24.2c-1.4-0.4-8-0.1-8.3,1.4
			c-4,16.8-14.8,21.9-11.3,30.4c3.3,8.1,18.7,0.1,27.3-12.8c-2.5,4.7-11,17.9-16.1,25.2c-1.3,1.9-2.7,3.9-4.3,5.8
			c-4.6,5.5-10.4,9.9-17.3,6.4c-1.4-0.7-1.1,7,2.7,11.8c2.5,3.2,8.2,5.9,13.9,1.2c2.8-2.2,7.7-7.7,14.1-18.7
			c6.4-11,22.5-44.8,19.8-50.8C121.6,29.1,115.3,28.8,113.9,30.7z M95.9,87.6c-1.2,1.8-5.1,6.8-7.8,9.1c-4.2,3.5-8,3.1-10.8,0.3
			c-2.4-2.4-3.1-5.8-2.1-5.8c7.2,0.4,11.5-4.3,15.4-9.1c0.1-0.2,0.4-0.2,0.6,0c1.9,1.6,2.6,1.6,3.8,2.2
			C96.5,84.9,97.1,85.9,95.9,87.6z"/>
		<path class="st1" d="M6,29.8C15,24.4,41.4,13.1,53.4,15C64,16.6,64.3,26.3,65.9,26.2c3.8-0.3,11.2-16.1,0.9-23.4
			C57.2-4,30.1,2.1,8.1,16.7C4.9,18.9,4,31,6,29.8z"/>
		<path class="st1" d="M72.5,70.8c1.3,1.3,12-1.5,10.6-2.9c-2.5-2.6-6.9-6-5.9-19.5c3.8-3.5,8.2-5.5,8.8-6.2
			c1.4-1.6,3.9-10.2,2.2-9.9c-2.7,0.6-6.5,3.8-10.5,7.7c0-5.1-0.7-8.5-1.8-9.3c-1.1-0.8-9-1.1-8.2,1.4c1.2,3.7,2.5,9.9,3.1,15.1
			c-3,2.3-6.6,1.3-10.7-0.9c1.7-7.7,0.7-15.1-5.1-18.1c-4.4-2.3-10.7,0.7-16,6.7c-1.3-0.4-2.7-0.6-4.1-0.7c-3-0.2-5.8-0.3-8.2-0.1
			c1.9-3.3,3.9-6.5,5.8-9.2c1.6-2.3-9.3-2.2-13.4,2.7C13.4,34.4,0.9,54.4,0,67.3c-0.6,10.2,8.7,12.8,11.6,12.2
			c2.6-0.6-0.6-2.6,1.5-13.6c1.1-5.6,4-13,7.6-20.5c3.3-1.1,7.5-2.2,13-2.6l0,0c-5.5,10.7-6.8,23.6,1.2,27c9.6,4,19.1-6.5,23.6-18.6
			c0.1-0.3,0.2-0.6,0.3-1c2.8,0.9,5.5,1.4,8.1,1.4c-6.4,7.5-14.2,17.2-15,19.7c-0.5,1.7,10.6,2.3,11.4,0.4c1.1-2.5,3.3-9.1,7.3-15.4
			C70.2,67.3,71.2,69.5,72.5,70.8z M52.9,50.3c-3.1,6.5-8.9,11.7-12.1,9.9c-3.7-2.1-1.9-8.8,1.1-14.4c0.3-0.6,0.6-1.2,1-1.7
			c3.6,1.1,7.2,2.7,10.9,4.2C53.5,49,53.2,49.6,52.9,50.3z M55,43.1c-2.3-1.5-4.8-3.2-7.5-4.6c1.9-1.5,3.8-2.2,5.3-1.2
			C54.4,38.5,55.2,40.5,55,43.1z"/>
		<path class="st2" d="M95.9,87.6c-1.2,1.8-5.1,6.8-7.8,9.1c-4.2,3.5-8,3.1-10.8,0.3c-2.4-2.4-3.1-5.8-2.1-5.8
			c7.2,0.4,11.5-4.3,15.4-9.1c0.1-0.2,0.4-0.2,0.6,0c1.9,1.6,2.6,1.6,3.8,2.2C96.5,84.9,97.1,85.9,95.9,87.6z"/>
	</g>
	<g>
		<path class="st3" d="M137.2,70.6h-8.8V29.4h8.8c3.1,0,6.5,1.7,6.5,7.1v8.1c0,2.2-0.9,4-3,5c2.1,1.1,3,2.7,3,5v8.8
			C143.7,68.9,140.3,70.6,137.2,70.6z M137.6,36.9c0-1.2-0.4-1.7-1.2-1.7h-1.6v12h1.6c0.8,0,1.2-0.6,1.2-1.8V36.9z M137.6,54.3
			c0-1.2-0.4-1.8-1.2-1.8h-1.6v12.4h1.6c0.8,0,1.2-0.5,1.2-1.7V54.3z"/>
		<path class="st3" d="M146.5,70.6V29.4h6.4v41.2H146.5z"/>
		<path class="st3" d="M167.1,70.6L162.5,52l-1.4-5.6v24.3h-5.4V29.4h6.1l4.1,18.5l1.2,5.8V29.4h5.4v41.2L167.1,70.6z"/>
		<path class="st3" d="M187.4,70.6l-0.7-2.2c-0.9,1.9-2.7,2.8-4.5,2.8c-4.3,0-7.1-3.2-7.1-8.1V36.9c0-4.5,3.4-8.1,8-8.1
			s7.7,3.7,7.7,8.1v7.6h-5.9v-7.9c0-1-0.6-1.7-1.7-1.7c-1.1,0-1.7,0.7-1.7,1.7v27c0,1.1,0.7,1.8,1.7,1.8c1.1,0,1.7-0.7,1.7-1.8v-8.4
			h-1.6v-4.9h7.8v20.3L187.4,70.6z"/>
		<path class="st3" d="M201.9,71.2c-4.5,0-8.1-3.3-8.1-8.3V37.1c0-4.9,3.6-8.3,8.1-8.3c4.5,0,8.1,3.4,8.1,8.3v25.9
			C210,67.9,206.5,71.2,201.9,71.2z M203.5,36.6c0-1-0.6-1.7-1.6-1.7c-0.9,0-1.6,0.6-1.6,1.7v26.7c0,1.1,0.6,1.7,1.6,1.7
			c0.9,0,1.6-0.6,1.6-1.7V36.6z"/>
	</g>
</g>
</svg>
