<svg xmlns="http://www.w3.org/2000/svg" width="136" height="22">
  <path fill="#FFF" d="M16.198 14.308c-1.834 0-3.515-.616-4.737-2-1.223-1.231-1.987-3.077-1.987-4.77 0-1.846.764-3.538 1.987-4.769 1.375-1.384 3.209-2.154 5.195-2 .611 0 1.223.154 1.834.308v1.846a4.207 4.207 0 00-1.987-.461c-1.07 0-2.139.307-3.056.923-2.292 1.692-2.75 4.923-1.07 7.23l.459.462c.917.923 2.14 1.538 3.362 1.538.458 0 1.07-.153 1.528-.307v-4.77h1.834v5.847c-1.07.615-2.14.923-3.362.923M32.548 14l-4.89-14-5.042 14h1.833l.917-2.615h4.126L30.562 14h1.986zM26.13 9.538l1.528-4.153 1.376 4.153H26.13zM35.91.923h1.987v11.23h3.973v2h-5.96V.924zM53.79 14l-4.89-14-5.043 14h1.987l.917-2.615h4.125L51.955 14h1.834zM47.37 9.538l1.528-4.153 1.375 4.153h-2.903zM66.013 2a5.318 5.318 0 00-3.361 1.23c-1.223 1.078-1.987 2.616-1.987 4.308 0 1.385.611 2.77 1.528 3.847s2.292 1.538 3.668 1.538c.917 0 1.833-.308 2.597-.77v1.54c-2.139.922-4.737.615-6.57-.77-1.681-1.385-2.75-3.385-2.75-5.538 0-2.154 1.069-4.154 2.75-5.539C62.958.923 64.485.462 65.86.462c.917 0 1.68.153 2.597.615v1.538C67.848 2.154 66.93 2 66.013 2m5.349 12h1.375l1.07-2.923h4.89L79.767 14h1.222L76.252 0l-4.89 14zm2.903-4.308l1.987-5.538 1.986 5.538h-3.973zM84.81 10.77c.153 1.385 1.375 2.462 2.903 2.308 1.376-.154 2.292-1.23 2.292-2.615 0-.616-.152-1.231-.61-1.693-.765-.615-1.529-.923-2.446-1.077-1.68-.461-2.903-1.846-2.903-3.538 0-1.846 1.375-3.385 3.362-3.385 1.528 0 2.75.923 3.209 2.308l-1.223.461c-.305-.923-1.222-1.538-2.14-1.384-1.069 0-1.986.77-1.986 1.846v.154c0 1.384.764 2 2.293 2.461.916.154 1.833.616 2.597 1.077.764.77 1.223 1.693 1.223 2.77 0 2.153-1.681 4-3.82 4.153-1.834 0-3.515-1.384-3.82-3.23l1.069-.616zM95.2.923h1.375v13.23H95.2V.924zm5.807-.308l7.182 9.539V.924h1.222v13.23l-7.029-9.539v9.539h-1.375V.615zm12.224 6.923c0 1.847.765 3.539 1.987 4.77 2.445 2.615 6.57 2.769 9.169.307.152 0 .152-.153.305-.307 2.598-2.77 2.598-6.923 0-9.693C122.094 0 117.816 0 115.218 2.462l-.153.153c-1.222 1.385-1.834 3.077-1.834 4.923m1.376 0c0-1.384.611-2.769 1.528-3.846 1.986-2.154 5.348-2.154 7.335-.154l.152.154c.917 1.077 1.529 2.462 1.529 3.846 0 1.385-.459 2.77-1.529 3.847-1.986 2.153-5.348 2.153-7.334.153l-.153-.153c-1.07-1.077-1.528-2.462-1.528-3.847M68 22c12.836 0 68-.77 68-.77s-55.164-.615-68-.615c-12.836 0-68 .616-68 .616S55.164 22 68 22"/>
</svg>
