<?xml version="1.0" encoding="utf-8"?>
<!-- Generator: Adobe Illustrator 24.0.1, SVG Export Plug-In . SVG Version: 6.00 Build 0)  -->
<svg version="1.1" id="Layer_1" xmlns="http://www.w3.org/2000/svg" xmlns:xlink="http://www.w3.org/1999/xlink" x="0px" y="0px"
	 viewBox="0 0 500 500" style="enable-background:new 0 0 500 500;" xml:space="preserve">
<style type="text/css">
	.st0{fill:#FFE330;}
	.st1{fill:#082BA6;}
</style>
<title>Gala Bingo Logo 2019</title>
<g>
	<circle class="st0" cx="250" cy="250" r="250"/>
	<path id="B" class="st1" d="M213.1,327.9c0.6-0.6,1.1-1.2,1.6-1.9c1.4-2,2.1-4.5,2.1-6.9c0.1-5.8-3.1-11-8.3-13.5l0,0
		c-2.6-1.3-5.6-2-8.6-2H185c-1.5,0-2.9,0.5-4.1,1.6c-1.1,1.1-1.7,2.5-1.7,4.1v42.4c-0.1,3.1,2.5,5.7,5.6,5.7c0.1,0,0.1,0,0.1,0h16.3
		c3.3,0,6.5-0.7,9.4-2.1c2.8-1.4,5.1-3.5,6.7-6.2c1.6-2.7,2.4-5.8,2.4-8.9c0-3.6-1-6.8-3-9.2C215.7,329.7,214.4,328.6,213.1,327.9z
		 M190.6,323.6v-9.1h9.3c1.9,0,3.4,0.4,4.4,1.3c0.6,0.5,1.3,1.3,1.3,3.3s-0.8,2.9-1.3,3.4l0,0c-1.1,0.9-2.4,1.3-4.4,1.3h-9.3V323.6z
		 M208.4,340.1c0,2-0.6,3.5-1.8,4.6l0,0c-1.4,1.1-3.1,1.7-5.4,1.7h-10.6v-11.9h10.6c2.4,0,4.3,0.5,5.6,1.5
		C207.5,336.7,208.5,337.8,208.4,340.1L208.4,340.1z"/>
	<path id="I" class="st1" d="M234.9,303.5c-1.5,0-2.9,0.5-4.1,1.6l0,0c-1.1,1.1-1.7,2.5-1.7,4.1v42.4c-0.1,3.1,2.4,5.8,5.6,5.9
		c3.1,0.1,5.8-2.4,5.9-5.5c0-0.1,0-0.3,0-0.4v-42.4c0.1-3.1-2.4-5.6-5.4-5.7C235.1,303.5,235.1,303.5,234.9,303.5L234.9,303.5z"/>
	<path id="N" class="st1" d="M291.8,303.5c-1.5,0-3,0.5-4,1.6l0,0c-1.1,1.1-1.8,2.5-1.7,4.1v26.9l-22.8-30.4l-0.1-0.1
		c-0.5-0.6-1.1-1.1-1.9-1.4c-0.8-0.4-1.6-0.6-2.5-0.6c-1.5,0-2.9,0.5-4.1,1.6c-1.1,1.1-1.6,2.5-1.6,4.1v42.4c-0.1,1.5,0.6,3,1.6,4.1
		c2.3,2.2,5.9,2.1,8.2,0c1-1.1,1.6-2.5,1.6-4V325l22.8,30.4c0.5,0.8,1.3,1.4,2.2,1.7c0.8,0.3,1.5,0.5,2.3,0.5c1.5,0,3-0.5,4-1.6
		c1.1-1.1,1.6-2.5,1.6-4.1v-42.4c0-1.5-0.5-3-1.6-4.1C294.7,304.1,293.3,303.5,291.8,303.5z"/>
	<path id="G" class="st1" d="M323.6,316c2.3-1.5,5-2.2,7.6-2.2c1.9,0,3.6,0.2,5.4,0.8c1.6,0.7,3,1.6,4.4,2.8c1,0.9,2.4,1.4,3.7,1.4
		c1.4,0,2.8-0.5,3.8-1.5c1.1-1,1.8-2.4,1.8-3.9c0-0.8-0.1-1.6-0.5-2.4c-0.4-0.9-1-1.6-1.8-2.1c-2.3-1.9-4.9-3.5-7.8-4.5
		s-6-1.5-9-1.4c-4.8,0-9.5,1.3-13.5,3.7s-7.4,5.9-9.6,10c-2.4,4.2-3.5,9-3.5,13.8c0,4.9,1.1,9.6,3.5,13.9c2.3,4.1,5.6,7.6,9.6,10
		c9.6,5.6,21.8,4.7,30.4-2.4c1.3-1,2-2.6,1.9-4.3v-15c0-1.5-0.5-3-1.6-4.1l0,0c-1-1-2.5-1.6-4-1.6h-11.7c-1.5,0-2.9,0.5-4,1.5
		c-2.1,2-2.3,5.3-0.4,7.5c0.1,0.1,0.3,0.3,0.4,0.4c1.1,1,2.5,1.5,4,1.5h6.1v7.3c-2.3,1.4-5,2-7.6,2c-2.7,0-5.4-0.8-7.6-2.2
		c-2.4-1.5-4.3-3.5-5.6-6c-2.8-5.3-2.8-11.6,0-16.9C319.3,319.5,321.3,317.4,323.6,316z"/>
	<path id="O" class="st1" d="M397.4,306.5L397.4,306.5c-8.8-4.7-19.4-4.7-28.2,0c-4.1,2.3-7.5,5.7-9.8,9.9c-4.6,8.9-4.6,19.5,0,28.3
		c2.3,4.1,5.6,7.6,9.8,9.9c8.9,4.7,19.4,4.7,28.3,0c4.1-2.3,7.5-5.8,9.8-9.9c4.6-8.9,4.6-19.5,0-28.4
		C404.9,312.1,401.5,308.8,397.4,306.5z M399.4,330.5c0,3-0.7,6-2.1,8.5c-1.3,2.5-3.3,4.5-5.7,6c-5.1,2.9-11.5,2.9-16.6,0
		c-2.5-1.5-4.4-3.5-5.8-6c-2.8-5.4-2.8-11.8,0-17.1c1.3-2.5,3.3-4.5,5.7-6c2.5-1.5,5.4-2.2,8.4-2.1c3,0,5.8,0.7,8.4,2.1
		c2.4,1.4,4.4,3.5,5.7,6C398.7,324.5,399.5,327.5,399.4,330.5L399.4,330.5z"/>
	<path class="st1" d="M192.4,252.2c-2.6,8.6-11.2,21.6-22.1,23.3l10.7-54.4h-25c-5.1,24.2-15.1,40.4-33.7,40.3
		c-19.3,0-19.8-33.4-15.3-54.5c7-32.9,22.1-55.4,40.3-55.6c14.1-0.1,26,8.4,24.4,19.3c-0.9,6.2-7.4,14.3-22.1,7.3l-2.2,10.4
		c15.3,9.7,40,11.1,44.8-16.6c2.5-14.6-6.8-34.7-42.8-34.7c-16.3,0-61.8,7.9-74.3,67.6C66,248,83.4,276.9,112.9,277
		c21.9,0.1,31.2-12.4,35.1-18.1c-0.2,0.7-3.9,20.4-3.9,20.4c-84,11.5-85.4,84.1-32.2,84.3c35.9,0.1,48.9-42.6,55.9-76l2.4-0.8
		c12.9-3.2,21.9-12.5,29.5-34.3L192.4,252.2z M133.6,321.3c-7.7,23.5-30.7,26-36.3,12.5C85,304.4,141.2,292,141.2,292
		C139.3,302,136.7,311.8,133.6,321.3z"/>
	<path id="a" class="st1" d="M275.1,194.5L262.7,253c-0.5,1.8-0.7,3.6-0.7,5.5c0,4.8,2.3,7.4,7,7.4c6.7,0,11.4-7.6,14-16.2h7.3
		c-9.8,28.1-25.3,31.8-34.6,31.8c-9.6,0-15.9-5.5-16.9-15.9c-5.4,7.9-13.4,15.9-25.6,15.9c-11.7,0-22.9-7.3-22.9-27.7
		c0-23.3,14.3-60.3,44.3-60.3c9.8,0,13.9,3.8,13.9,8.8v1.2l1.9-9.1L275.1,194.5L275.1,194.5z M215.7,251.4c0,7.3,5.5,9.8,8.6,9.8
		c5,0,12.6-2.9,14.3-11.5l8.3-38.9c0-2.1-1.6-6.6-7.1-6.6C225.2,204.3,215.7,235.3,215.7,251.4z"/>
	<path id="l" class="st1" d="M327.5,156.9L307.2,253c-0.5,1.8-0.6,3.6-0.6,5.5c0,4.8,2.3,6.4,7,6.4c6.7,0,12.9-6.5,15.5-15.1h7.3
		c-9.8,28-26.9,31.9-36.1,31.9c-10.4,0-18.4-6.2-18.4-20.6c0-3.8,0.5-7.5,1.3-11.2l19.5-92.8L327.5,156.9z"/>
	<path id="a-2" class="st1" d="M412.1,194.5L399.8,253c-0.5,1.8-0.7,3.6-0.7,5.5c0,4.8,2.3,7.4,7,7.4c6.7,0,11.4-7.6,14-16.2h7.3
		c-9.8,28.1-25.3,31.8-34.6,31.8c-9.6,0-15.9-5.5-16.9-15.9c-5.4,7.9-13.4,15.9-25.6,15.9c-11.7,0-22.9-7.3-22.9-27.7
		c0-23.3,14.3-60.3,44.3-60.3c9.8,0,14,3.8,14,8.8v1.2l1.9-9.1L412.1,194.5L412.1,194.5z M352.8,251.4c0,7.3,5.5,9.8,8.6,9.8
		c5,0,12.5-2.9,14.3-11.5l8.3-38.9c0-2.1-1.5-6.6-7-6.6C362.3,204.3,352.8,235.3,352.8,251.4z"/>
</g>
</svg>
