<?xml version="1.0" encoding="utf-8"?>
<svg version="1.0" id="Ebene_1" xmlns="http://www.w3.org/2000/svg" x="0" y="0" viewBox="0 0 702.4 121.9" xml:space="preserve">
  <style>
    .st0{fill:#fff}.st1{fill:#f58a2f}
  </style>
  <path class="st0" d="M596 61.4h-37.3c-.9 8.5 4.8 11.7 10.7 11.7 4.5 0 8.6-1.7 11.5-4.4l9.9 9.7c-6.1 6.4-15.8 10.1-24.1 10.1-17.9 0-27.1-12.7-23.6-32.4 3.4-19.1 17.7-32.5 33.5-32.5 16.6 0 23.6 14.7 20.5 32.5C596.8 58.5 596.3 60.2 596 61.4zM573.3 37.9c-5.9 0-10.5 4.9-12.2 11.2h21.4C583 43.4 580.7 37.9 573.3 37.9zM642.8 44c-2.2-2.4-5.1-4-8.8-4-6.4 0-11.1 2.7-13 13.5l-5.9 33.7h-16.4l11-62.3h16.4l-.7 4.1c3.4-3 8-5.5 13.8-5.5 5.3 0 9 2.1 10.7 4.4L642.8 44zM668.5 88.5c-9.8 0-19-2.8-24.8-7.2l7.6-12.5c6 3.7 12.7 5.7 20.6 5.7 6.4 0 8.6-1.5 9.1-4.8.5-2.8-1.5-4.3-8-6.3-14.2-4.5-23.1-8.2-20.8-21.3 2.3-12.9 13.6-18.5 28.2-18.5 7.8 0 15.9 2.4 21.9 6l-7.5 12.9c-5.6-3.3-12.1-5-17.3-5-6.6 0-8.7 1.3-9.1 4-.5 2.6 1.3 3.7 11.7 7.2 10.5 3.7 19.4 7.7 17.2 20.2C694.8 83.4 682.5 88.5 668.5 88.5z"/>
  <path class="st0" d="M529.1 44.8l19.5-19.8h-19.3L516.9 38c-2.6 2.7-6.2 6.6-8.3 9.1.7-3.1 1.9-9.5 2.6-13.3L517 .7l-17.8 8.2-13.8 78.3h16.4l3.3-18.9 9.7-9.9 15.4 63.4 16.1-7.4L529.1 44.8zM102.3 86.5l.7-4.2c-3.5 3.1-9.2 5.5-15 5.5-11.6 0-22-7.1-19.3-22.2C71.2 51.8 83.6 45 97.7 45c5.7 0 9.2 1.2 11.6 2.5l.5-3.1c.8-4.4-1.6-7.9-7.5-7.9-7.5 0-11.6 1.1-17.8 4.1l-4.3-11.4c8-4.1 14.4-6.3 24.5-6.3 15.1 0 23.9 7.8 21.4 21.8l-7.4 41.7H102.3zM106.9 60.4c-2.5-1.8-5.1-2.6-10.9-2.6-6.2 0-10 2.9-10.9 7.8-.8 4.4 1 8.3 8 8.3 5.4 0 10.1-2.7 12.4-5.7L106.9 60.4zM200.1 86.5l5.9-33.7c2-11.2-.6-14.5-7.4-14.5-6.8 0-10.7 3.3-12.6 14.1l-6 34h-16.4l5.9-33.7c2-11.2-.6-14.5-7.4-14.5-6.8 0-10.7 3.3-12.6 14.1l-6 34h-16.4l11-62.3h16.4l-.7 4.1c3.4-3 8.1-5.5 14.6-5.5 7.9 0 12.2 2.3 15.8 7.9 5-4.4 10.9-7.9 21.2-7.9 15.9 0 20.3 10.9 17.2 28.5l-6.2 35.1H200.1zM282.1 60.6h-37.3c-.9 8.5 4.8 11.7 10.7 11.7 4.5 0 8.6-1.7 11.5-4.4l9.9 9.7c-6.1 6.4-15.8 10.1-24.1 10.1-17.9 0-27.1-12.7-23.6-32.4 3.4-19.1 17.7-32.5 33.5-32.5 16.6 0 23.6 14.7 20.5 32.5C282.9 57.8 282.5 59.4 282.1 60.6zM259.5 37.1c-5.9 0-10.5 4.9-12.2 11.2h21.3C269.1 42.7 266.8 37.1 259.5 37.1zM314.5 87.8c-5.5 0-9.8-2.1-12.3-4.9l-.6 3.6h-16.4L299 8.2 316.8 0l-5 28.1c3.6-2.7 8.2-5.2 14.1-5.2 13.3 0 22.4 10 18.4 33.2C341 74.7 329.9 87.8 314.5 87.8zM320.2 38.3c-5.1 0-8.1 2.1-11 5.2L305 67c1.9 3.4 5.3 5.3 10.1 5.3 6.3 0 10.7-5.5 12.5-15.9C329.9 43.6 326.6 38.3 320.2 38.3zM8.5 94.8c12.2 6 22.7 1.9 25.5.5 4.7-2.3 6.7-5.9 7.8-12.1-3.7 2.8-8.5 5.4-14.7 5.4-13.8 0-23.4-10.4-19.1-34.6 3.4-19.4 15-33 31-33 5.7 0 10.2 2.2 12.8 5.1l.7-3.7h17l-9.5 53.9c-1.7 9.4-4.1 16.8-8.1 22.4-6.6 9.4-26.8 18.7-52.1 8.5L8.5 94.8zM49 42.7c-2-3.6-5.6-5.6-10.5-5.6-6.5 0-11.1 5.7-13 16.6-2.4 13.3 1.1 18.9 7.8 18.9 5.3 0 8.4-2.2 11.5-5.4L49 42.7z"/>
  <g>
    <path class="st1" d="M415.5,55.1c-3.1,17.9-20.2,32.5-38.1,32.5c-17.9,0-30-14.5-26.8-32.5c3.1-17.9,20.2-32.5,38.1-32.5 C406.6,22.6,418.6,37.2,415.5,55.1z M359.4,56.6L359.4,56.6c-1.1,6.1,0.3,11.7,3.7,15.8c3.3,4,8.4,6.1,14.3,6.1 c13.5,0,26.9-11.5,29.3-25c1.1-6.1-0.2-11.7-3.7-15.8c-3.3-4-8.4-6.1-14.3-6.1C375.1,31.6,361.7,43.1,359.4,56.6z"/>
  </g>
  <g>
    <path class="st1" d="M485.6,55.1c-3.1,17.9-20.2,32.5-38.1,32.5c-17.9,0-30-14.5-26.8-32.5c3.1-17.9,20.2-32.5,38.1-32.5 C476.7,22.6,488.7,37.2,485.6,55.1z M429.5,56.6L429.5,56.6c-1.1,6.1,0.3,11.7,3.7,15.8c3.3,4,8.4,6.1,14.3,6.1 c13.5,0,26.9-11.5,29.3-25c1.1-6.1-0.3-11.7-3.7-15.8c-3.3-4-8.4-6.1-14.3-6.1C445.3,31.6,431.8,43.1,429.5,56.6z"/>
  </g>
  <g>
    <path class="st1" d="M378.4,53.2l-6-11.2h9l3,5.7l5.8-5.7h9.5l-11.6,11.5l6.7,13.6h-9.1l-3.7-7.9l-7.7,7.9h-9.8L378.4,53.2z"/>
  </g>
</svg>
