<?xml version="1.0" encoding="utf-8"?>
<!-- Generator: Adobe Illustrator 18.1.0, SVG Export Plug-In . SVG Version: 6.00 Build 0)  -->
<!DOCTYPE svg PUBLIC "-//W3C//DTD SVG 1.1//EN" "http://www.w3.org/Graphics/SVG/1.1/DTD/svg11.dtd">
<svg version="1.1" id="Layer_1" xmlns="http://www.w3.org/2000/svg" xmlns:xlink="http://www.w3.org/1999/xlink" x="0px" y="0px"
	 viewBox="0 0 90 30" enable-background="new 0 0 90 30" xml:space="preserve">
<path d="M4.7,21.6c0.4,0,1-0.1,1.5-0.3c0.1-0.2,0.1-0.6,0.1-0.9c0-0.3,0-0.6-0.1-0.9c-0.4,0.2-0.9,0.2-1.4,0.2c-2,0-3.3-0.8-3.3-3.8
	c0-3,1.5-3.7,3.3-3.7c0.7,0,1.4,0.2,1.9,0.4l0.8-0.4c0.2-0.1,0.4-0.2,0.5-0.2c0.2,0,0.4,0.2,0.6,0.5c0.2,0.3,0.2,0.5,0.2,0.6
	c0,0.2-0.1,0.3-0.4,0.5l-0.4,0.3c0.2,0.5,0.3,1.1,0.3,2c0,1.1-0.1,1.7-0.5,2.3c0.1,0.4,0.4,1.2,0.4,2c0,2.3-1.7,2.9-3.4,2.9
	c-1.2,0-3.2-0.4-3.2-1.2c0-0.3,0.1-0.5,0.3-0.7C1.9,21.2,2.1,21,2.3,21C2.8,21,3.4,21.6,4.7,21.6z M6,14.2c0,0-0.3-0.1-1.2-0.1
	c-0.9,0-1.2,0.1-1.2,0.1c0,0-0.3,0.3-0.3,1.8c0,1.5,0.3,1.9,0.3,1.9c0,0,0.3,0.1,1.2,0.1c0.9,0,1.2-0.1,1.2-0.1c0,0,0.3-0.4,0.3-1.9
	C6.3,14.5,6,14.2,6,14.2z"/>
<path d="M11.2,10.1c0,0.8-0.3,1-1,1c-0.7,0-1-0.2-1-1c0-0.8,0.3-1,1-1C10.9,9.1,11.2,9.3,11.2,10.1z M9.3,13.1
	c0-0.6,0.1-0.7,0.9-0.7c0.8,0,0.9,0.1,0.9,0.7V19c0,0.6-0.1,0.7-0.9,0.7c-0.8,0-0.9-0.1-0.9-0.7V13.1z"/>
<g>
	<path d="M60.5,21.6c0.4,0,1-0.1,1.5-0.3c0.1-0.2,0.1-0.6,0.1-0.9c0-0.3,0-0.6-0.1-0.9c-0.4,0.2-0.9,0.2-1.4,0.2
		c-2,0-3.3-0.8-3.3-3.8c0-3,1.5-3.7,3.3-3.7c0.7,0,1.4,0.2,1.9,0.4l0.8-0.4c0.2-0.1,0.4-0.2,0.5-0.2c0.2,0,0.4,0.2,0.6,0.5
		c0.2,0.3,0.2,0.5,0.2,0.6c0,0.2-0.1,0.3-0.4,0.5l-0.4,0.3c0.2,0.5,0.3,1.1,0.3,2c0,1.1-0.1,1.7-0.5,2.3c0.1,0.4,0.4,1.2,0.4,2
		c0,2.3-1.7,2.9-3.4,2.9c-1.2,0-3.2-0.4-3.2-1.2c0-0.3,0.1-0.5,0.3-0.7c0.2-0.3,0.4-0.4,0.6-0.4C58.7,21,59.2,21.6,60.5,21.6z
		 M61.8,14.2c0,0-0.3-0.1-1.2-0.1s-1.2,0.1-1.2,0.1c0,0-0.3,0.3-0.3,1.8c0,1.5,0.3,1.9,0.3,1.9c0,0,0.3,0.1,1.2,0.1s1.2-0.1,1.2-0.1
		c0,0,0.3-0.4,0.3-1.9C62.1,14.5,61.8,14.2,61.8,14.2z"/>
	<path d="M67,10.1c0,0.8-0.3,1-1,1c-0.7,0-1-0.2-1-1c0-0.8,0.3-1,1-1C66.7,9.1,67,9.3,67,10.1z M65.1,13.1c0-0.6,0.1-0.7,0.9-0.7
		c0.8,0,0.9,0.1,0.9,0.7V19c0,0.6-0.1,0.7-0.9,0.7c-0.8,0-0.9-0.1-0.9-0.7V13.1z"/>
</g>
<path d="M18.8,16c0,3.1-1.3,3.8-3.4,3.8c-2,0-3.4-0.7-3.4-3.8c0-3.1,1.4-3.7,3.4-3.7C17.5,12.3,18.8,12.9,18.8,16z M16.7,14.2
	c0,0-0.3-0.1-1.2-0.1c-0.9,0-1.2,0.1-1.2,0.1c0,0-0.3,0.3-0.3,1.8c0,1.5,0.3,1.9,0.3,1.9c0,0,0.3,0.1,1.2,0.1c0.9,0,1.2-0.1,1.2-0.1
	c0,0,0.3-0.4,0.3-1.9C17,14.5,16.7,14.2,16.7,14.2z"/>
<path d="M19.5,16c0-3.3,1.7-3.7,3.2-3.7c1,0,2.4,0.4,2.4,0.8c0,0.2-0.2,0.8-0.4,1c-0.1,0.1-0.2,0.1-0.3,0.1c-0.1,0-0.9-0.3-1.6-0.3
	c-0.7,0-1.2,0.1-1.2,0.1c0,0-0.4,0.3-0.4,1.8c0,1.5,0.3,1.9,0.4,1.9c0,0,0.5,0.1,1.2,0.1c0.8,0,1.5-0.3,1.7-0.3c0.1,0,0.2,0,0.3,0.1
	c0.2,0.2,0.4,0.8,0.4,1c0,0.5-1.7,0.9-2.5,0.9C21,19.8,19.5,19.3,19.5,16z"/>
<path d="M32.5,16c0,3.1-1.3,3.8-3.4,3.8c-2,0-3.4-0.7-3.4-3.8c0-3.1,1.4-3.7,3.4-3.7C31.1,12.3,32.5,12.9,32.5,16z M30.4,14.2
	c0,0-0.3-0.1-1.2-0.1c-0.9,0-1.2,0.1-1.2,0.1c0,0-0.3,0.3-0.3,1.8c0,1.5,0.3,1.9,0.3,1.9c0,0,0.3,0.1,1.2,0.1c0.9,0,1.2-0.1,1.2-0.1
	c0,0,0.3-0.4,0.3-1.9C30.7,14.5,30.4,14.2,30.4,14.2z"/>
<path d="M56.5,10.1c0,0.8-0.3,1-1,1c-0.7,0-1-0.2-1-1c0-0.8,0.3-1,1-1C56.2,9.1,56.5,9.3,56.5,10.1z M54.6,13.1
	c0-0.6,0.1-0.7,0.9-0.7c0.8,0,0.9,0.1,0.9,0.7V19c0,0.6-0.1,0.7-0.9,0.7c-0.8,0-0.9-0.1-0.9-0.7V13.1z"/>
<path d="M69.9,12.4H71c0.7,0,0.9,0,0.9,0.5c0,1-0.4,1.1-0.7,1.1h-1.3v3.5c0,0.3,0,0.4,0,0.5c0,0,0.2,0.1,0.7,0.1c0.2,0,0.8,0,0.9,0
	c0.2,0,0.4,0,0.4,0.5c0,1.2-0.2,1.2-1.5,1.2c-1.4,0-2.4-0.3-2.4-1.9v-6.6c0-0.6,0.1-0.7,0.9-0.7c0.8,0,0.9,0.1,0.9,0.7V12.4z"/>
<path d="M78.5,18.4c0.2,0.2,0.3,0.4,0.3,0.5c0,0.2-0.1,0.3-0.4,0.6C78.1,19.9,78,20,77.8,20c-0.1,0-0.3-0.1-0.5-0.3l-0.4-0.4
	c-0.3,0.2-1.1,0.4-1.9,0.4c-1.8,0-2.5-1-2.5-2.3c0-1.5,0.8-2.4,2.8-2.4c0.5,0,0.9,0,1.2,0.1c0-0.3,0-1-0.1-1.1
	C76.3,14.1,75.8,14,75,14c-0.6,0-1.2,0.1-1.3,0.1c-0.1,0-0.2,0-0.3-0.1c-0.2-0.2-0.5-0.7-0.5-0.9c0-0.5,1.3-0.7,2.3-0.7
	c1.1,0,3.2,0.3,3.2,2.2c0,1,0,2.5-0.1,3.7L78.5,18.4z M76.5,18.2c0,0,0-0.5,0-1.1c0-0.2,0-0.4,0-0.5c0,0-0.8-0.1-1.2-0.1
	c-0.5,0-0.9,0.1-0.9,0.2c0,0-0.1,0.4-0.1,0.8c0,0.4,0.1,0.8,0.1,0.8c0,0,0.3,0.2,0.9,0.2C76,18.3,76.5,18.3,76.5,18.2z"/>
<path d="M79.6,9.8c0-0.5,0.1-0.7,0.9-0.7c0.8,0,0.9,0.2,0.9,0.7v7.7c0,1.2,0.2,1.2,0.2,1.5c0,0.2-0.2,0.4-0.5,0.5
	c-0.2,0.1-0.5,0.2-0.8,0.2c-0.5,0-0.7-0.7-0.7-1.5V9.8z"/>
<path d="M85.6,17c-0.4,0-1,0-1.3-0.1c0,0.7,0.2,1.1,0.2,1.1c0,0,0.3,0.2,1.3,0.2c1,0,1.7-0.1,1.8-0.1c0.1,0,0.2,0,0.3,0.1
	c0.2,0.2,0.4,0.7,0.4,0.9c0,0.5-1.8,0.7-2.5,0.7c-2.5,0-3.3-0.8-3.3-3.8c0-2.8,1.5-3.6,3.2-3.6c1.7,0,2.9,1,2.9,2.8
	c0,1.1-0.2,1.4-0.6,1.6C87.6,16.8,86.3,17,85.6,17z M84.4,14.1c0,0-0.2,0.3-0.2,1.3c0.3,0,1,0,1.5,0c0.4,0,0.9,0,1.2,0
	c0-1.1-0.1-1.3-0.1-1.3c0,0-0.2-0.2-1.1-0.2C84.8,14,84.4,14.1,84.4,14.1z"/>
<path fill="#FFFFFF" d="M51.9,6.4c0,0-1.1-1.5-8.4-1.5c-7.3,0-8.4,1.5-8.4,1.5s-1.5,1.3-1.5,8.4c0,7.1,1.5,8.4,1.5,8.4
	s1.1,1.6,8.4,1.6c7.4,0,8.4-1.6,8.4-1.6s1.5-1.3,1.5-8.4C53.4,7.7,51.9,6.4,51.9,6.4z"/>
<path fill="#FF6600" d="M51.9,6.4c0,0-1.1-1.5-8.4-1.5c-7.3,0-8.4,1.5-8.4,1.5s-1.5,1.3-1.5,8.4c0,7.1,1.5,8.4,1.5,8.4
	s1.1,1.6,8.4,1.6c7.4,0,8.4-1.6,8.4-1.6s1.5-1.3,1.5-8.4C53.4,7.7,51.9,6.4,51.9,6.4z M51.4,20.5c-0.3,0.3-0.6,0.5-0.8,0.5
	c-0.2,0-0.5-0.1-0.7-0.4l-0.5-0.5c-0.6,0.3-1.3,0.6-2,0.6c-2.2,0-3.7-0.7-3.7-4.3c0-3.6,1.6-4.2,3.7-4.2c0.7,0,1.2,0.1,1.8,0.4V9.4
	c0-0.7,0.2-0.8,1-0.8c0.9,0,1,0.1,1,0.8v9.5l0.3,0.3c0.2,0.2,0.4,0.4,0.4,0.6C51.9,20,51.7,20.2,51.4,20.5z M46.3,14.4
	c0,0-0.5,0.4-0.5,2.1c0,1.6,0.4,2.2,0.5,2.2c0,0,0.3,0.2,1.3,0.2c0.6,0,1,0,1.6-0.2c0,0,0.1-1.2,0.1-2.2v-2.1
	c-0.5-0.1-1-0.2-1.7-0.2C46.6,14.2,46.3,14.4,46.3,14.4z"/>
</svg>
