<svg xmlns="http://www.w3.org/2000/svg" xml:space="preserve" style="enable-background:new 0 0 102 18" viewBox="0 0 102 18"><path d="M9.3 17.1c-.1.3-.3.4-.6.5-.8.2-4 .2-5.2.2-2.2 0-4-1.5-3.3-4.4C1.3 9.5 3.9 0 3.9 0h3.3L3.7 13.2c-.1.3-.1.5-.1.8-.1.9.4 1.2 1.4 1.2h4.4c.2 0 .4.1.4.5-.2.5-.5 1.4-.5 1.4zM30.3 7c.5 0 1.6.1 2.2.2l-2.2 8.1c-.5.1-1.4.2-2.3.2-1.6 0-2.1-.6-2-1.8 0-.3.1-.6.3-1.5.1-.4.5-1.8.5-1.8.5-2.3 1.4-3.4 3.5-3.4zm7.5-7h-3.2l-1.3 4.7c-.9-.1-1.7-.2-2.2-.2-3.9 0-6.3 1.5-7.4 5.7 0 0-.4 1.3-.5 1.8-.2.8-.2 1-.2 1.3-.3 2.5 1.1 4.5 4.4 4.5 1.5 0 3.4-.3 5-.6.5-.2.7-.3.8-.6L37.8 0zm5 7c1.6 0 2.1.7 1.9 2 0 .4-.1.9-.3 1.4l-.4 1.8c-.5 1.7-1.4 3.3-3.5 3.3-.9 0-1.9-.1-2.2-.2l2.2-8.1c.7-.1 1.8-.2 2.3-.2zm4.9 3.3c.1-.5.2-.9.3-1.4.2-2.6-1.1-4.4-4.4-4.4-.5 0-1.4.1-2.3.2L42.4 0h-3.1s-3.9 13.9-4.6 16.7c-.1.4.5.5.5.5 1.3.3 3.1.6 4.7.6 4 0 6.3-1.9 7.4-5.7l.4-1.8zm15-3.1c1.4 0 2 .8 1.9 2.1 0 .3-.1.7-.2 1l-.5 1.8c-.6 2.1-1.7 3.2-3.4 3.2-1.4 0-2.1-.8-2-2.1 0-.2.1-.4.3-1.2.1-.4.5-1.6.5-1.6.6-2.4 1.9-3.2 3.4-3.2zm5.1 1.9c.3-2.4-1.1-4.5-4.4-4.5-3.8 0-6.3 2-7.4 5.7 0 0-.3 1-.5 1.6-.2.5-.3 1-.3 1.4-.2 2.4 1.1 4.6 4.4 4.6 3.8 0 6.2-1.9 7.3-5.7l.5-1.8c.3-.5.3-.9.4-1.3zm13.1-3.9c.3-.2.3-.5-.2-.5h-2.9c-.3 0-.4.1-.6.3l-5.1 5 2.7-10h-3.2s-3.3 12.2-4.8 17.1c-.1.2 0 .4.2.5H69.3c.3 0 .5-.2.6-.5l1.5-5.5 2.4 5.5c.1.3.3.4.6.4h2.7c.2 0 .5-.2.4-.5-.5-1.1-3.1-6.3-3.1-6.3l6.5-5.5zm5 2c1.3 0 2 .7 1.9 2.1 0 .3-.1.6-.2.9h-5.1c.4-1.8 1.4-3 3.4-3zm4.6 3.7c.2-.8.3-.9.4-1.6.2-2.7-1.1-4.7-4.3-4.7-3.7 0-6.2 1.5-7.5 5.8 0 0-.2.6-.4 1.3-.2.6-.3 1.3-.3 1.5-.3 3.4 2.2 4.6 4.3 4.6s3.2-.1 4.9-.4c.4-.1.5-.3.6-.6l.4-1.9c-1.1.2-3.2.3-4.9.3-1.8 0-2.4-.9-2.2-2.1 0-.3.1-.6.2-.9h7.8c.4 0 .5-.2.6-.6.2.1.3-.2.4-.7zm11.1-5.8c-1.3-.3-2.7-.4-4.2-.4-2.2 0-5.1.7-5.4 3.8-.1 1.1.4 2.1 1.3 2.7l2.8 1.9c.5.3.7.8.6 1.1-.1 1-1 1.3-2.2 1.3-.5 0-2.7-.1-3.9-.3-.4-.1-.6.3-.6.3l-.2 1.5c-.1.3.1.4.3.5 1.4.3 3.5.4 4.3.4 2.9 0 5.4-1.2 5.7-4.1.1-1-.2-2-1.5-2.9L95.9 9c-.4-.3-.6-.6-.6-.9.1-.9 1.3-1 2-1 1 0 2.7.1 3.8.3.4.1.5-.3.6-.4l.4-1.3c-.1-.1 0-.6-.5-.6zm-44.4 0c.1-.3-.3-.4-.4-.4-1 0-2.3.1-3.8 1.1l.1-.4c.1-.3-.1-.4-.4-.4h-2.1c-.3 0-.5.2-.6.4 0 0-2.8 9.9-3.3 11.9-.1.3 0 .6.4.6h2.2c.3 0 .5-.3.6-.5l2.5-9.3c1.7-.8 2.8-.8 3.5-.8.3 0 .5-.2.6-.4.2-.2.5-1.2.7-1.8zM17.9 7c-2.1 0-3 1.4-3.5 3.3l-.6 2.4c-.1.3-.2.7-.2.9-.1 1.3.5 1.7 1.5 1.7.9 0 2-.3 3.1-.9l2-7.2c-.5-.1-1.5-.2-2.3-.2zm5.7-1.2-3.1 11.4c-.1.3-.4.4-.6.4h-2c-.3 0-.4-.2-.4-.4l.2-.7c-1.4.9-2.7 1.3-3.9 1.3-2.2 0-3.8-1.4-3.6-4.1 0-.2.2-.8.3-1.4.2-.8.4-1.5.5-2 1-3.6 3.5-5.7 7.4-5.7 1.5 0 3.3.3 4.8.6.5.1.5.2.4.6z" style="fill:#fff"/></svg>