<svg xmlns="http://www.w3.org/2000/svg" width="151.668" height="23.947" viewBox="0 0 151.668 23.947"><path d="M9.328,46.952H0V28.63l9.328,6.808Z" transform="translate(0 -23.213)" fill="#314ea3"/><path d="M.01,46.957V28.65l9.325,6.812V46.957H9.327v.008Zm.008-.008h9.3l0-11.482L.025,28.68Z" transform="translate(-0.008 -23.229)" fill="#005baa"/><path d="M121.13,46.952h9.328V28.63l-9.328,6.808Z" transform="translate(-98.21 -23.213)" fill="#4fa647"/><path d="M121.148,46.956v-.008h-.008v-11.5l9.325-6.806-.008,18.314h-9.309Zm9.3-.006V28.672l-9.294,6.781V46.943Z" transform="translate(-98.218 -23.221)" fill="#00ab4e"/><path d="M62.139,23.739H56.76V12.225L62.139,0l5.381,12.225V23.739Z" transform="translate(-46.02 0)" fill="#d22321"/><path d="M62.148,23.76v-.015l5.364.008V12.259L62.148.066,56.785,12.255l-.008,11.489h5.37v.015l-5.378-.008v-11.5L62.148.03l5.379,12.225-.008,11.5Z" transform="translate(-46.028 -0.024)" fill="#d22321"/><path d="M225.6,70.268c0-2.066-1.805-3.253-5.014-3.253s-4.948,1.186-4.948,3.253,1.807,3.207,5.043,3.207,4.92-1.084,4.92-3.207m4.963.025c0,2.893-3.9,5.82-9.992,5.82s-9.8-2.976-9.8-5.852,3.438-5.921,9.834-5.921,9.96,3.243,9.96,5.955" transform="translate(-170.889 -52.166)"/><path d="M555.217,65.068a20.806,20.806,0,0,0-5.883-.878c-4.023,0-6.834,1.29-6.834,3.241,0,4.051,8.768,3.54,8.768,5.391,0,.66-.611.967-2.267.967a14.538,14.538,0,0,1-6.106-1.478v2.53a17.776,17.776,0,0,0,6.437,1.13c3.871,0,6.78-1.3,6.78-3.463,0-3.936-8.778-3.455-8.778-5.158,0-.562.827-.927,2.378-.927a19,19,0,0,1,5.5,1.009V65.066" transform="translate(-439.85 -52.044)"/><path d="M643.294,74.375h-8.125v-2.53h7.765V69.7h-7.765V67.4h7.962l-.015-2.212H630.17v11.4h13.124Z" transform="translate(-510.932 -52.855)"/><path d="M727.706,65.19H710.47v2.195h6.1v9.209h4.967V67.385h6.167Z" transform="translate(-576.038 -52.855)"/><path d="M441.916,67.6v6.982H444.3c4.325,0,5.179-1.849,5.179-3.5,0-1.936-1.156-3.48-5.23-3.48ZM437,65.44h7.805c6.3,0,9.536,2.643,9.536,5.735S451.2,76.8,444.325,76.8H437V65.44" transform="translate(-354.313 -53.058)"/><path d="M335.044,67.6v6.982h2.384c4.327,0,5.179-1.849,5.179-3.5,0-1.936-1.156-3.48-5.228-3.48ZM330.13,65.44h7.805c6.3,0,9.538,2.643,9.538,5.735S344.336,76.8,337.455,76.8H330.13V65.44" transform="translate(-267.664 -53.058)"/></svg>