<svg id="Layer_1" data-name="Layer 1" xmlns="http://www.w3.org/2000/svg" viewBox="0 0 1505.96 383.02"><defs><style>.cls-1,.cls-2{fill:#fff}.cls-1{fill-rule:evenodd}</style></defs><path class="cls-1" d="M728.84 181.11q-33.09-32.7-80.31-32.68-47 0-80.21 32.68t-33.14 79.28q0 46.59 33.14 79.29t80.21 32.71q47.21 0 80.31-32.71t33.06-79.29q0-46.57-33.06-79.28M700.36 313.6c-14.17 14.56-31.4 21.84-51.83 21.84s-37.67-7.28-51.81-21.84-21.22-32.27-21.22-53.21 7.12-38.68 21.22-53.2 31.41-21.81 51.81-21.81 37.66 7.29 51.83 21.81 21.23 32.27 21.23 53.2-7.09 38.61-21.23 53.21M897 169.3q-21.32-16.7-60-16.72h-57.51v215.68h40.31V286h17.43q40.17 0 60.58-17.49t20.43-51.84q0-30.54-21.22-47.34m-29.27 72.24q-10.2 7.41-30.55 7.4h-17.4v-59.4h17.4q20.35 0 30.55 7.5t10.18 22.28q0 14.84-10.18 22.22" transform="translate(-67.04 -68.9)"/><path class="cls-1" d="M897.62 120.65H857.3V83.68h120.94v36.97h-40.32v178.71h-40.3V120.65zM1005.12 83.68h40.34v215.67h-40.34V83.68z"/><path class="cls-1" d="M1188.64 331.26h21.13c13.21 0 23.08-2.39 29.68-7.18s10-11.9 10-21.42-3.57-16.72-10.63-21.51-17.78-7.21-32-7.21h-18.16zm0-94.29H1203q16.9 0 25.35-5.93c5.67-3.89 8.52-9.83 8.52-17.68s-2.85-13.85-8.52-17.81-14.08-6-25.35-6h-14.36zm-40.28-84.39h54.58q33.84 0 54 15.29c13.47 10.18 20.17 23.88 20.17 40.95q0 24.62-20.2 39.33l-4 2.68a76.15 76.15 0 0114.45 8.23q22.3 16.38 22.31 43.89 0 29.82-21.79 47.56t-58.19 17.75h-61.38zm167.44 215.68V152.58h116.79v37h-76.44v53.69h72.77v37h-72.77v51.07h76.44v37zm176.54-178.72H1452v-37h121v37h-40.31v178.72h-40.35z" transform="translate(-67.04 -68.9)"/><path class="cls-2" d="M258.55 68.9C152.81 68.9 67 154.66 67 260.41s85.77 191.51 191.51 191.51 191.51-85.73 191.51-191.51S364.3 68.9 258.55 68.9m0 340.47a148.95 148.95 0 11149-149 148.93 148.93 0 01-149 149" transform="translate(-67.04 -68.9)"/><path class="cls-2" d="M258.55 154A106.39 106.39 0 10365 260.43 106.37 106.37 0 00258.55 154m0 170.22a63.84 63.84 0 1163.84-63.83 63.86 63.86 0 01-63.84 63.83" transform="translate(-67.04 -68.9)"/><path d="M322.39 260.43a63.84 63.84 0 11-63.84-63.84 63.86 63.86 0 0163.84 63.84" transform="translate(-67.04 -68.9)" fill="#c72a2a"/></svg>