<svg xmlns="http://www.w3.org/2000/svg" id="PartyCasino_WhitePink" viewBox="0 0 773.21 131.09"><defs><clipPath id="clippath"><path d="M660.71 36.1h-.03l-1.26-7.59a.657.657 0 0 0-.65-.55h-14.53c-.35 0-.66.29-.66.66v67.45c0 .35.29.66.66.66h18.77c.35 0 .66-.29.66-.66V52.65c0-6.51 4.75-12.06 11.66-12.06 7.32 0 8.54 5.42 8.54 12.88v42.61c0 .35.29.66.66.66h17.55c.36 0 .66-.29.66-.66V49.66c0-16.14-8.14-23.74-21.56-23.74-9.1 0-15.87 3.81-20.48 10.18" class="cls-3"/></clipPath><clipPath id="clippath-1"><path d="M615.99 27.97c-.37 0-.66.3-.66.67v67.42c0 .37.31.66.66.66h17.93c.37 0 .66-.31.66-.66V28.63c0-.37-.3-.67-.66-.67h-17.93Z" class="cls-3"/></clipPath><clipPath id="clippath-2"><path d="M615.29 9.66c0 5.34 4.33 9.66 9.66 9.66s9.66-4.32 9.66-9.66S630.29 0 624.95 0s-9.66 4.32-9.66 9.66" class="cls-3"/></clipPath><style>.cls-2{fill:#fff}.cls-3{fill:#dc1880}</style></defs><path d="M108.3 68.24 62.85 22.79c-3.97-3.97-10.45-3.97-14.42 0L2.98 68.24c-3.97 3.97-3.97 10.45 0 14.42l45.45 45.45c3.97 3.97 10.45 3.97 14.42 0l45.45-45.45c3.97-3.97 3.97-10.45 0-14.42M30.95 81.8a6.32 6.32 0 1 1 .001-12.641A6.32 6.32 0 0 1 30.95 81.8m23.5 23.5a6.32 6.32 0 1 1 6.32-6.32c0 3.49-2.84 6.32-6.32 6.32m-6.31-29.82a6.32 6.32 0 1 1 6.32 6.32c-3.5-.01-6.32-2.84-6.32-6.32m6.31-17.18a6.32 6.32 0 1 1 6.32-6.32c0 3.49-2.84 6.32-6.32 6.32m17.18 17.18a6.32 6.32 0 1 1 6.32 6.32c-3.49-.01-6.32-2.84-6.32-6.32m10.28 23.5s10.37-11.34 10.37-23.36-10.37-26.21-10.37-26.21c.21.37 22.89 26.21 22.89 26.21L81.91 98.98Z" class="cls-3"/><path d="M157.11 25.92c21.75 0 32.35 12.23 32.35 36s-11.28 36.95-29.5 36.95c-4.62 0-9.38-1.36-12.5-2.99v23.07c0 3.54-2.87 6.41-6.42 6.41h-11.82a.66.66 0 0 1-.66-.66V31.16c0-.29.19-.55.46-.63 10.46-3.29 21.25-4.61 28.08-4.61m13.18 37.09c0-12.63-3.13-22.14-14-22.14-3.26 0-6.52.68-8.84 1.36v39.12c2.45 1.9 6.8 2.72 10.47 2.72 8.43 0 12.37-7.61 12.37-21.06M195.07 65.45c0-23.91 12.23-39.53 36.02-39.53 4.62 0 14.82 1.22 25.01 5.03v52.16l1.29 13c.04.39-.27.72-.65.72h-9.96c-3.16 0-5.85-2.3-6.34-5.42l-.24-1.51-.54-.14c-3.67 5.43-9.52 9.24-17.94 9.24-20.66 0-26.64-15.9-26.64-33.55m42.27 9.65V41c-1.9-.81-5.03-1.49-8.56-1.49-11.14 0-14.95 11.55-14.95 24.86 0 10.87 2.45 20.78 12.23 20.78 7.2 0 11.28-5.03 11.28-10.05M265.5 27.96h14.2c.32 0 .6.23.65.55l1.19 7.14c.11.63.94.75 1.24.18 3.5-6.71 9.69-9.91 15.43-9.91 3.79 0 7.83.88 10.67 2.39.21.11.34.34.34.58v15.1c0 .48-.5.8-.93.6-2.69-1.26-6.07-2.64-11.84-2.64-6.66 0-11.01 4.89-11.28 12.09v42.14c0 .36-.29.66-.66.66h-17.72a.66.66 0 0 1-.66-.66v-56.3l-1.27-11.19c-.04-.39.26-.73.65-.73M318.07 76.29V16.51c0-.36.29-.66.66-.66h11.96c3.54 0 6.42 2.87 6.42 6.41v7.3h14.23c.56 0 1.07.36 1.25.9l4.09 12.18c.28.85-.35 1.73-1.25 1.73h-18.32v31.38c0 8.02 3.67 10.33 8.7 10.33 2.94 0 5.54-.99 7.62-2.18.35-.2.8-.05.94.33l4.03 10.99c.11.29 0 .62-.27.79-4.25 2.57-11.07 4.47-17.76 4.47-20.53 0-22.29-11.82-22.29-24.18" class="cls-2"/><path d="m353.23 121.16 4.06-12.3c.13-.38.55-.56.91-.38 3.09 1.52 6.69 3.05 11.22 3.05 5.68 0 8.24-2.03 11.08-9.19l2.57-6.49-22.95-66.98c-.15-.42.17-.87.62-.87H375c2.86 0 5.37 1.9 6.14 4.65L392.4 72.6h.27l11.26-39.95a6.372 6.372 0 0 1 6.14-4.65h14.9l-24.33 72.31c-5.81 17.84-13.65 26.49-28.65 26.49-6.93 0-14.1-2.27-18.48-4.87a.664.664 0 0 1-.28-.77" class="cls-2"/><path d="M484.34 65.46c0-23.91 12.23-39.53 36.02-39.53 4.62 0 14.82 1.22 25.01 5.03v52.16l1.29 13c.04.39-.27.72-.65.72h-9.96c-3.16 0-5.85-2.3-6.34-5.42l-.24-1.51-.54-.14c-3.67 5.43-9.52 9.24-17.94 9.24-20.66 0-26.64-15.9-26.64-33.55m42.27 9.65V41c-1.9-.81-5.03-1.49-8.56-1.49-11.14 0-14.95 11.55-14.95 24.86 0 10.87 2.45 20.78 12.23 20.78 7.2 0 11.28-5.03 11.28-10.05M426.5 63.11c0-27.21 17.24-37.18 32.56-37.18 8.8 0 18.09 2.69 24.74 11.89.65.9.53 2.13-.32 2.84l-8.7 7.28c-.87.73-2.17.62-2.91-.26-3.37-4.01-7.14-6.59-11.99-6.59-8.62 0-14.23 7.11-14.23 21.33 0 13.26 4.92 22.01 15.87 22.01 4.48 0 8.53-1.39 13.19-4.46 1.01-.66 2.38-.33 2.96.74l5.03 9.26c.51.93.22 2.09-.64 2.7-5.57 3.94-13.49 6.8-23.13 6.8-20.24 0-32.42-12.85-32.42-36.36ZM554.37 90.64l3.86-10.05a1.88 1.88 0 0 1 2.68-.97c4.93 2.76 12.23 5.72 18.36 5.72 4.65 0 8.48-2.32 8.48-7.25 0-5.33-4.65-6.97-10.4-8.75-10.12-3.01-21.48-6.42-21.48-20.78s12.18-22.69 25.99-22.69c9.77 0 18.48 3.53 24.6 8.73.79.67.92 1.84.27 2.64l-6.61 8.23c-.63.78-1.78.95-2.58.35-5.13-3.85-10.23-6.14-14.86-6.14s-8.21 2.32-8.21 6.97c0 5.06 4.65 6.97 10.94 9.02 9.99 3.28 21.2 6.97 21.2 21.05s-10.81 22.56-26.67 22.56c-11 0-20.33-3.57-24.85-6.38-.76-.47-1.06-1.43-.74-2.27ZM709.87 62.5c0-28.57 18.19-36.91 32.69-36.91 10.4 0 30.64 3.14 30.64 34.86 0 26.11-14.36 38.55-32.83 38.55s-30.51-11.76-30.51-36.5Zm43.77.14c0-14.63-3.01-23.1-12.04-23.1-8.35 0-12.17 8.48-12.17 20.78s1.64 24.74 12.04 24.74c8.62 0 12.17-8.48 12.17-22.42ZM660.71 36.1h-.03l-1.26-7.59a.657.657 0 0 0-.65-.55h-14.53c-.35 0-.66.29-.66.66v67.45c0 .35.29.66.66.66h18.77c.35 0 .66-.29.66-.66V52.65c0-6.51 4.75-12.06 11.66-12.06 7.32 0 8.54 5.42 8.54 12.88v42.61c0 .35.29.66.66.66h17.55c.36 0 .66-.29.66-.66V49.66c0-16.14-8.14-23.74-21.56-23.74-9.1 0-15.87 3.81-20.48 10.18" class="cls-3"/><path d="M643.59 25.92h59.16v70.81h-59.16z" class="cls-3" style="clip-path:url(#clippath)"/><path d="M615.99 27.97c-.37 0-.66.3-.66.67v67.42c0 .37.31.66.66.66h17.93c.37 0 .66-.31.66-.66V28.63c0-.37-.3-.67-.66-.67h-17.93Z" class="cls-3"/><path d="M615.33 27.5h19.26v69.22h-19.26z" class="cls-3" style="clip-path:url(#clippath-1)"/><path d="M615.29 9.66c0 5.34 4.33 9.66 9.66 9.66s9.66-4.32 9.66-9.66S630.29 0 624.95 0s-9.66 4.32-9.66 9.66" class="cls-3"/><path d="M615.29 0h19.32v19.31h-19.32z" class="cls-3" style="clip-path:url(#clippath-2)"/></svg>