<?xml version="1.0" encoding="utf-8"?>
<!-- Generator: Adobe Illustrator 21.1.0, SVG Export Plug-In . SVG Version: 6.00 Build 0)  -->
<svg version="1.1" id="Layer_1" xmlns="http://www.w3.org/2000/svg" xmlns:xlink="http://www.w3.org/1999/xlink" x="0px" y="0px"
	 viewBox="0 0 225 47.5" style="enable-background:new 0 0 225 47.5;" xml:space="preserve">
<style type="text/css">
	.st0{fill:#E64C25;}
	.st1{fill:#FFFFFF;}
	.st2{fill:url(#SVGID_3_);}
	.st3{fill:url(#SVGID_4_);}
</style>
<path class="st0" d="M0.2,12.3c2.3-1.3,5.6-1.9,8.5-1.9c8.3,0,10.8,4.8,10.8,12.7c0,10.8-4.4,14.2-11.2,14.2c-1.5,0-2.9-0.2-4.2-0.4
	v10.6H0V12.3H0.2z M4.4,32.7c0.6,0.4,2.1,0.6,4,0.6c4.6,0,7.1-2.3,7.1-10.6c0-5.4-1-9-7.1-9c-1.9,0-3.5,0.4-4.2,0.6L4.4,32.7
	L4.4,32.7z"/>
<path class="st0" d="M24.8,15.2c0.8-1.7,3.3-4.8,9.2-4.8s7.9,3.1,7.9,7.5V35c-2.1,1.7-5.4,2.5-9,2.5c-5,0-9-1.9-9-7.1
	c0-5.4,4.4-8.5,13.8-9.4v-2.5c0-3.1-0.8-4.8-4.2-4.8c-3.1,0-4.8,1.5-5.6,3.1L24.8,15.2z M37.7,24.4c-5.8,0.6-9.6,2.3-9.6,5.6
	c0,2.3,1.9,3.8,5.2,3.8c2.1,0,3.5-0.4,4.6-1L37.7,24.4L37.7,24.4z"/>
<path class="st0" d="M48.3,12.3c1.9-1,4.6-1.9,7.3-1.9c2.7,0,5,0.8,6.3,3.3l-3.3,1.7c-0.6-1-1.9-1.5-3.1-1.5c-1,0-2.3,0.2-2.9,0.6
	v22.3h-4.2L48.3,12.3L48.3,12.3z"/>
<path class="st0" d="M68.3,14.2h-4v-3.3h4V4h4.2v6.9h6.9v3.3h-6.9v15.4c0,2.7,0.6,4.2,2.7,4.2c1.2,0,2.5-0.4,3.3-1.3l2.1,2.9
	c-1.2,1.3-3.1,2.1-5.8,2.1c-4.4,0-6.3-2.3-6.3-6.9V14.2H68.3z"/>
<path class="st0" d="M85,41.9c0.6,0.4,1.5,1,2.9,1c1.7,0,2.7-0.6,4.2-5l0.4-1.3c-2.1-1.5-3.3-4.2-5-9.2l-5.2-16.7h4.4l4.2,14.8
	c1,3.5,1.9,5.4,2.5,6.5l6.7-21.3h4.4l-9.6,29c-1.9,6-4.6,6.7-7.7,6.7c-1.9,0-4-0.8-4.6-1.5L85,41.9z"/>
<path class="st1" d="M112.5,47.1V12.3c2.1-1.3,5.2-1.9,8.3-1.9c7.5,0,10.6,3.8,10.6,12.5c0,9.6-3.3,14-11,14c-1.5,0-2.9-0.2-4-0.4
	h-0.2v10.8L112.5,47.1L112.5,47.1z M120.4,13.7c-2.1,0-3.8,0.4-4.2,0.8l0,0v18.3l0,0c0.6,0.4,2.3,0.8,4.2,0.8
	c5.2,0,7.3-3.1,7.3-10.8C127.7,17.3,126.5,13.7,120.4,13.7"/>
<path class="st1" d="M180.2,36.7l-7.3-12.5h-0.2c-1,0.6-2.1,1-3.1,1.5h-0.2v11h-3.8V0h3.8v22.3l0.2-0.2c5.2-2.1,8.3-5.8,9.6-11.2
	h3.8c-1,4.6-3.3,8.3-7.1,11.2l-0.2,0.2l8.3,14.4H180.2L180.2,36.7z"/>
<path class="st1" d="M197.5,37.3c-7.1,0-10.2-4-10.2-12.5c0-9.8,3.1-14.2,10.2-14.2c5.8,0,8.7,3.3,8.7,9.6c0,1.5,0,3.5-0.4,4.8
	h-14.6v0.2c0.2,6.5,1.9,9,6.7,9c3.1,0,5-1.3,6.3-2.5l2.1,2.7C204.8,35.4,202.1,37.3,197.5,37.3 M197.3,13.7c-4,0-5.8,2.5-6,8.1v0.2
	h11v-0.2c0-0.4,0.2-1.5,0.2-1.9C202.3,17.1,201.9,13.7,197.3,13.7"/>
<path class="st1" d="M212.1,36.7V12.3c1.9-1,4.8-1.9,7.1-1.9c2.1,0,4.6,0.6,5.8,3.1l-3.1,1.5c-0.6-0.8-1.9-1.5-3.3-1.5
	c-1.3,0-2.3,0.2-3.1,0.6l0,0v22.3h-3.3V36.7z"/>
<linearGradient id="SVGID_3_" gradientUnits="userSpaceOnUse" x1="-25.7659" y1="826.0738" x2="-16.1211" y2="820.4396" gradientTransform="matrix(2.6841 0 0 -2.6841 206.0957 2228.6428)">
	<stop  offset="0.2727" style="stop-color:#EE845A"/>
	<stop  offset="0.4364" style="stop-color:#E64C25"/>
	<stop  offset="0.703" style="stop-color:#E64C25"/>
	<stop  offset="0.9455" style="stop-color:#EE845A"/>
</linearGradient>
<path id="SVGID_2_" class="st2" d="M134,24.6l14.8,3.5V16c0.4,0.4,4.4,6,9,10.2l5.8-1.7c-12.5-9-14.6-19.4-14.8-21V3.3
	C146.7,15.8,134.8,24,134,24.6"/>
<linearGradient id="SVGID_4_" gradientUnits="userSpaceOnUse" x1="-29.6982" y1="817.1956" x2="-11.2705" y2="817.1956" gradientTransform="matrix(2.6841 0 0 -2.6841 206.0957 2228.6428)">
	<stop  offset="0.1152" style="stop-color:#A44433"/>
	<stop  offset="0.4182" style="stop-color:#E64C25"/>
	<stop  offset="0.6303" style="stop-color:#E64C25"/>
	<stop  offset="1" style="stop-color:#A44433"/>
</linearGradient>
<path id="SVGID_1_" class="st3" d="M156,24.6c-4.8,4.4-7.1,8.1-7.3,8.5v-8.5H134c0.8,0.6,12.9,8.7,14.8,21.2v-0.2
	c0.2-1.7,2.1-12.1,14.8-21L156,24.6L156,24.6L156,24.6z"/>
</svg>
