<?xml version="1.0" encoding="utf-8"?>
<!-- Generator: Adobe Illustrator 22.1.0, SVG Export Plug-In . SVG Version: 6.00 Build 0)  -->
<svg version="1.1" id="Layer_1" xmlns="http://www.w3.org/2000/svg" xmlns:xlink="http://www.w3.org/1999/xlink" x="0px" y="0px"
	 viewBox="0 0 300.1 37.2" style="enable-background:new 0 0 300.1 37.2;" xml:space="preserve">
<style type="text/css">
	.st0{fill:#FFFFFF;}
</style>
<title>Untitled-2</title>
<path class="st0" d="M0,1.2c0-0.6,0.4-1,1-1h12c6.3-0.2,11.5,4.7,11.7,11s-4.7,11.5-11,11.7c-0.2,0-0.4,0-0.7,0H6.7v12
	c0,0.6-0.4,1-1,1H1c-0.6,0-1-0.4-1-1L0,1.2z M12.6,16.7c2.9,0,5.3-2.4,5.3-5.3c0,0,0,0,0-0.1c-0.1-2.8-2.4-5-5.2-5c0,0,0,0,0,0H6.7
	v10.3H12.6z"/>
<path class="st0" d="M21.5,34.7L35.6,4.2c0.1-0.3,0.4-0.5,0.8-0.5h0.5c0.3,0,0.7,0.2,0.8,0.5l14,30.6c0.2,0.4,0.1,0.9-0.3,1.1
	c-0.1,0.1-0.3,0.1-0.5,0.1h-4c-0.6,0-1.1-0.3-1.3-0.9l-2.2-4.9H29.8L27.6,35c-0.2,0.6-0.7,0.9-1.3,0.9h-4c-0.4,0-0.8-0.3-0.9-0.7
	C21.4,35.1,21.4,34.9,21.5,34.7z M41.1,25.1l-4.5-10h-0.1l-4.5,10H41.1z"/>
<path class="st0" d="M54.9,5c0-0.5,0.4-0.9,0.9-0.9l0,0h13c5.4,0,9.9,4.3,9.9,9.8c0,4.2-2.8,7.6-6.7,9.2l6.2,11.5
	c0.3,0.4,0.1,0.9-0.3,1.2c-0.2,0.1-0.3,0.1-0.5,0.1h-4.8c-0.3,0-0.6-0.1-0.7-0.4l-6-12h-5v11.5c0,0.5-0.4,0.8-0.9,0.9h-4.3
	c-0.5,0-0.9-0.4-0.9-0.9l0,0L54.9,5z M68.2,18.6c2.5-0.1,4.5-2.1,4.5-4.6c-0.1-2.4-2.1-4.4-4.5-4.4h-7.4v9L68.2,18.6z"/>
<path class="st0" d="M88.5,9.6h-7c-0.5,0-0.9-0.4-0.9-0.9c0,0,0,0,0,0V5c0-0.5,0.4-0.9,0.9-0.9l0,0h19.9c0.5,0,1,0.9,1,0.9l2.5,3.7
	c0,0.5-0.4,0.9-0.9,0.9l0,0h-9.6v25.5c0,0.5-0.4,0.8-0.9,0.9h-4.2c-0.5,0-0.8-0.4-0.9-0.9V9.6z"/>
<path class="st0" d="M115.9,20.6L105.6,5.4c-0.3-0.4-0.2-0.9,0.2-1.2c0.2-0.1,0.3-0.2,0.5-0.2h4.6c0.3,0,0.6,0.2,0.7,0.4l7.3,10.4
	l7.3-10.5c0.2-0.2,0.4-0.4,0.7-0.4h4.7c0.5,0,0.9,0.3,0.9,0.8c0,0.2,0,0.4-0.2,0.5l-10.5,15.1v14.5c0,0.5-0.4,0.8-0.9,0.9h-4.2
	c-0.5,0-0.9-0.4-0.9-0.9l0,0V20.6z"/>
<path class="st0" d="M281.6,0.5c10.1,0,18.4,8.2,18.4,18.3s-8.2,18.4-18.3,18.4c-10.1,0-18.4-8.2-18.4-18.3c0,0,0,0,0,0
	C263.3,8.8,271.4,0.5,281.6,0.5C281.6,0.5,281.6,0.5,281.6,0.5z M281.6,30.6c6.5,0,11.8-5.2,11.8-11.7c0-6.5-5.2-11.8-11.7-11.8
	c-6.5,0-11.8,5.2-11.8,11.7c0,0,0,0.1,0,0.1C270,25.3,275.2,30.5,281.6,30.6L281.6,30.6z"/>
<path class="st0" d="M162.6,35.1l14.1-30.6c0.1-0.3,0.4-0.5,0.8-0.5h0.4c0.3,0,0.7,0.2,0.8,0.5l14,30.6c0.2,0.4,0.1,0.9-0.3,1.1
	c-0.1,0.1-0.3,0.1-0.5,0.1H188c-0.6,0-1.1-0.3-1.3-0.9l-2.2-4.9h-13.6l-2.2,4.9c-0.2,0.6-0.7,0.9-1.3,0.9h-4c-0.4,0-0.8-0.3-0.8-0.8
	C162.6,35.3,162.6,35.2,162.6,35.1z M182.3,25.4l-4.6-10h-0.1l-4.4,10H182.3z"/>
<path class="st0" d="M193.7,31.8l1.6-2.8c0.2-0.5,0.8-0.7,1.3-0.5c0.1,0,0.1,0.1,0.2,0.1c0.2,0.1,3.9,2.8,6.9,2.8
	c2.4,0,4.1-1.5,4.1-3.5c0-2.3-2-3.9-5.8-5.5c-4.3-1.7-8.5-4.4-8.5-9.8c0-4,3-8.7,10.2-8.7c3.3,0,6.4,1.1,9.1,3
	c0.5,0.4,0.6,1,0.3,1.5l-1.7,2.6c-0.3,0.6-1,0.8-1.6,0.5c-0.4-0.2-3.8-2.5-6.3-2.5s-4,1.7-4,3.2c0,2.1,1.7,3.6,5.4,5.1
	c4.4,1.8,9.5,4.4,9.5,10.3c0,4.7-4,9-10.4,9c-3.7,0.1-7.2-1.2-10-3.5C193.5,32.7,193.3,32.5,193.7,31.8z"/>
<path class="st0" d="M219.7,5.3c0-0.5,0.4-0.8,0.9-0.9h4.2c0.5,0,0.8,0.4,0.9,0.9v30.1c0,0.5-0.4,0.8-0.9,0.9h-4.2
	c-0.5,0-0.8-0.4-0.9-0.9V5.3z"/>
<path class="st0" d="M233.4,4.8c0-0.5,0.4-0.8,0.9-0.8h1.1L254.4,24l0,0V5.2c0-0.5,0.4-0.9,0.9-0.9h4.2c0.5,0,0.8,0.4,0.9,0.9v30.6
	c0,0.5-0.4,0.8-0.9,0.8h-1.1l-19-20.8h0v19.5c0,0.5-0.4,0.9-0.9,0.9h-4.1c-0.5,0-0.8-0.4-0.9-0.9L233.4,4.8z"/>
<path class="st0" d="M161.4,26.3c-0.6,0.5-4.3,3.7-8.5,4.3l0,0c-0.6,0.1-1.3,0.2-1.9,0.2c-6.5,0-11.4-6.1-11.4-12.5
	s4.8-11.9,11.4-11.9c2.9,0,5.7,1.1,7.9,3c0.3,0.4,0.8,0.4,1.2,0.1c0,0,0.1-0.1,0.1-0.1l3.1-3.2c0.4-0.4,0.4-1,0-1.4c0,0,0,0,0,0
	c-3.3-3.2-7.8-4.9-12.4-4.7c-10.1,0-18.4,8.2-18.4,18.4c0,10.1,8.2,18.4,18.4,18.4c0,0,0,0,0,0c6.7,0,8.7-2.4,8.7-2.4
	s3.3-6.5,3.6-7.3S163.2,25.1,161.4,26.3z"/>
</svg>
