<svg xmlns="http://www.w3.org/2000/svg" id="PartySports_WhiteTeal" viewBox="0 0 779.49 115.99"><defs><style>.cls-1{fill:#00dbc6}.cls-2{fill:#fff}</style></defs><path d="M75.09 17.31c-8.41 3.59-15.57 7.73-19.5 13.26-5.3-6.73-11.43-11.43-18.64-13.63 5.7-2.48 12-3.85 18.64-3.85a45.93 45.93 0 0 1 19.5 4.22M74.94 53.77c-4.01 7.06-6.3 14.66-6.82 22.78-8.06-2.33-16.17-2.33-24.26 0-.77-8.47-2.68-16.27-6.78-22.78 7.52-3.02 13.51-7.76 18.5-13.63 5.01 5.65 11.52 10.15 19.36 13.63M21.46 27.91c.72 9.12 2.35 17.21 6.35 22.71-8.07 2.88-14.48 7.19-18.86 13.32-.53-6.19.18-12.6 2.3-18.9A45.873 45.873 0 0 1 21.47 27.9M90.52 28.84c4.37 4.84 7.78 10.71 9.82 17.36 1.97 6.35 2.55 12.76 1.87 18.94-4.24-6.24-10.55-10.69-18.56-13.75 4.13-5.39 5.94-13.45 6.86-22.55M96.99 82.24a45.61 45.61 0 0 1-12.74 15.35c-5.23 4.1-11.02 6.92-17.05 8.48 4.32-6.18 6.23-13.66 6.26-22.23 6.52 1.92 14.69.76 23.53-1.6M14.24 82.56c8.85 2.3 17.05 3.4 23.54 1.42.09 8.57 2.06 16.04 6.43 22.18-6.03-1.53-11.85-4.3-17.11-8.34a46.112 46.112 0 0 1-12.85-15.26" class="cls-1"/><path d="M55.46 115.99C24.88 115.99 0 91.1 0 60.52S24.88 5.06 55.46 5.06s55.46 24.88 55.46 55.46-24.87 55.46-55.46 55.46m0-106.25c-28 0-50.78 22.79-50.78 50.79s22.79 50.79 50.79 50.79 50.79-22.79 50.79-50.79S83.48 9.73 55.46 9.73M516.88 10.16c21.75 0 32.35 12.23 32.35 36s-11.28 36.95-29.5 36.95c-4.62 0-9.38-1.36-12.5-2.99v23.07c0 3.54-2.87 6.41-6.42 6.41h-11.82a.66.66 0 0 1-.66-.66V15.4c0-.29.19-.55.46-.63 10.46-3.29 21.25-4.61 28.08-4.61m13.18 37.09c0-12.63-3.13-22.14-14-22.14-3.26 0-6.52.68-8.84 1.36v39.12c2.45 1.9 6.8 2.72 10.47 2.72 8.43 0 12.37-7.61 12.37-21.06M628.45 12.05h14.2c.32 0 .6.23.65.55l1.19 7.14c.11.63.94.75 1.24.18 3.5-6.71 9.69-9.91 15.43-9.91 3.79 0 7.83.88 10.67 2.39.21.11.34.34.34.58v15.1c0 .48-.5.8-.93.6-2.69-1.26-6.07-2.64-11.84-2.64-6.66 0-11.01 4.89-11.28 12.09v42.14c0 .36-.29.66-.66.66h-17.72a.66.66 0 0 1-.66-.66V23.98l-1.27-11.19c-.04-.39.26-.73.65-.73M681.17 60.48V.7c0-.36.29-.66.66-.66h11.96c3.54 0 6.42 2.87 6.42 6.41v7.3h14.23c.56 0 1.07.36 1.25.9l4.09 12.18c.28.85-.35 1.73-1.25 1.73h-18.32v31.38c0 8.02 3.67 10.33 8.7 10.33 2.94 0 5.54-.99 7.62-2.18.35-.2.8-.05.94.33l4.03 10.99c.11.29 0 .62-.27.79-4.25 2.57-11.07 4.47-17.76 4.47-20.53 0-22.29-11.82-22.29-24.18M557.01 46.59c0-28.57 18.19-36.91 32.69-36.91 10.4 0 30.64 3.14 30.64 34.86 0 26.11-14.36 38.55-32.83 38.55S557 71.33 557 46.59Zm43.77.14c0-14.63-3.01-23.1-12.04-23.1-8.35 0-12.17 8.48-12.17 20.78s1.64 24.74 12.04 24.74c8.62 0 12.17-8.48 12.17-22.42ZM428.1 74.54l3.86-10.05a1.88 1.88 0 0 1 2.68-.97c4.93 2.76 12.23 5.72 18.36 5.72 4.65 0 8.48-2.32 8.48-7.25 0-5.33-4.65-6.97-10.4-8.75-10.12-3.01-21.48-6.42-21.48-20.78s12.18-22.69 25.99-22.69c9.77 0 18.48 3.53 24.6 8.73.79.67.92 1.84.27 2.64l-6.61 8.23c-.63.78-1.78.95-2.58.35-5.13-3.85-10.23-6.14-14.86-6.14s-8.21 2.32-8.21 6.97c0 5.06 4.65 6.97 10.94 9.02 9.99 3.28 21.2 6.97 21.2 21.05s-10.81 22.56-26.67 22.56c-11 0-20.33-3.57-24.85-6.38-.76-.47-1.06-1.43-.74-2.27ZM726.7 74.54l3.86-10.05a1.88 1.88 0 0 1 2.68-.97c4.93 2.76 12.23 5.72 18.36 5.72 4.65 0 8.48-2.32 8.48-7.25 0-5.33-4.65-6.97-10.4-8.75-10.12-3.01-21.48-6.42-21.48-20.78s12.18-22.69 25.99-22.69c9.77 0 18.48 3.53 24.6 8.73.79.67.92 1.84.27 2.64l-6.61 8.23c-.63.78-1.78.95-2.58.35-5.13-3.85-10.23-6.14-14.86-6.14s-8.21 2.32-8.21 6.97c0 5.06 4.65 6.97 10.94 9.02 9.99 3.28 21.2 6.97 21.2 21.05s-10.81 22.56-26.67 22.56c-11 0-20.33-3.57-24.85-6.38-.76-.47-1.06-1.43-.74-2.27Z" class="cls-1"/><path d="M156.8 10.07c21.75 0 32.35 12.23 32.35 36s-11.28 36.95-29.5 36.95c-4.62 0-9.38-1.36-12.5-2.99v23.07c0 3.54-2.87 6.41-6.42 6.41h-11.82a.66.66 0 0 1-.66-.66V15.31c0-.29.19-.55.46-.63 10.46-3.29 21.25-4.61 28.08-4.61m13.18 37.09c0-12.63-3.13-22.14-14-22.14-3.26 0-6.52.68-8.84 1.36V65.5c2.45 1.9 6.8 2.72 10.47 2.72 8.43 0 12.37-7.61 12.37-21.06M194.76 49.6c0-23.91 12.23-39.53 36.02-39.53 4.62 0 14.82 1.22 25.01 5.03v52.16l1.29 13c.04.39-.27.72-.65.72h-9.96c-3.16 0-5.85-2.3-6.34-5.42l-.24-1.51-.54-.14c-3.67 5.43-9.52 9.24-17.94 9.24-20.66 0-26.64-15.9-26.64-33.55m42.27 9.65v-34.1c-1.9-.81-5.03-1.49-8.56-1.49-11.14 0-14.95 11.55-14.95 24.86 0 10.87 2.45 20.78 12.23 20.78 7.2 0 11.28-5.03 11.28-10.05M265.18 12.11h14.2c.32 0 .6.23.65.55l1.19 7.14c.11.63.94.75 1.24.18 3.5-6.71 9.69-9.91 15.43-9.91 3.79 0 7.83.88 10.67 2.39.21.11.34.34.34.58v15.1c0 .48-.5.8-.93.6-2.69-1.26-6.07-2.64-11.84-2.64-6.66 0-11.01 4.89-11.28 12.09v42.14c0 .36-.29.66-.66.66h-17.72a.66.66 0 0 1-.66-.66v-56.3l-1.27-11.19c-.04-.39.26-.73.65-.73M317.75 60.44V.66c0-.36.29-.66.66-.66h11.96c3.54 0 6.42 2.87 6.42 6.41v7.3h14.23c.56 0 1.07.36 1.25.9l4.09 12.18c.28.85-.35 1.73-1.25 1.73h-18.32V59.9c0 8.02 3.67 10.33 8.7 10.33 2.94 0 5.54-.99 7.62-2.18.35-.2.8-.05.94.33l4.03 10.99c.11.29 0 .62-.27.79-4.25 2.57-11.07 4.47-17.76 4.47-20.53 0-22.29-11.82-22.29-24.18" class="cls-2"/><path d="m352.92 105.31 4.06-12.3c.13-.38.55-.56.91-.38 3.09 1.52 6.69 3.05 11.22 3.05 5.68 0 8.24-2.03 11.08-9.19l2.57-6.49-22.95-66.98c-.15-.42.17-.87.62-.87h14.26c2.86 0 5.37 1.9 6.14 4.65l11.26 39.95h.27l11.26-39.95a6.372 6.372 0 0 1 6.14-4.65h14.9l-24.33 72.31c-5.81 17.84-13.65 26.49-28.65 26.49-6.93 0-14.1-2.27-18.48-4.87a.664.664 0 0 1-.28-.77" class="cls-2"/></svg>
