<?xml version="1.0" encoding="utf-8"?>
<!-- Generator: Adobe Illustrator 24.3.0, SVG Export Plug-In . SVG Version: 6.00 Build 0)  -->
<svg version="1.1" id="Layer_1" xmlns="http://www.w3.org/2000/svg" xmlns:xlink="http://www.w3.org/1999/xlink" x="0px" y="0px"
	 viewBox="0 0 301 40.9" style="enable-background:new 0 0 301 40.9;" xml:space="preserve">
<style type="text/css">
	.st0{fill:#FFFFFF;}
</style>
<path class="st0" d="M0,1.1C0,0.5,0.5,0,1.1,0h13.7C22,0,27.9,5.8,27.9,12.9c0,7.2-5.9,13.1-13,13.1H7.6v13.7c0,0.6-0.5,1.1-1.1,1.1
	H1.1c-0.6,0-1.1-0.5-1.1-1.1V1.1z M14.4,18.9c3.3,0,6-2.6,6-6.1c0-3.2-2.7-5.7-6-5.7H7.6v11.7L14.4,18.9L14.4,18.9z M24.6,39.5
	l16.2-35C40.9,4.2,41.1,4,41.6,4h0.5c0.5,0,0.7,0.3,0.9,0.6l16,35c0.3,0.7-0.1,1.3-0.9,1.3h-4.5c-0.8,0-1.1-0.3-1.5-1l-2.6-5.6H34
	l-2.5,5.6c-0.2,0.5-0.7,1-1.5,1h-4.5C24.7,40.9,24.3,40.2,24.6,39.5z M47,28.4L41.8,17h-0.2l-5.1,11.4H47z M62.7,5.5
	c0-0.5,0.4-1,1-1h14.9c6.2,0,11.3,5,11.3,11.2c0,4.8-3.2,8.7-7.7,10.5l7.1,13.2c0.4,0.7,0,1.5-0.9,1.5H83c-0.5,0-0.7-0.3-0.8-0.5
	l-6.9-13.8h-5.8v13.3c0,0.5-0.5,1-1,1h-4.8c-0.6,0-1-0.5-1-1L62.7,5.5L62.7,5.5z M78,21.1c2.8,0,5.1-2.4,5.1-5.3c0-2.8-2.4-5-5.1-5
	h-8.5v10.3H78z M101.2,10.7h-8c-0.6,0-1-0.5-1-1V5.5c0-0.5,0.4-1,1-1h22.7c0.6,0,1.1,1,1.1,1l2.9,4.3c0,0.5-0.4,1-1,1h-11v29.2
	c0,0.5-0.5,1-1,1h-4.8c-0.5,0-1-0.5-1-1L101.2,10.7L101.2,10.7z M132.6,23.3L120.7,6c-0.4-0.7,0-1.5,0.8-1.5h5.3
	c0.4,0,0.7,0.3,0.8,0.5l8.3,12l8.3-12c0.2-0.2,0.4-0.5,0.8-0.5h5.4c0.8,0,1.3,0.8,0.8,1.5l-12,17.3v16.6c0,0.5-0.5,1-1,1h-4.8
	c-0.6,0-1-0.5-1-1L132.6,23.3L132.6,23.3z M224.4,4.9c10,0,18,8,18,18s-8,17.9-18,17.9c-10,0-17.9-7.9-17.9-17.9
	C206.4,12.9,214.4,4.9,224.4,4.9z M224.4,34.4c6.3,0,11.5-5.2,11.5-11.4s-5.2-11.5-11.5-11.5c-6.3,0-11.4,5.3-11.4,11.6
	C213,29.2,218.1,34.4,224.4,34.4z M154.8,34.8l2-3.5c0.5-0.8,1.4-0.8,1.9-0.4c0.3,0.2,4.9,3.5,8.6,3.5c2.9,0,5.2-1.9,5.2-4.4
	c0-2.9-2.4-4.9-7.2-6.8C160,21,154.6,17.6,154.6,11c0-5,3.7-10.9,12.7-10.9c5.8,0,10.2,2.9,11.3,3.8c0.6,0.3,0.7,1.3,0.3,1.9
	L176.9,9c-0.5,0.7-1.3,1.1-2,0.7c-0.5-0.3-4.8-3.1-7.9-3.1c-3.2,0-5,2.2-5,4c0,2.7,2.1,4.5,6.7,6.3c5.5,2.2,11.8,5.5,11.8,12.8
	c0,5.8-5,11.2-13,11.2c-7.1,0-11.3-3.3-12.5-4.4C154.6,35.9,154.3,35.7,154.8,34.8z M275.2,34.8l2-3.5c0.5-0.8,1.4-0.8,1.9-0.4
	c0.3,0.2,4.9,3.5,8.6,3.5c2.9,0,5.2-1.9,5.2-4.4c0-2.9-2.4-4.9-7.2-6.8c-5.3-2.1-10.6-5.5-10.7-12.2c0-5,3.7-10.9,12.7-10.9
	c5.8,0,10.2,2.9,11.3,3.8c0.6,0.3,0.7,1.3,0.3,1.9L297.3,9c-0.5,0.7-1.3,1.1-2,0.7c-0.5-0.3-4.8-3.1-7.9-3.1c-3.2,0-5,2.2-5,4
	c0,2.7,2.1,4.5,6.7,6.3c5.5,2.2,11.8,5.5,11.8,12.8c0,5.8-5,11.2-13,11.2c-7.1,0-11.3-3.3-12.5-4.4C275,35.9,274.7,35.7,275.2,34.8z
	 M260.8,40.9h-5.6c-0.4,0-0.8-0.4-0.8-0.8V11.1h-9.6c-0.4,0-0.8-0.4-0.8-0.8V5.7c0-0.4,0.4-0.8,0.8-0.8h27.8c0.5,0,0.9,0.5,0.8,1
	l-1.2,4.7c-0.1,0.3-0.4,0.6-0.8,0.6h-9.8v28.9C261.6,40.5,261.2,40.9,260.8,40.9z M184.1,5.8c0-0.5,0.4-1,1-1h4.7c0.5,0,1,0.5,1,1
	v28.8h13.1c0.6,0,1,0.5,1,1v4.2c0,0.5-0.4,1-1,1h-18.8c-0.6,0-1-0.5-1-1L184.1,5.8L184.1,5.8z"/>
</svg>
