<svg width="122" height="24" viewBox="0 0 122 24" fill="none" xmlns="http://www.w3.org/2000/svg">
<path d="M25.7761 5.37061C29.7222 5.37061 31.647 7.59078 31.647 11.9086C31.647 16.2746 29.5996 18.6173 26.2945 18.6173C25.4566 18.6173 24.5927 18.3702 24.0241 18.0748V22.264C24.0241 22.907 23.5037 23.4274 22.8587 23.4274H20.7129C20.6466 23.4274 20.5944 23.3731 20.5944 23.3088V6.32297C20.5944 6.27073 20.6285 6.22452 20.6787 6.20845C22.5774 5.6097 24.5364 5.37061 25.7761 5.37061ZM28.1691 12.1055C28.1691 9.81096 27.6025 8.08505 25.6274 8.08505C25.0347 8.08505 24.444 8.20761 24.0241 8.33218V15.4347C24.4681 15.7803 25.2577 15.929 25.9228 15.929C27.4538 15.929 28.1691 14.5467 28.1691 12.1055Z" fill="white"/>
<path d="M32.0851 12.5495C32.0851 8.20761 34.3053 5.37061 38.6231 5.37061C39.4609 5.37061 41.3114 5.59162 43.1619 6.28278V15.7542L43.3949 18.115C43.4009 18.1853 43.3467 18.2456 43.2764 18.2456H41.4681C40.8955 18.2456 40.4072 17.8277 40.3168 17.2611L40.2746 16.9878L40.1762 16.9637C39.5111 17.9503 38.4503 18.6414 36.9192 18.6414C33.1701 18.6414 32.0851 15.7562 32.0851 12.5495ZM39.7562 14.3015V8.10916C39.4107 7.96047 38.8441 7.83791 38.2031 7.83791C36.1799 7.83791 35.4887 9.93553 35.4887 12.3526C35.4887 14.3256 35.9327 16.1259 37.7089 16.1259C39.0169 16.1259 39.7562 15.2137 39.7562 14.3015Z" fill="white"/>
<path d="M43.7023 5.7403H46.2801C46.3384 5.7403 46.3886 5.78249 46.3986 5.84076L46.6136 7.1367C46.6317 7.25122 46.7844 7.27132 46.8387 7.16885C47.4756 5.95127 48.5987 5.37061 49.6375 5.37061C50.3246 5.37061 51.058 5.52933 51.5744 5.80459C51.6125 5.82469 51.6367 5.86688 51.6367 5.91108V8.65365C51.6367 8.74206 51.5462 8.79831 51.4679 8.76215C50.9796 8.5331 50.3668 8.28195 49.318 8.28195C48.1085 8.28195 47.3189 9.17002 47.2706 10.478V18.1291C47.2706 18.1954 47.2164 18.2476 47.1521 18.2476H43.9374C43.8711 18.2476 43.8188 18.1934 43.8188 18.1291V7.91828C43.8188 7.91426 43.8188 7.91024 43.8188 7.90422L43.5878 5.87291C43.5757 5.80259 43.632 5.7403 43.7023 5.7403Z" fill="white"/>
<path d="M52.0787 14.2272V3.37147C52.0787 3.30517 52.133 3.25293 52.1972 3.25293H54.3672C55.0101 3.25293 55.5305 3.77331 55.5305 4.41827V5.74234H58.1124C58.2148 5.74234 58.3052 5.80864 58.3394 5.90508L59.0808 8.11722C59.133 8.27193 59.0185 8.43267 58.8538 8.43267H55.5285V14.1308C55.5285 15.5855 56.1936 16.0054 57.1078 16.0054C57.6402 16.0054 58.1144 15.8266 58.4901 15.6096C58.5544 15.5734 58.6348 15.6015 58.6609 15.6698L59.3922 17.665C59.4123 17.7172 59.3922 17.7775 59.344 17.8076C58.5725 18.2758 57.3348 18.6194 56.1212 18.6194C52.4002 18.6173 52.0787 16.4715 52.0787 14.2272Z" fill="white"/>
<path d="M57.5116 22.7442L58.253 20.4979C58.2751 20.4296 58.3534 20.3955 58.4197 20.4276C58.9843 20.7049 59.6413 20.9842 60.4671 20.9842C61.5039 20.9842 61.972 20.6145 62.4904 19.3065L62.9585 18.123L58.7693 5.89701C58.7432 5.81865 58.7995 5.73828 58.8819 5.73828H61.4838C62.0042 5.73828 62.4623 6.08587 62.6049 6.58617L64.6603 13.8776H64.7106L66.766 6.58617C66.9066 6.08387 67.3647 5.73828 67.8871 5.73828H70.6076L66.1673 18.9348C65.1064 22.1917 63.6758 23.7689 60.9373 23.7689C59.6735 23.7689 58.3635 23.353 57.5638 22.8808C57.5156 22.8567 57.4955 22.7985 57.5116 22.7442Z" fill="white"/>
<path d="M76.6995 4.82812C80.8445 4.82812 82.6548 7.13671 82.6548 11.571C82.6548 16.136 80.6356 18.6033 77.3545 18.6033C76.0425 18.6033 74.835 18.1833 73.9972 17.6067V23.7468H71.9498V5.61573C73.7601 5.08932 75.3875 4.82812 76.6995 4.82812ZM80.6074 11.8583C80.6074 9.05148 79.9243 6.53193 76.6453 6.53193C75.7532 6.53193 74.7305 6.71477 73.9951 6.97798V15.714C74.7044 16.4233 76.0948 16.8954 77.2219 16.8954C79.1387 16.8974 80.6074 15.5071 80.6074 11.8583Z" fill="#FC4C02"/>
<path d="M83.1551 11.6233C83.1551 6.19238 86.3819 4.82812 88.9798 4.82812C90.7901 4.82812 94.3585 5.40477 94.3585 11.3339C94.3585 16.4494 91.8389 18.6013 88.5338 18.6013C85.2025 18.6013 83.1551 16.3449 83.1551 11.6233ZM92.287 11.78C92.287 8.63156 91.3688 6.45358 88.8231 6.45358C86.3578 6.45358 85.2286 8.52708 85.2286 11.3601C85.2286 13.958 85.7269 17.028 88.7186 17.028C91.1839 17.028 92.287 14.6411 92.287 11.78Z" fill="#FC4C02"/>
<path d="M96.8519 0V14.7717H96.9041L102.807 5.22193H104.959L101.391 10.9422L104.933 18.2356H102.807L100.079 12.7263L96.6409 18.2356H94.8568V0H96.8519Z" fill="#FC4C02"/>
<path d="M103.561 11.9126C103.561 8.0288 105.739 4.82812 109.649 4.82812C112.088 4.82812 113.48 6.14014 113.48 8.08103C113.48 12.3566 108.049 12.6982 105.61 12.6198C105.715 14.7456 106.737 16.9758 109.494 16.9758C111.278 16.9758 112.379 16.136 112.851 15.7683L113.639 17.1586C112.984 17.7092 111.487 18.6013 109.389 18.6013C105.293 18.6013 103.561 15.8205 103.561 11.9126ZM111.535 8.31812C111.535 7.08447 110.721 6.35111 109.542 6.35111C106.735 6.35111 105.658 9.00125 105.58 11.0466C106.996 11.1511 111.535 10.9663 111.535 8.31812Z" fill="#FC4C02"/>
<path d="M113.938 5.19581H115.722L115.959 7.16283C116.458 5.82469 117.744 4.82812 119.238 4.82812C120.078 4.82812 120.84 5.03708 121.312 5.32641L120.788 7.05835C120.289 6.76902 119.632 6.56006 118.977 6.56006C117.298 6.56006 116.249 8.08103 116.17 9.83909V18.2356H114.125V6.97999L113.938 5.19581Z" fill="#FC4C02"/>
<path d="M7.87811 4.67539C7.87811 4.67539 7.34969 8.95501 0 14.181C7.34969 19.4069 7.87811 24 7.87811 24C7.87811 24 8.40653 19.4049 15.7562 14.181C8.40653 8.95501 7.87811 4.26953 7.87811 4.26953V4.67539ZM7.87811 18.7238V9.63814C8.91084 11.2556 10.2128 12.7846 11.7398 14.181C10.2128 15.5774 8.91084 17.1064 7.87811 18.7238Z" fill="#FC4C02"/>
</svg>
