<svg width="114" height="18" viewBox="0 0 114 18" fill="none" xmlns="http://www.w3.org/2000/svg">
<path d="M13.1343 0.972229C12.9447 0.972229 0.350133 0.972229 0.350133 0.972229C0.258984 1.47428 0.436942 1.92713 1.4121 2.16586C2.23824 2.36552 3.73715 2.77352 3.83408 2.77207C0.827583 13.8302 0.202555 16.216 0 16.9698C0 16.9698 0.117193 16.9698 0.963586 16.9698C2.79382 16.9698 3.73281 16.1234 4.03954 14.9312C4.31299 13.8707 5.04508 11.1723 5.04508 11.1723H10.4663C13.7087 11.1723 16.0163 7.66089 16.0163 4.28256C16.0163 1.41206 14.5478 0.972229 13.1343 0.972229ZM11.1651 8.34524C10.9134 8.59699 10.5011 8.5941 10.5083 8.59265H5.72653L7.00987 3.79498H11.7251C11.7251 3.79498 12.285 3.78485 12.4152 4.48512C12.6091 5.77568 12.1461 7.36429 11.1651 8.34524Z" fill="#1E5091"/>
<path fill-rule="evenodd" clip-rule="evenodd" d="M18.8291 0.972335C18.8291 0.972335 18.913 0.972335 19.5858 0.972335C20.8821 0.972335 21.5867 1.43676 21.8877 2.44954C22.1264 3.24529 24.4601 11.1724 24.4601 11.1724C24.4601 11.1724 31.6118 2.32222 31.946 1.91855C32.4842 1.26459 33.5765 0.978119 35.0263 0.978119H35.9797C35.5471 2.58409 32.2368 14.7374 32.1818 14.9472C31.8751 16.1408 31.101 16.9684 29.2708 16.9684C28.763 16.9684 28.2913 16.9626 28.2913 16.9626C28.3969 16.5344 30.7885 7.83462 30.7885 7.83462C30.7885 7.83462 25.6971 14.2325 25.1531 14.8864C24.8247 15.2843 24.5151 15.4145 23.8958 15.4507C23.6629 15.4637 23.3851 15.4507 23.0466 15.4507C22.5214 15.4507 22.2812 15.3523 22.1264 14.8112C21.9311 14.1399 20.0936 7.87802 20.0936 7.87802C20.0936 7.87802 19.8607 8.93565 19.5655 10.0367C18.9303 12.4037 18.4963 14.014 18.2431 14.9371C17.9219 16.122 17.0784 16.9728 15.3668 16.9728C14.5754 16.9728 14.451 16.9728 14.451 16.9728L18.8291 0.972335Z" fill="#1E5091"/>
<path fill-rule="evenodd" clip-rule="evenodd" d="M50.2093 0.972335H51.0846C50.3858 3.60121 49.2124 7.89249 47.916 12.6091C47.1261 15.4869 44.4885 17.0277 40.1857 17.0277C36.2691 17.0277 34.3521 14.7447 35.022 12.3458C35.6238 10.1843 37.3065 3.8819 37.5423 3.00512C37.8707 1.78689 38.7924 0.973779 40.6197 0.973779H41.5978L38.3612 12.654C38.3381 12.7437 38.1514 13.266 38.6839 13.5915C39.1208 13.8577 39.8674 14.1688 40.9539 14.1688C42.4268 14.1688 43.4179 13.7492 43.9127 13.4715C44.2556 13.2805 44.3872 12.8493 44.422 12.7249C44.9703 10.7775 46.8859 3.90504 47.1348 3.00367C47.4661 1.78834 48.3819 0.972335 50.2093 0.972335Z" fill="#1E5091"/>
<path d="M66.2357 6.53678H65.4167L64.935 8.22233H65.7539C66.4888 8.22233 66.9649 7.99663 67.1341 7.38028C67.3164 6.75091 66.9706 6.53678 66.2357 6.53678Z" fill="#1E5091"/>
<path d="M67.292 0.975161H53.1883L53.116 1.24861C52.3723 4.03664 51.0962 8.69976 49.9431 12.8927C49.5423 14.3525 48.6106 15.9889 46.5402 17.0262H67.2934C70.9105 17.0262 74.079 14.6057 75.031 11.116C76.4258 6.00866 72.583 0.975161 67.292 0.975161ZM53.9349 12.8854C53.0697 12.8854 52.368 12.1837 52.368 11.3185C52.368 10.4533 53.0697 9.7516 53.9349 9.7516C54.8001 9.7516 55.5018 10.4533 55.5018 11.3185C55.5018 12.1837 54.8001 12.8854 53.9349 12.8854ZM58.9091 9.77619L58.0352 12.8854H56.231L58.436 5.05375H62.9573L62.5146 6.64382H59.7974L59.3619 8.18613H62.0791L61.6248 9.77619H58.9091ZM68.9963 7.3788C68.6925 8.47115 67.8924 9.16998 66.8695 9.49117L67.564 12.8854H65.618L65.0552 9.7053H64.5213L63.6243 12.8854H61.8201L64.025 5.05375H66.7422C68.4885 5.05375 69.4608 5.72942 68.9963 7.3788Z" fill="#1E5091"/>
<path d="M83.148 5.1573C84.0023 5.1573 84.6631 5.31848 85.1306 5.64085C85.6061 5.96322 85.8438 6.46289 85.8438 7.13987C85.8438 7.22046 85.8357 7.34941 85.8196 7.52671C85.7229 8.29234 85.3804 8.88067 84.7921 9.29169C84.2037 9.69465 83.4623 9.89613 82.5677 9.89613H81.6369L81.2379 13.1359H79.4004L80.3796 5.1573H83.148ZM83.9338 7.35747C83.9338 7.11569 83.8451 6.94242 83.6678 6.83765C83.4905 6.72482 83.2245 6.66841 82.8699 6.66841H82.0358L81.8182 8.38502H82.6523C83.0795 8.38502 83.3978 8.30846 83.6074 8.15534C83.825 7.99415 83.9338 7.7282 83.9338 7.35747Z" fill="#1E5091"/>
<path d="M89.357 13.2568C88.7606 13.2568 88.2328 13.1279 87.7734 12.87C87.3221 12.6121 86.9675 12.2333 86.7096 11.7336C86.4597 11.234 86.3348 10.6295 86.3348 9.92031C86.3348 9.63824 86.3509 9.38034 86.3832 9.14662C86.4879 8.28428 86.7257 7.54686 87.0964 6.93436C87.4752 6.3138 87.9467 5.84233 88.5108 5.51996C89.075 5.19759 89.6915 5.03641 90.3604 5.03641C90.9568 5.03641 91.4847 5.16939 91.9441 5.43534C92.4034 5.69324 92.7621 6.07605 93.02 6.58378C93.2779 7.09152 93.4068 7.69999 93.4068 8.4092C93.4068 8.67516 93.3907 8.92096 93.3584 9.14662C93.2537 10.009 93.0119 10.7504 92.6331 11.371C92.2543 11.9835 91.7788 12.4509 91.2066 12.7733C90.6344 13.0957 90.0179 13.2568 89.357 13.2568ZM89.5505 11.6369C90.034 11.6369 90.445 11.4274 90.7835 11.0083C91.1301 10.5812 91.3517 9.96061 91.4484 9.14662C91.4806 8.82425 91.4968 8.60665 91.4968 8.49382C91.4968 7.88938 91.3799 7.43403 91.1462 7.12778C90.9125 6.81347 90.5861 6.65632 90.167 6.65632C89.6834 6.65632 89.2724 6.86989 88.9339 7.29703C88.6035 7.71611 88.3899 8.33264 88.2932 9.14662C88.261 9.46899 88.2449 9.69062 88.2449 9.81151C88.2449 10.4079 88.3577 10.8632 88.5834 11.1776C88.8171 11.4838 89.1394 11.6369 89.5505 11.6369Z" fill="#1E5091"/>
<path d="M98.427 9.01365L100.603 13.1359H98.4995L96.4444 9.23125L95.9609 13.1359H94.0629L95.0421 5.1573H96.9401L96.4807 8.88067L99.5513 5.1573H101.606L98.427 9.01365Z" fill="#1E5091"/>
<path d="M104.265 6.7772L104.072 8.34876H106.84L106.635 9.96867H103.866L103.673 11.516H106.453L106.248 13.1359H101.642L102.621 5.1573H107.227L107.034 6.7772H104.265Z" fill="#1E5091"/>
<path d="M113.976 7.52671C113.911 8.06668 113.718 8.518 113.396 8.88067C113.081 9.24333 112.666 9.50929 112.15 9.67853L113.408 13.1359H111.425L110.337 9.89613H109.793L109.394 13.1359H107.557L108.536 5.1573H111.304C112.158 5.1573 112.819 5.31848 113.287 5.64085C113.762 5.96322 114 6.46289 114 7.13987C114 7.22046 113.992 7.34941 113.976 7.52671ZM109.974 8.38502H110.809C111.236 8.38502 111.554 8.30846 111.764 8.15534C111.981 7.99415 112.09 7.7282 112.09 7.35747C112.09 7.11569 112.001 6.94242 111.824 6.83765C111.647 6.72482 111.381 6.66841 111.026 6.66841H110.192L109.974 8.38502Z" fill="#1E5091"/>
</svg>
