<?xml version="1.0" encoding="utf-8"?>
<!-- Generator: Adobe Illustrator 22.1.0, SVG Export Plug-In . SVG Version: 6.00 Build 0)  -->
<svg version="1.1" id="Ebene_1" xmlns="http://www.w3.org/2000/svg" xmlns:xlink="http://www.w3.org/1999/xlink" x="0px" y="0px"
	 viewBox="0 0 1404.5 349.8" style="enable-background:new 0 0 1404.5 349.8;" xml:space="preserve">
<style type="text/css">
	.st0{fill:#FFFFFF;}
	.st1{fill:#FFCC00;}
</style>
<title>premium-logo</title>
<path class="st0" d="M210.7,148.7c-0.6,5.3-1.5,10.5-2.7,15.7c-7.7,36.9-20.2,64.1-37.5,81.4s-38.7,26.1-64.2,26.1
	c-5,0.1-10.1-0.5-15-1.6c-4.4-1.1-8.7-2.6-12.8-4.5c0.4,4.8,0.2,9.6-0.7,14.3c-1,5.7-1.8,10.4-2.5,14.3l-8,38.4L0,349.8l42.3-200.1
	c2-10.1,3.5-18.8,4.8-26.1c1.2-6.8,1.8-13.7,1.8-20.6c0-2.8-0.1-5.5-0.4-8.3c-0.2-2.6-0.6-5.4-1.1-8.3l56.4-10.5c0.8,3,1.4,6,1.8,9
	c0.5,3.6,0.9,7.4,1.1,11.2c6.7-5.2,13.8-9.7,21.4-13.4c9-4.6,19.8-6.9,32.3-6.9c9.8,0,18.1,1.6,24.7,4.7c6.2,2.8,11.7,7.1,15.9,12.5
	c4,5.4,6.9,11.5,8.3,18.1c1.6,7.1,2.4,14.3,2.4,21.5C211.6,137.9,211.3,143.3,210.7,148.7z M141.4,130.3c-1.7-2.5-4.6-3.8-8.9-3.8
	c-4.9-0.2-9.7,1.4-13.6,4.4c-3.7,2.9-7.5,7.5-11.5,13.8l-15.9,73.4c0.5,3.4,4,5.1,10.7,5.1c3.5,0,7.1-0.4,10.5-1.3
	c3.4-0.8,6.6-3,9.6-6.5c3-3.5,5.9-8.8,8.7-15.8s5.6-16.7,8.2-29.1c1.2-5.8,2.3-11.3,3.3-16.3c0.9-4.4,1.4-8.9,1.5-13.4
	C143.9,136.3,143.1,132.8,141.4,130.3z"/>
<path class="st0" d="M341.9,126.8c-3-0.8-6.1-1.1-9.2-1.1c-5-0.2-9.9,1.4-13.9,4.4c-3.7,2.9-7.7,7.4-11.8,13.5l-26.4,123.7h-63.3
	l24.4-113.6c1.7-8,3.1-15.1,4.2-21.4s1.9-12.1,2.4-17.4c0.5-4.9,0.7-9.8,0.5-14.7c-0.2-4.7-0.7-9.3-1.6-13.9l56.3-10.5
	c2.1,7,3.3,14.1,3.6,21.4c4.6-5.1,10.9-10,18.8-14.8c8.2-4.9,17.6-7.4,27.2-7.2c3.9-0.1,7.8,0.3,11.6,1.3c3.7,1,7.4,2.4,10.9,4.1
	L350,130.8C347.5,129,344.8,127.7,341.9,126.8z"/>
<path class="st0" d="M527.5,153.6c-4,8-10,15-17.9,21.2s-17.8,11-29.6,14.6s-25.4,5.4-40.7,5.4c-5.4,0-10.1-0.1-14.1-0.4
	c-2.8,0-5.5-0.4-8.2-1.1c-0.5,2.1-0.8,4.2-0.9,6.4c-0.1,2.3-0.2,4-0.2,5c0,9.4,1.9,15.6,5.8,18.9c3.9,3.3,10.7,4.8,20.4,4.8
	c8,0,16.8-1.7,26.3-5.1c9.4-3.2,18.2-7.8,26.4-13.4l12.3,39.1c-15.2,8.3-29.4,14.2-42.5,17.6s-24.5,5.2-34.2,5.2
	c-27,0-46.7-5.4-59.2-16.3c-12.4-10.9-18.6-28.3-18.6-52.5c-0.1-16.6,2.4-33.1,7.4-48.9c4.7-14.8,12-28.6,21.6-40.7
	c9.4-11.7,21.1-21.2,34.5-27.9c13.6-6.9,29.1-10.3,46.5-10.3c9.3,0,18.5,0.9,27.6,2.9c8,1.6,15.6,4.8,22.5,9.2
	c6.3,4.2,11.5,9.9,15.1,16.5c3.7,6.8,5.6,15,5.6,24.6C533.5,137.1,531.5,145.8,527.5,153.6z M456,118.9c-8,0-14.3,3-19,8.9
	s-7.9,13.8-9.9,23.7c2,1.2,6.3,1.9,13.1,1.9c3.6,0,7.3-0.4,10.8-1.3c3.4-0.8,6.6-2.2,9.5-4.1c2.7-1.8,5.1-4,6.9-6.7
	c1.8-2.7,2.8-5.9,2.7-9.1C470.2,123.3,465.5,118.9,456,118.9z"/>
<path class="st0" d="M812.3,119.4c-0.5,3.3-1.1,6.6-1.8,10l-29.3,137.9h-60.5l25.4-119.8c0.5-2.4,0.8-4.6,1.1-6.5s0.4-3.6,0.4-5.1
	c0-3.4-0.7-5.8-2.2-7.2s-4-2.2-7.6-2.2c-4.7-0.1-9.3,1.4-13,4.2c-3.6,2.8-7.5,7.2-11.6,13.2l-26.1,123.4h-59l25.4-119.8
	c0.9-4.2,1.5-8.4,1.8-12.7c0-2.9-0.7-5-2-6.4s-3.7-2-7.1-2c-4.7-0.1-9.2,1.3-13,4c-3.6,2.7-7.5,7.1-11.6,13.4l-26.4,123.4h-61.5
	l25-117.6c2-10.1,3.5-18.8,4.7-26.1c1.2-6.8,1.8-13.7,1.8-20.6c0-2.8-0.1-5.5-0.4-8.3c-0.2-2.6-0.6-5.4-1.1-8.3l56-10.5
	c0.5,2.4,1,5.5,1.5,9.2s0.8,7.3,1.1,10.7c6.9-5.9,14.7-10.7,23.2-14.1c9.9-4,20.5-5.9,31.1-5.8c10.9,0,19.1,2,24.8,6
	c5.4,3.7,9.7,8.8,12.5,14.7c7.3-6.6,15.9-11.7,25.1-15.2c9.6-3.6,19.7-5.4,29.9-5.4c7.2-0.1,14.5,0.7,21.5,2.5
	c5,1.3,9.7,3.8,13.6,7.2c3.3,2.9,5.7,6.7,7,10.9c1.3,4.2,2,8.6,2,13C813.1,112.8,812.8,116.1,812.3,119.4z"/>
<path class="st0" d="M820.8,267.2l39.1-183.8l64.4-5.8l-40.2,189.6H820.8z"/>
<path class="st0" d="M1093.4,226.7c-0.2,9.4,0.9,18.8,3.3,27.9l-59.1,21c-1.8-3.9-3.1-7.9-3.8-12.1c-1.1-5.2-1.9-8.9-2.4-11
	c-15.2,13-33.8,19.5-55.8,19.5c-5.7,0-11.5-0.5-17.1-1.6c-5.3-1-10.3-2.9-14.8-5.8c-4.3-2.8-7.9-6.6-10.3-11.2
	c-2.5-4.7-3.8-10.7-3.8-17.9c0.1-5.3,0.5-10.5,1.3-15.7c0.8-6.2,2.4-14.7,4.5-25.5L958.5,85l65.2-8.3l-26.4,123.8
	c-1.7,7.5-1.9,12.8-0.7,16.1s4.5,4.9,9.8,4.9c4.9,0.1,9.6-1.3,13.7-4c4.1-2.7,8.2-7.1,12.2-13.4L1057.7,85l65.1-8.3L1096.7,199
	C1094.7,208.1,1093.6,217.4,1093.4,226.7z"/>
<path class="st0" d="M1403.7,119.4c-0.5,3.3-1.1,6.6-1.8,10l-29.3,137.9h-60.4l25.3-119.7c0.5-2.4,0.8-4.6,1.1-6.5
	c0.3-1.7,0.4-3.4,0.4-5.1c0-3.4-0.7-5.8-2.2-7.2s-4-2.2-7.6-2.2c-4.7-0.1-9.3,1.4-13,4.2c-3.6,2.8-7.5,7.2-11.6,13.2l-26.1,123.4
	h-59l25.3-119.7c0.9-4.2,1.5-8.4,1.8-12.7c0-2.9-0.7-5-2-6.4s-3.7-2-7.1-2c-4.7-0.1-9.2,1.3-13,4c-3.6,2.7-7.5,7.1-11.6,13.4
	l-26.4,123.4H1125l25-117.6c1.9-10.1,3.5-18.8,4.7-26.1c1.2-6.8,1.8-13.7,1.8-20.6c0-2.8-0.1-5.5-0.4-8.3c-0.3-2.6-0.6-5.4-1.1-8.3
	l56-10.5c0.5,2.4,1,5.5,1.5,9.2s0.8,7.3,1.1,10.7c6.9-5.9,14.7-10.7,23.2-14.1c9.9-4,20.5-5.9,31.1-5.8c10.9,0,19.1,2,24.8,6
	c5.4,3.7,9.7,8.8,12.5,14.7c7.4-6.6,15.9-11.7,25.2-15.2c9.6-3.6,19.7-5.4,29.9-5.4c7.2-0.1,14.5,0.7,21.5,2.5
	c5,1.3,9.7,3.8,13.6,7.2c3.3,3,5.7,6.7,7.1,10.9c1.3,4.2,2,8.6,2,13C1404.4,112.8,1404.1,116.2,1403.7,119.4z"/>
<path class="st1" d="M937.5,32.4C937.5,14.6,921.9,0,902,0c-20.3,0-37,14.5-37,32.4s16.3,32.4,35.9,32.4
	C921.2,64.8,937.5,50.3,937.5,32.4L937.5,32.4z"/>
</svg>
