<svg version="1.1" id="Layer_1" xmlns="http://www.w3.org/2000/svg" x="0" y="0" viewBox="0 0 195.9 66.9" xml:space="preserve"><style>.st0{fill:#fff}</style><path class="st0" d="M126.9 38.8c-2.4-2.1-4.8-3.2-9-3.2-6.7 0-12.4 5.8-12.4 13 0 8.3 5.4 14.1 13.4 14.1 3.7 0 7.6-1.2 10.7-3-1.5 3.8-6.2 6.6-10.7 6.6-10.8 0-17.9-6.9-17.9-17 0-10.3 7.1-17.1 17.1-17.1 3 0 6 .5 8.9 1.2l-.1 5.4c.1 0 0 0 0 0z"/><path class="st0" d="M141.1 62.7c2.8.2 5.3-.8 7.3-2.6h.1l-2.2 5.6h-17v-.1c2.1-.8 1.9-3.9 1.9-5.8V43.9c0-1.9.2-5-1.9-5.8V38h7.9v.1c-2.1.8-1.8 3.9-1.8 5.8v18.4l5.7.4zM167.2 62.9c-1.8 2.4-5.2 3.5-8.1 3.5-2.7 0-5.6-.9-7.5-2.9-2.2-2.4-2.1-5.3-2.1-8.3V43.9c0-1.9.3-5-1.8-5.8V38h7.9v.1c-2.1.8-1.8 3.9-1.8 5.8v11.3c0 5.6 2.3 8.2 6.6 8.2 2.3 0 4.7-1 6-3 .9-1.3.9-2.3.9-3.8V43.9c0-1.9.2-5-1.8-5.8V38h7.9v.1c-2.1.8-1.9 3.9-1.9 5.8v15.9c0 1.9-.3 5 1.9 5.8v.1h-6.1l-.1-2.8zM184.4 62.7c3.4.3 6.8-1.3 6.8-5.3 0-4.1-3.9-5.9-7.5-5.7l-2.9.2v10.4l3.6.4zm-2.2-13.5c2.7 0 6.5-.9 6.5-4.4 0-2.9-2.7-4.4-5.1-4.2l-2.8.3v8.3h1.4zm-5.6-5.3c0-1.9.3-5-1.8-5.8V38h9.8c5.5 0 8.7 2.4 8.7 6.1 0 2.8-1.8 4.4-4.1 5.5 3.7.8 6.7 3.3 6.7 7.5 0 3.3-2.2 6-5 7.4-2.9 1.4-6.2 1.3-9.3 1.3h-6.8v-.1c2.1-.8 1.8-3.9 1.8-5.8v-16z"/><g><path class="st0" d="M37.1 63.2c2.9.2 5.5-.8 7.6-2.6h.2l-2.2 5.7H25v-.1c2.2-.8 1.9-4 1.9-5.9V44c0-2 .3-5.1-1.9-5.9V38h8.2v.1c-2.2.8-1.9 4-1.9 5.9v18.8l5.8.4zM75.8 51.8c0 8.8-7.3 15.1-15.8 15.1S44.3 60.8 44.3 52c0-8.2 7.1-15 16.1-14.8 9.1 0 15.4 6.9 15.4 14.6zm-26.6-.2c0 6 4.3 12.2 11 12.2 6.5 0 10.7-4.8 10.7-11.2 0-6.3-4-12.3-10.8-12.3-6.6 0-10.9 4.8-10.9 11.3z"/><path class="st0" d="M86.6 60.7c0 2.5 0 4.1 2.2 5.5v.1h-8.5v-.1c2.2-.8 1.9-4 1.9-5.9V41.1h-3.8c-1.8 0-3.8.5-5.1 1.7h-.1l1.5-5.1h.1c.5.2 1.1.2 1.6.3h17.1c.7 0 1.4 0 2-.3h.1l-1.4 5.1h-.1c-.6-1.5-2.3-1.7-3.7-1.7h-3.9l.1 19.6z"/></g><g><path class="st0" d="M20.6 38.9c-1.9-2-5-3.1-7.7-3.1-2.8 0-7 1.4-7 4.8 0 6.8 16.9 6.6 16.9 15.7 0 5.3-4.9 10.2-12.6 10.2-3 0-6-.4-8.8-1.5L0 59.2c2.9 2.5 6.9 4.1 10.8 4.1 2.8 0 7-2 7-5.4C17.8 50.2.9 51.6.9 41.2c0-6.2 6.3-8.6 12.3-8.6 2.5 0 5 .3 7.3 1.1v5.2h.1z"/></g><linearGradient id="logo_1_" gradientUnits="userSpaceOnUse" x1="-1138.918" y1="44.547" x2="-1138.72" y2="43.27" gradientTransform="matrix(32.46 0 0 -20.7449 37065.188 924.489)"><stop offset="0" stop-color="#d0b083"/><stop offset="1" stop-color="#997643"/></linearGradient><path id="logo" d="M100.1 24.3c.9-.7 3.6-5 6-5.6 1.5-.2 2.4.1 4.5 1.3-1.2 3-4.2 5-7.5 5-1 0-2.1-.2-3-.7M86 13.7c0-2.9-.1-12 3.6-12 1.1.1 2.1.7 2.7 1.7-1.9 2.5-3 5.5-2.9 8.7 0 6.2 2.9 10.9 7.3 13-1.2.2-2.4.4-3.6.3-5.9 0-7.1-6-7.1-11.7M107.4 0c-.5.4-4.4 3.5-4.4 3.5-.8-1.9-2.1-3.4-4.2-3.4-2.2-.1-4.3.8-5.7 2.4-1-1.3-2.6-2.1-4.3-2.1-5.7 0-9.4 5.8-9.4 12 0 8.3 5.2 14 12.3 14 2.1.1 4.2-.3 6.2-.9 1.2.4 2.5.6 3.8.6 4 .2 7.7-2.1 9.3-5.8.4.3.9.6 1.3.9 3.3 2.8 7.6 1.8 8.6-.2 0 0-2.7 2.3-7.8-1.8-.4-.3-.9-.7-1.4-1 .1-.4.2-.7.3-1.1h-.5c-.1.3-.1.6-.3.8-1.8-1.1-4-1.4-6-.7-1.5.6-2.6 2.4-4.1 4.8-.5.7-1.1 1.3-1.7 1.8-1-.8-1.8-1.8-2.5-2.8-.9-1.5-1.6-3.5-1.6-7.8.1-6.2-.2-11.4 3.5-12 2.5 0 2.1 1.5 4.1 3.3 1.3 1.1 2.9 1.7 4.6 1.6 6.2-.3 7.3-4.1 7.3-4.1-.7.7-1.7 1.1-2.7 1.1-2-.2-3.8-1.4-4.7-3.1z" fill="url(#logo_1_)"/></svg>