<?xml version="1.0" encoding="UTF-8"?>
<svg id="Layer_2" data-name="Layer 2" xmlns="http://www.w3.org/2000/svg" viewBox="0 0 581.03 93.72">
  <defs>
    <style>
      .cls-1 {
        fill: #dd3735;
      }

      .cls-1, .cls-2 {
        stroke-width: 0px;
      }

      .cls-2 {
        fill: #fff;
      }
    </style>
  </defs>
  <g id="Layer_1-2" data-name="Layer 1">
    <g>
      <path class="cls-1" d="M293.78,4.91l-2.84,13.8c-.17.78-.85,1.33-1.65,1.33h-18.31c-1.07,0-1.87-.99-1.65-2.04l2.91-13.8c.17-.78.85-1.33,1.65-1.33h18.24c1.07,0,1.87.99,1.65,2.04Z"/>
      <path class="cls-2" d="M149.54,26.24c-18.48,0-29.47,7.67-32.69,22.8-1.66,7.8-.56,13.88,3.25,18.05,3.83,4.18,10.32,6.3,19.29,6.3s16.42-2.13,22.09-6.33c5.66-4.2,9.37-10.3,11.04-18.13,1.46-6.87.67-12.24-2.34-15.95-3.61-4.46-10.56-6.72-20.65-6.72ZM150.57,49.04c-.82,3.34-1.63,5.78-2.4,7.26-.89,1.7-2.02,2.94-3.37,3.7-.86.56-1.72.84-2.62.84-.07,0-.13-.01-.17-.02-.09,0-.15.02-.22.02-2.44,0-3.82-1.21-4.1-3.59-.21-1.67.15-4.41,1.12-8.35.79-3.23,1.69-5.62,2.67-7.11.78-1.18,1.81-2.03,3.07-2.52.74-.34,1.46-.5,2.2-.5.06,0,.11,0,.14.02.09,0,.14-.02.19-.02,1.43,0,2.51.46,3.22,1.37,1.26,1.6,1.35,4.52.27,8.9Z"/>
      <path class="cls-2" d="M287.46,27.15l-18.96.25c-.59,0-1.1.44-1.22,1.02l-8.8,42.56c-.07.37.02.76.27,1.05.24.29.6.46.98.45l19.06-.25c.59,0,1.1-.44,1.22-1.02l8.69-42.55c.07-.37-.02-.76-.27-1.05-.24-.29-.6-.46-.99-.45Z"/>
      <path class="cls-2" d="M318.43,72.29h18.13c.58,0,1.08-.41,1.2-.98l6.48-30.46c1.01-4.78.54-8.42-1.41-10.83-2.03-2.51-5.73-3.78-11.01-3.78s-9.69,1.57-13.05,4.67c-1.13,1.05-2.13,2.4-2.96,4.02,0,0-.31.58-.43.72-.2.22-.4.19-.5.16-.15-.06-.27-.2-.3-.38-.04-.27.05-.75.07-.84l1.33-5.77c.08-.36-.01-.74-.25-1.03-.23-.29-.58-.46-.96-.46h-17.56c-.58,0-1.09.41-1.21.98l-9.03,42.49c-.08.37.01.74.25,1.03s.58.46.96.46h18.09c.58,0,1.08-.41,1.21-.98l5.32-25.01c.42-1.97.89-3.35,1.43-4.2.9-1.54,3.04-2.23,4.76-2.23s3.55.72,3.87,2.33c.12.88-.03,2.29-.44,4.22l-5.18,24.38c-.08.37.01.74.25,1.03.23.29.58.46.95.46Z"/>
      <path class="cls-2" d="M3.4,59.2c-.21,0-.42.05-.62.14-.43.2-.75.6-.86,1.06L.04,69.32c-.09.4-.02.82.2,1.18.22.36.57.6.97.69,6.42,1.46,12.4,2.19,18.2,2.19,7.09,0,13.42-1.14,18.81-3.39,6.94-2.81,11.14-7.16,12.5-12.93,1.15-4.92-.34-8.36-4.58-10.53h0c-2.29-1.21-6.53-2.23-12.58-3.03-3.98-.49-6.12-1.15-6.75-2.05-.18-.26-.24-.55-.17-.85.53-2.27,3.59-3.38,9.35-3.38,4.1,0,8.41.65,12.82,1.93.42.12.87.06,1.24-.15.36-.21.6-.55.69-.96l1.99-9.06c.09-.42,0-.86-.25-1.21-.25-.36-.64-.59-1.07-.65-4.91-.6-9.54-.87-15.04-.87-18.49,0-29.06,5.11-31.43,15.18-1.18,5.04.29,8.6,4.5,10.88,2.17,1.15,6.38,2.28,12.51,3.38,3.73.61,5.88,1.4,6.56,2.41.23.34.3.71.21,1.09-.51,2.15-3.71,3.2-9.79,3.2s-10.87-1.02-14.91-3.04c-.19-.1-.4-.15-.62-.15Z"/>
      <path class="cls-2" d="M344.43,78.05l-2.48,11.33c-.16.64.2,1.28.81,1.46,6.61,1.91,13.82,2.88,21.43,2.88,18.32,0,30.36-9.14,33.89-25.74l8.33-39.19c.08-.36-.01-.72-.24-1.01-.23-.28-.57-.45-.94-.45h-17.51c-.56,0-1.06.4-1.18.95l-1.67,7.32c-.06.26-.24.57-.55.57-.11,0-.48-.05-.48-.65.02-3.08-.88-4.95-3.2-6.65-2.37-1.74-5.49-2.63-9.29-2.63-6.49,0-11.95,2.38-16.25,7.08-3.85,4.14-6.55,9.75-8.02,16.66-1.37,6.43-.95,11.69,1.24,15.64,2.35,4.43,6.74,6.67,13.07,6.67,5.6,0,10.58-1.99,14.8-5.91.43-.4,1.02-.53,1.39-.31.24.14.33.41.25.71-2.32,8.21-8.09,12.38-17.17,12.38-5.78,0-9.88-.9-14.62-1.95l-.18-.04c-.09-.02-.17-.03-.26-.03-.54,0-1.04.37-1.18.91ZM373.13,59.75c-1.5,0-2.73-.55-3.56-1.6-1.37-1.73-1.64-4.79-.75-8.62,1.53-6.54,4.58-10,8.82-10,1.52,0,2.67.47,3.43,1.4,1.17,1.44,1.38,3.88.64,7.48l-.06.37c-.04.22-.07.44-.12.68-.46,2.15-1.11,3.96-1.93,5.36-1.63,3.27-3.81,4.93-6.46,4.93Z"/>
      <path class="cls-2" d="M256.88,41.26c.34,0,.63-.23.71-.56l2.9-12.47c.05-.22,0-.44-.14-.62-.14-.17-.35-.28-.57-.28h-6.75c-.4,0-.78-.18-1.03-.49-.25-.32-.34-.72-.25-1.11l3.39-14.45c.06-.26-.02-.52-.21-.69-.19-.18-.46-.24-.71-.17l-21.07,6.08c-.25.07-.44.27-.5.52l-2.32,9.32c-.15.58-.67.99-1.27.99h-5.89c-.37,0-.42.3-.43.43l-.15.68-2.56,11.95c-.05.22,0,.44.15.61s.35.27.57.27h5.03c.4,0,.78.18,1.03.49.25.32.34.72.25,1.11l-3.05,13.11c-1.28,6.03-.76,10.55,1.57,13.42,2.14,2.64,5.89,3.99,11.14,3.99,4.2,0,8.96-.68,14.16-2.02.27-.07.49-.3.55-.57l2.35-10.94c.08-.28.13-.73-.01-.88-.11-.11-.39-.05-.54,0-.05.02-.11.03-.16.04-1.15.26-2.26.39-3.35.39-1.49,0-2.58-.42-3.26-1.26-.85-1.05-1.03-2.76-.54-5.08l2.57-10.79c.14-.59.67-1,1.27-1h7.11Z"/>
      <path class="cls-2" d="M216.31,27.44h.24c-.06-.09-.4-.15-.5-.15h-.09c-6.1.13-10.2,2.15-13.09,6.16l-.08.1c-.2.26-.53.7-1.18,2.11-.04.09-.16.34-.5.28l-.12-.02-.1-.12c-.06-.08-.21-.3.08-1.95l.88-4.93c.07-.4-.04-.8-.3-1.11s-.64-.49-1.04-.49h-17.12c-.64,0-1.19.45-1.32,1.07l-8.98,42.25c-.09.4.01.81.27,1.13.26.32.64.5,1.05.5h18.38c.65,0,1.21-.47,1.33-1.11l1.59-8.68c1.18-5.53,2.74-9.58,4.66-12.05,1.69-2.68,4.3-4.79,7.31-5.93.85-.41,3.3-1.04,4.47-.98h.08c.32,0,.55-.08.67-.23.08-.11.18-.43.21-.61l3.19-14.99c.02-.08.03-.21-.02-.28Z"/>
      <path class="cls-2" d="M505.94,36.26c-.05,0-.1,0-.15,0-3.01,0-5.99,1.54-7.8,4.04-1,1.39-1.68,2.95-2.03,4.63-.03.16,0,.32.11.45.11.14.27.21.44.21h13.38c.25,0,.48-.18.54-.43.83-3.34.69-5.77-.42-7.23-.83-1.08-2.2-1.64-4.07-1.68Z"/>
      <path class="cls-2" d="M442.93,39.8c-4,0-6.79,3.39-8.3,10.08-.86,3.82-.67,6.54.57,8.09.77.96,1.93,1.45,3.46,1.45,3.93,0,6.48-3.18,8.01-10,.9-3.98.75-6.76-.45-8.27-.72-.9-1.83-1.36-3.29-1.36Z"/>
      <path class="cls-2" d="M580.01,21.17l-7.26-.04c-.64,0-1.12-.6-.99-1.23l3.97-18.68c.16-.75-.54-1.4-1.28-1.19l-33.8,9.59c-.36.1-.64.4-.72.77l-2.26,9.97c-.1.47-.52.81-1,.81l-4.77.08c-.49,0-.91.35-1,.83l-1.47,6.66s-.86-1.54-2.24-2.99c-4.34-3.95-10.55-5.96-18.54-5.96-18.36,0-28.41,6.86-33.86,15.22-.44-1.79-1.04-3.47-1.86-5.02-2.48-4.66-7.74-10.2-18.8-10.2-4.22,0-8.85,3.95-8.85,3.95l-.05-.04s3.2-5.45,3.64-7.78l2.94-13.84c.14-.64-.35-1.23-1-1.23h-32.39c-.48,0-.9.34-1,.81l-16.11,75.85c-.13.63.35,1.23,1,1.23h26.62c1.43,0,1.57-1.38,1.71-1.97.31-1.37.83-3.65.83-3.93,0-.41.29-.67.36-.2.16,1.04.59,2.12,1.3,3.11.45.62,1.66,2,4.57,3.04,1.81.64,3.8,1.04,5.79,1.04,8.6,0,15.82-3.15,21.47-9.37,1.42-1.55,2.68-3.31,3.83-5.2.43-.71,1.49-.68,1.81.09.93,2.24,2.22,4.28,3.88,6.1,5.1,5.57,14.18,8.89,25.03,8.89,14.02,0,22.65-4.16,24.54-5.18.26-.14.43-.38.5-.66l2.26-8.26s.2-1.43,1.68-1.43c.72,0,.85.47,1.04.85.11.23.77,2.48.85,2.7.69,1.96,2.78,6.14,6.99,8.56,3.58,2.06,8.42,2.95,9.6,3.07,13.66,1.33,20.9-2.7,22.63-3.78.25-.15.42-.39.47-.68l4.17-20.63c.14-.69-.45-1.31-1.15-1.21l-6.26.51c-1.59.22-2.32-.49-2.14-1.9l1.22-6.05c.1-.48.52-.82,1-.82h8.59c.49,0,.91-.34,1-.82l4.5-22.22c.12-.63-.36-1.21-1-1.22ZM468.57,49.07c-1.54,7.24-4.27,12.99-8.18,17.25-4.45,4.91-10.09,7.35-16.91,7.35s-10.8-2.89-12.4-8.67c-.03-.12-.19-.69-.55-.69-.58,0-.7.72-.7.72l-1.43,6.74c-.1.47-.52.81-1,.81h-17.5c-.65,0-1.13-.6-1-1.23l13.5-63.53c.1-.47.52-.81,1-.81h19.79c.65,0,1.13.6,1,1.23l-4.55,21.41c-.2.95.9,1.6,1.64.97,3.69-3.11,7.97-4.67,12.84-4.67,6.45,0,10.91,2.3,13.36,6.92,2.15,4.09,2.52,9.49,1.09,16.2ZM526.74,52.38l-.09.42s-.58,2.29-2.98,2.29h-26.92c-.53,0-1.02.41-1.03.95-.11,4.08,3.41,6.32,11.55,6.34,5.35.01,9.17-.36,13.35-1.34.74-.17,1.41.49,1.24,1.23l-2.25,8.25c-.08.33-.32.61-.64.73-5.5,2.06-11.58,3.46-19.53,3.12-9.09-.38-16.53-2.82-20.43-7.08-3.9-4.26-5.01-10.36-3.32-18.3,3.26-15.35,14.25-23.03,32.95-23.03,15.81,0,21.84,8.81,18.1,26.43ZM571.97,39.35c-.1.47-.52.81-1,.81h-8.74c-.48,0-.9.34-1,.81l-2.7,12.97c-.85,3.99.32,5.99,3.51,5.99,1.35,0,2.96-.17,4.39-.5,0,0,.01,0,.02,0l.54-.12.88-.27s.63-.19.36.33c-.21.42-.54,1.05-.77,2.21,0,0,0,0,0,0l-1.84,8.83s-.15.95-.77,1.38c-.57.39-1.15.71-1.75.99-3.94,1.89-15.31,3.13-22.8-1.11-4.53-2.56-5.82-7.69-3.9-16.51l2.86-13.79c.13-.63-.35-1.23-1-1.23h-5.6c-.65,0-1.13-.6-1-1.23l2.35-11.66c.1-.47.52-.81,1-.81h6.47c.48,0,.89-.33,1-.8l2.46-10.41c.08-.36.36-.65.71-.76l21.08-6.09c.74-.21,1.45.44,1.28,1.2l-3.56,15.61c-.14.64.34,1.24,1,1.24h7.87c.65,0,1.13.6,1,1.23l-2.35,11.66Z"/>
      <path class="cls-2" d="M110.8,33.43c-2.31-4.77-6.86-7.19-13.53-7.19-5.21,0-9.49,1.75-13.07,5.36l-.07.07c-.49.49-1.32,1.51-2.44,3.55-.06.1-.1.16-.1.17,0,.02-.02.05-.05.09l-.08.11c-.16.21-.26.32-.6.34h-.01c-.17,0-.27-.04-.35-.12-.12-.12-.17-.32-.16-.61.01-.42.14-.96.15-.99l.77-3.42.34-1.72c.08-.43-.03-.86-.3-1.2-.28-.34-.68-.53-1.12-.53h-16.81c-.68,0-1.28.48-1.42,1.15l-12.64,60.46c-.09.43.02.87.29,1.21.28.34.69.54,1.13.54h18.09c.69,0,1.29-.49,1.42-1.17l2.43-12.65s.02,0,.03,0l1.25-6.52c.02-.1.04-.24.06-.41.14-.73.33-1.77.56-2.74.08-.4.34-.58.62-.06s.82,1.45,1.64,2.31c1.46,1.53,3.39,2.56,5.6,3.18.05.02.11.03.16.04.35.09.68.2,1.04.28,0-.01.02-.03.03-.04,1.24.28,2.55.46,3.97.46,6.34,0,11.75-2.3,16.09-6.83,3.84-4.03,6.5-9.43,7.9-16.06,1.52-7.14,1.24-12.87-.82-17.06ZM91.02,49.25c-1.69,7.08-4.61,10.67-8.68,10.67-1.54,0-2.73-.53-3.55-1.56-1.36-1.72-1.57-4.73-.62-8.72.6-2.51,1.41-4.58,2.39-6.15,1.21-2.18,2.83-3.43,4.8-3.72.54-.13,1.08-.19,1.62-.19,1.62,0,2.84.5,3.61,1.49,1.23,1.56,1.37,4.24.42,8.19Z"/>
    </g>
  </g>
</svg>