<?xml version="1.0" encoding="utf-8"?>
<!-- Generator: Adobe Illustrator 27.7.0, SVG Export Plug-In . SVG Version: 6.00 Build 0)  -->
<svg version="1.1" id="Layer_2_00000114038229535774457610000002392885564935369348_"
	 xmlns="http://www.w3.org/2000/svg" xmlns:xlink="http://www.w3.org/1999/xlink" x="0px" y="0px" viewBox="0 0 281.4 77.5"
	 style="enable-background:new 0 0 281.4 77.5;" xml:space="preserve">
<style type="text/css">
	.st0{fill:#E95F28;}
	.st1{fill:#FFFFFF;}
</style>
<g id="Layer_1-2">
	<path class="st0" d="M95.9,0c-1.1,5.5-4.1,10.4-8.4,13.9c-4.3,3.5-9.7,5.5-15.3,5.5L0,19.4C1.1,13.9,4.1,9,8.4,5.5
		C12.7,1.9,18.1,0,23.7,0H95.9z M23.7,58.1c-5.6,0-11,2-15.3,5.5C4.1,67.1,1.2,72,0,77.5l72.1,0c6.3-0.1,12.4-2.7,16.9-7.2
		c4.4-4.5,6.9-10.6,6.9-17s-2.5-12.5-6.9-17c-4.5-4.5-10.5-7.1-16.9-7.2L0,29.1C1.1,34.5,4.1,39.5,8.4,43s9.7,5.5,15.3,5.5h48.4
		c1.2,0.1,2.3,0.7,3.2,1.6c0.8,0.9,1.3,2.1,1.3,3.3c0,1.2-0.5,2.4-1.3,3.3c-0.8,0.9-1.9,1.4-3.2,1.5L23.7,58.1L23.7,58.1z"/>
	<path class="st1" d="M115.2,36.2v-4.3h7.7v3.3c0,0.7,0.2,0.9,0.9,0.9h7.5c0.7,0,0.9-0.2,0.9-0.9v-3.4c0-0.8-0.3-1-1.3-1.2l-8.8-2.1
		c-4.4-1.1-6.8-2.3-6.8-6.8v-5.4c0-4.4,2.1-6.5,6.5-6.5h11.1c4.4,0,6.5,2.1,6.5,6.5v4h-7.7v-3c0-0.7-0.2-0.9-0.9-0.9H124
		c-0.7,0-0.9,0.2-0.9,0.9v3.1c0,0.8,0.3,1,1.3,1.2l8.8,2.1c4.4,1.1,6.8,2.3,6.8,6.8v5.8c0,4.4-2.1,6.5-6.5,6.5h-11.8
		C117.3,42.8,115.2,40.6,115.2,36.2L115.2,36.2z"/>
	<path class="st1" d="M143.7,9.7h18.4c4.4,0,6.5,2.1,6.5,6.5v9.3c0,4.4-2.1,6.5-6.5,6.5h-10.6v10.7h-7.8V9.7z M159.9,25.3
		c0.7,0,0.9-0.2,0.9-0.9v-7.1c0-0.7-0.2-0.9-0.9-0.9h-8.4v8.9L159.9,25.3L159.9,25.3z"/>
	<path class="st1" d="M171.7,36.2v-20c0-4.4,2.1-6.5,6.5-6.5h12.7c4.4,0,6.5,2.1,6.5,6.5v20c0,4.4-2.1,6.5-6.5,6.5h-12.7
		C173.8,42.8,171.7,40.6,171.7,36.2z M188.7,36c0.7,0,0.9-0.2,0.9-0.9V17.4c0-0.7-0.2-0.9-0.9-0.9h-8.3c-0.7,0-0.9,0.2-0.9,0.9v17.6
		c0,0.7,0.2,0.9,0.9,0.9H188.7z"/>
	<path class="st1" d="M227.4,42.8h-8.2l-5.5-11.4h-4.6v11.4h-7.8v-33h18.4c4.4,0,6.5,2.1,6.5,6.5v8.3c0,3.7-1.5,5.8-4.5,6.3
		L227.4,42.8L227.4,42.8z M217.5,24.9c0.7,0,0.9-0.2,0.9-0.9v-6.7c0-0.7-0.2-0.9-0.9-0.9h-8.4v8.5L217.5,24.9L217.5,24.9z"/>
	<path class="st1" d="M237.6,16.6H229V9.7h25.1v6.8h-8.6v26.2h-7.8V16.6z"/>
	<path class="st1" d="M256.6,36.2v-4.3h7.7v3.3c0,0.7,0.2,0.9,0.9,0.9h7.5c0.7,0,0.9-0.2,0.9-0.9v-3.4c0-0.8-0.3-1-1.3-1.2l-8.8-2.1
		c-4.4-1.1-6.8-2.3-6.8-6.8v-5.4c0-4.4,2.1-6.5,6.5-6.5h11.1c4.4,0,6.5,2.1,6.5,6.5v4h-7.7v-3c0-0.7-0.2-0.9-0.9-0.9h-6.8
		c-0.7,0-0.9,0.2-0.9,0.9v3.1c0,0.8,0.3,1,1.3,1.2l8.8,2.1c4.4,1.1,6.8,2.3,6.8,6.8v5.8c0,4.4-2.1,6.5-6.5,6.5h-11.8
		C258.8,42.8,256.6,40.6,256.6,36.2L256.6,36.2z"/>
	<path class="st1" d="M115.2,48.6h4.6v19.2h-4.6V48.6z"/>
	<path class="st1" d="M122.4,48.6h4.6l6.8,11.3V48.6h4.4v19.2H134l-7.2-11.9v11.9h-4.4V48.6z"/>
	<path class="st1" d="M145.2,52.6h-5v-4h14.6v4h-5v15.2h-4.6V52.6z"/>
	<path class="st1" d="M156.8,48.6H170v4h-8.7V56h6.9v3.9h-6.9v3.9h8.7v3.9h-13.2V48.6z"/>
	<path class="st1" d="M187.5,67.8h-4.8l-3.2-6.6h-2.7v6.6h-4.6V48.6H183c2.6,0,3.8,1.2,3.8,3.8v4.8c0,2.2-0.9,3.3-2.6,3.7
		L187.5,67.8L187.5,67.8z M181.7,57.4c0.4,0,0.5-0.1,0.5-0.5V53c0-0.4-0.1-0.5-0.5-0.5h-4.9v4.9C176.8,57.4,181.7,57.4,181.7,57.4z"
		/>
	<path class="st1" d="M200.7,63.8h-6.1l-1.1,4.1h-4.7l5.8-19.2h6.3l5.9,19.2h-4.9L200.7,63.8L200.7,63.8z M199.6,59.9l-2-7.5l-2,7.5
		H199.6L199.6,59.9z"/>
	<path class="st1" d="M208,64V52.4c0-2.6,1.3-3.8,3.8-3.8h6.9c2.6,0,3.8,1.2,3.8,3.8v3.3h-4.6v-2.7c0-0.4-0.1-0.5-0.5-0.5h-4.3
		c-0.4,0-0.5,0.1-0.5,0.5v10.3c0,0.4,0.1,0.5,0.5,0.5h4.3c0.4,0,0.5-0.1,0.5-0.5v-2.7h4.6V64c0,2.6-1.2,3.8-3.8,3.8h-6.9
		C209.2,67.8,208,66.6,208,64L208,64z"/>
	<path class="st1" d="M229,52.6h-5v-4h14.6v4h-5v15.2H229V52.6z"/>
	<path class="st1" d="M240.6,48.6h4.6v19.2h-4.6V48.6z"/>
	<path class="st1" d="M247.6,64V52.4c0-2.6,1.2-3.8,3.8-3.8h7.4c2.6,0,3.8,1.2,3.8,3.8V64c0,2.6-1.2,3.8-3.8,3.8h-7.4
		C248.8,67.8,247.6,66.6,247.6,64z M257.4,63.9c0.4,0,0.5-0.1,0.5-0.5V53.1c0-0.4-0.1-0.5-0.5-0.5h-4.8c-0.4,0-0.5,0.1-0.5,0.5v10.3
		c0,0.4,0.1,0.5,0.5,0.5H257.4z"/>
	<path class="st1" d="M265,48.6h4.6l6.8,11.3V48.6h4.4v19.2h-4.2l-7.2-11.9v11.9H265V48.6z"/>
</g>
</svg>
