<?xml version="1.0" encoding="utf-8"?>
<!-- Generator: Adobe Illustrator 25.0.0, SVG Export Plug-In . SVG Version: 6.00 Build 0)  -->
<svg version="1.1" id="Layer_1" xmlns="http://www.w3.org/2000/svg" xmlns:xlink="http://www.w3.org/1999/xlink" x="0px" y="0px"
	 viewBox="0 0 285.7 78.4" style="enable-background:new 0 0 285.7 78.4;" xml:space="preserve">
<style type="text/css">
	.st0{fill:#FFFFFF;}
</style>
<g>
	<g>
		<g>
			<path class="st0" d="M33.9,74.2l33.4-62.6L73.6,0L59,3.9c-1.5,0.3-2.9,1.1-3.7,2.6l-0.6,1.1l-1.2,2.2l-25,48.9
				c-0.2,0.3-0.5,0.5-0.9,0.4c-0.3-0.1-0.5-0.3-0.6-0.6l-3-25.9c-0.1-1.1-1-2.3-1.8-2.8L18,27.6l-5.1-3c-1.1-0.7-2.5-0.6-3.7,0.2
				L0,31.6l8.1,4.7c0.1,0.1,2.4,1.6,2.8,3.3l4.6,35.9c0.2,1.6,1.5,2.7,3.2,2.6h8.2C28.1,78.1,31.5,78.3,33.9,74.2L33.9,74.2z"/>
		</g>
		<path class="st0" d="M64.9,67.2l7.3-2.5c1.6-0.5,3.3,0.1,4.3,1.4c1.4,1.8,3.7,2.8,6.5,2.8c4.6,0,7.3-1.9,7.7-4.9
			c0.7-4.4-9.6-2.3-16.2-5.2c-3.4-1.5-6.3-4.7-5.4-10.2c1.2-7.6,9.4-13.1,18.7-13.1c8.8,0,14.1,4.5,14.9,10.9l-6.8,1.8
			c-1.6,0.4-3.4-0.2-4.3-1.6c-0.9-1.6-2.7-2.5-5.2-2.6c-3.6-0.1-6.4,2.2-6.7,4.6c-0.9,5.3,9.8,2.7,16.5,5.5
			c3.5,1.5,6.5,4.8,5.6,10.4c-1.4,8.6-10,13.6-20.5,13.6C73.3,78.1,66.1,74,64.9,67.2z"/>
		<path class="st0" d="M174,37.7l-5.2,36.7c-0.3,1.9-1.7,3.2-3.4,3.2h-7.3l0.7-4.6c-3.2,3.2-7.3,5-12.2,5c-8.7,0-16-8.2-14.2-20.4
			c1.7-12.2,10.3-20.3,20-20.3c4.8,0,8.5,1.9,10.8,5.1l0.2-1.4c0.3-1.9,1.7-3.2,3.4-3.2L174,37.7L174,37.7z M160.9,57.7
			c0.9-6-2.6-10.6-7.8-10.6s-9.9,4.7-10.7,10.6s2.5,10.6,7.7,10.6C155.3,68.3,160.1,63.7,160.9,57.7z"/>
		<path class="st0" d="M187.1,43.7c3-3.6,7.3-6,12.3-6c9.1,0,16,8.1,14.2,20.3c-1.7,12.2-9.9,20.4-20,20.4c-4.9,0-8.7-2.3-10.7-6
			l-0.3,2.3c-0.2,1.9-1.7,3.3-3.4,3.3h-7.3l7.1-49.5l0.8-5.6c0.2-1.3,1-2.5,2.2-2.9l8.9-2.5l-1.6,11.1L187.1,43.7z M203.6,58.1
			c0.9-5.9-2.5-10.6-7.7-10.6s-9.9,4.6-10.8,10.6c-0.8,6.1,2.6,10.6,7.8,10.6S202.8,63.9,203.6,58.1z"/>
		<path class="st0" d="M252.5,60.4h-28c0.4,5.3,4,8.5,8.3,8.5c2.8,0,5.1-0.8,7.1-2.3c1.3-1,3-0.9,4.2,0.2l3.9,3.7
			c-4.2,5.3-9.6,7.8-17,7.7c-10.5-0.1-17.7-9.4-16-20.9S224.8,36,237,36C247.9,36.1,255.5,46,252.5,60.4z M243.2,52.8
			c-0.7-4.7-3.6-7.3-7.6-7.3c-4.3,0-7.8,3-9.7,7.3H243.2z"/>
		<path class="st0" d="M122.2,47.9l-2.2,14c-0.6,4.2,1.4,6.7,5.6,6.7c1.5,0,3.1-0.3,4.7-0.9l-1.1,6.8c-0.3,1.5-1.4,2.8-2.9,3.1
			c-1.9,0.4-3.7,0.6-5.3,0.6c-9.3,0-14-6-12.6-14.4l2.6-15.9h-7.3l1.1-6.6c0.3-1.8,1.9-3.2,3.8-3.2h4l0,0l0.9-5.6
			c0.2-1.3,1.1-2.5,2.4-2.9l9.9-2.5L124,38.2h0.1h1h9.8l-3.6,8.2c-0.5,1-1.6,1.7-2.8,1.7h-5L122.2,47.9z"/>
		<path class="st0" d="M273,47.8l-2.2,14c-0.6,4.2,1.4,6.7,5.6,6.7c1.5,0,3.1-0.3,4.7-0.9l-1.1,6.8c-0.3,1.5-1.4,2.8-2.9,3.1
			c-1.9,0.4-3.7,0.6-5.3,0.6c-9.3,0-14-6-12.6-14.4l2.6-15.9h-7.3l1.1-6.6c0.3-1.8,1.9-3.2,3.8-3.2h4l0,0l0.9-5.6
			c0.2-1.3,1.1-2.5,2.4-2.9l9.9-2.5l-1.8,11.1h0.1h1h9.8l-3.6,8.2c-0.5,1-1.6,1.7-2.8,1.7h-5L273,47.8z"/>
		<path class="st0" d="M66.9,38.1l-5.8,36.7c-0.3,1.9-1.9,3.2-3.8,3.2h-8.2l4.6-28.9l0.9-5.6c0.2-1.3,1.1-2.5,2.4-2.9L66.9,38.1
			l-1.8,11.1"/>
	</g>
</g>
</svg>
